<?xml version="1.0" encoding="utf-8"?>
<!-- Generator: Adobe Illustrator 15.0.2, SVG Export Plug-In . SVG Version: 6.00 Build 0)  -->
<!DOCTYPE svg PUBLIC "-//W3C//DTD SVG 1.1//EN" "http://www.w3.org/Graphics/SVG/1.1/DTD/svg11.dtd">
<svg version="1.1" id="Layer_1" xmlns="http://www.w3.org/2000/svg" xmlns:xlink="http://www.w3.org/1999/xlink" x="0px" y="0px"
	 width="45.779px" height="25.454px" viewBox="0 0 45.779 25.454" enable-background="new 0 0 45.779 25.454" xml:space="preserve">
<path opacity="0.54" fill="#FFFFFF" d="M40.568,9.766l2.593,4.799h2.618c0,0-4.054-8.085-4.756-8.5
	c-0.7-0.414-2.702-0.483-2.702-0.483l0.025-0.127c1.046-0.395,1.702-1.452,1.702-2.638c0-1.529-1.241-2.815-2.77-2.815
	c-1.531,0-2.77,1.286-2.77,2.815c0,1.186,0.653,2.243,1.702,2.638l-0.01,0.127c0,0-1.942-0.011-2.669,0.483
	c-0.454,0.31-2.202,3.558-3.446,5.948c-1.251-2.409-3.01-5.688-3.45-5.948c-0.7-0.414-2.702-0.483-2.702-0.483l0.023-0.127
	c1.048-0.395,1.703-1.452,1.703-2.638c0-1.529-1.24-2.815-2.771-2.815c-1.528,0-2.768,1.286-2.768,2.815
	c0,1.186,0.652,2.243,1.701,2.638l-0.011,0.127c0,0-1.939-0.011-2.667,0.483c-0.454,0.31-2.203,3.561-3.447,5.95
	c-1.253-2.409-3.014-5.689-3.452-5.95c-0.7-0.414-2.703-0.483-2.703-0.483l0.024-0.127c1.048-0.395,1.702-1.452,1.702-2.638
	C11.271,1.286,10.031,0,8.503,0C6.972,0,5.731,1.286,5.731,2.815c0,1.186,0.656,2.243,1.702,2.638L7.422,5.581
	c0,0-1.938-0.011-2.665,0.483C4.03,6.56,0,14.564,0,14.564h2.619l2.592-4.799v4.186L2.539,25.454h3.744l2.22-9.231l2.217,9.231
	h3.744l-2.671-11.503V9.766l2.593,4.799h0.004h2.613h0.006L19.6,9.766v4.186l-2.672,11.503h3.746l2.217-9.231l2.218,9.231h3.746
	l-2.672-11.503V9.766l2.592,4.799h0.002h2.617h0.001l2.593-4.799v4.186l-2.672,11.503h3.744l2.22-9.231l2.217,9.231h3.746
	l-2.674-11.503V9.766z"/>
</svg>
