<?xml version="1.0" encoding="utf-8"?>
<!-- Generator: Adobe Illustrator 15.0.2, SVG Export Plug-In . SVG Version: 6.00 Build 0)  -->
<!DOCTYPE svg PUBLIC "-//W3C//DTD SVG 1.1//EN" "http://www.w3.org/Graphics/SVG/1.1/DTD/svg11.dtd">
<svg version="1.1" id="Layer_1" xmlns="http://www.w3.org/2000/svg" xmlns:xlink="http://www.w3.org/1999/xlink" x="0px" y="0px"
	 width="22.389px" height="44.007px" viewBox="0 0 22.389 44.007" enable-background="new 0 0 22.389 44.007" xml:space="preserve">
<g opacity="0.54">
	<g>
		<circle fill="#FFFFFF" cx="11.308" cy="2.578" r="2.578"/>
		<circle fill="#FFFFFF" cx="11.308" cy="23.02" r="2.578"/>
		<circle fill="#FFFFFF" cx="11.308" cy="33.695" r="2.578"/>
		<circle fill="#FFFFFF" cx="11.308" cy="41.429" r="2.578"/>
		<circle fill="#FFFFFF" cx="19.81" cy="9.226" r="2.579"/>
		<circle fill="#FFFFFF" cx="2.578" cy="9.226" r="2.578"/>
		<circle fill="#FFFFFF" cx="19.81" cy="18.497" r="2.579"/>
		<circle fill="#FFFFFF" cx="2.578" cy="18.497" r="2.578"/>
		<circle fill="#FFFFFF" cx="19.81" cy="27.724" r="2.579"/>
		<circle fill="#FFFFFF" cx="2.578" cy="27.724" r="2.578"/>
	</g>
	<g>
		
			<line fill="none" stroke="#FFFFFF" stroke-width="0.7237" stroke-miterlimit="10" x1="11.307" y1="1.582" x2="11.307" y2="39.574"/>
		
			<line fill="none" stroke="#FFFFFF" stroke-width="0.7237" stroke-miterlimit="10" x1="19.946" y1="9.089" x2="19.946" y2="27.181"/>
		<line fill="none" stroke="#FFFFFF" stroke-width="0.7237" stroke-miterlimit="10" x1="2.533" y1="9.135" x2="2.533" y2="27.769"/>
		
			<line fill="none" stroke="#FFFFFF" stroke-width="0.7237" stroke-miterlimit="10" x1="19.811" y1="27.679" x2="11.398" y2="33.739"/>
		
			<line fill="none" stroke="#FFFFFF" stroke-width="0.7237" stroke-miterlimit="10" x1="11.398" y1="33.739" x2="2.578" y2="27.679"/>
		<line fill="none" stroke="#FFFFFF" stroke-width="0.7237" stroke-miterlimit="10" x1="19.811" y1="9.135" x2="2.533" y2="9.135"/>
		<line fill="none" stroke="#FFFFFF" stroke-width="0.7237" stroke-miterlimit="10" x1="2.533" y1="9.271" x2="11.307" y2="2.486"/>
		
			<line fill="none" stroke="#FFFFFF" stroke-width="0.7237" stroke-miterlimit="10" x1="11.307" y1="2.486" x2="19.855" y2="9.089"/>
		
			<line fill="none" stroke="#FFFFFF" stroke-width="0.7237" stroke-miterlimit="10" x1="19.811" y1="18.407" x2="2.623" y2="27.724"/>
		
			<line fill="none" stroke="#FFFFFF" stroke-width="0.7237" stroke-miterlimit="10" x1="2.578" y1="18.497" x2="19.855" y2="27.769"/>
		
			<line fill="none" stroke="#FFFFFF" stroke-width="0.7237" stroke-miterlimit="10" x1="2.513" y1="18.455" x2="19.96" y2="18.455"/>
		
			<line fill="none" stroke="#FFFFFF" stroke-width="0.7237" stroke-miterlimit="10" x1="19.808" y1="27.762" x2="2.526" y2="27.762"/>
		
			<line fill="none" stroke="#FFFFFF" stroke-width="0.7237" stroke-miterlimit="10" x1="19.877" y1="9.215" x2="11.333" y2="23.074"/>
		
			<line fill="none" stroke="#FFFFFF" stroke-width="0.7237" stroke-miterlimit="10" x1="11.333" y1="23.074" x2="2.679" y2="9.215"/>
	</g>
</g>
</svg>
