<?xml version="1.0" encoding="utf-8"?>
<!-- Generator: Adobe Illustrator 15.0.2, SVG Export Plug-In . SVG Version: 6.00 Build 0)  -->
<!DOCTYPE svg PUBLIC "-//W3C//DTD SVG 1.1//EN" "http://www.w3.org/Graphics/SVG/1.1/DTD/svg11.dtd">
<svg version="1.1" id="Layer_1" xmlns="http://www.w3.org/2000/svg" xmlns:xlink="http://www.w3.org/1999/xlink" x="0px" y="0px"
	 width="238.899px" height="14.26px" viewBox="0 0 238.899 14.26" enable-background="new 0 0 238.899 14.26" xml:space="preserve">
<g>
	<path fill="#95CBEE" d="M4.015,6.41h0.09c0.612-0.666,3.241-3.349,3.763-3.961c0.504-0.594,0.9-1.044,0.9-1.351
		c0-0.198-0.072-0.324-0.252-0.36c-0.162-0.036-0.234-0.072-0.234-0.18c0-0.126,0.09-0.162,0.288-0.162
		c0.378,0,1.368,0.054,1.854,0.054c0.558,0,1.548-0.054,2.106-0.054c0.18,0,0.306,0.036,0.306,0.162s-0.09,0.162-0.27,0.162
		c-0.252,0-0.702,0.072-1.044,0.198c-0.558,0.216-1.17,0.594-1.944,1.351C9.021,2.809,6.302,5.51,5.69,6.158
		c0.648,0.846,4.177,4.645,4.879,5.311c0.792,0.757,1.603,1.566,2.575,1.945c0.54,0.216,0.9,0.27,1.116,0.27
		c0.126,0,0.234,0.037,0.234,0.145c0,0.126-0.09,0.18-0.433,0.18h-1.566c-0.54,0-0.864,0-1.242-0.035
		c-0.972-0.091-1.458-0.486-2.232-1.171C8.229,12.1,4.682,7.94,4.303,7.418l-0.198-0.27h-0.09v1.639c0,1.657,0,3.079,0.054,3.853
		c0.036,0.505,0.198,0.9,0.648,0.972c0.252,0.037,0.648,0.072,0.882,0.072c0.144,0,0.234,0.055,0.234,0.145
		c0,0.126-0.144,0.18-0.342,0.18c-1.008,0-2.143-0.054-2.593-0.054c-0.414,0-1.548,0.054-2.269,0.054c-0.234,0-0.36-0.054-0.36-0.18
		c0-0.09,0.072-0.145,0.288-0.145c0.27,0,0.486-0.035,0.648-0.072c0.36-0.071,0.45-0.467,0.522-0.99
		c0.09-0.756,0.09-2.178,0.09-3.834V5.618c0-2.737,0-3.241-0.036-3.817c-0.036-0.612-0.18-0.9-0.774-1.026
		C0.864,0.738,0.558,0.72,0.306,0.72C0.108,0.72,0,0.684,0,0.558s0.126-0.162,0.396-0.162c0.955,0,2.089,0.054,2.521,0.054
		s1.566-0.054,2.179-0.054c0.252,0,0.378,0.036,0.378,0.162S5.366,0.72,5.222,0.72c-0.18,0-0.288,0.018-0.504,0.054
		C4.231,0.864,4.087,1.17,4.051,1.8C4.015,2.376,4.015,2.881,4.015,5.618V6.41z"/>
	<path fill="#95CBEE" d="M16.546,9.309c-0.09,0-0.126,0.036-0.162,0.145l-0.973,2.574c-0.18,0.45-0.27,0.883-0.27,1.099
		c0,0.324,0.162,0.558,0.72,0.558h0.27c0.216,0,0.271,0.037,0.271,0.145c0,0.145-0.108,0.18-0.306,0.18
		c-0.576,0-1.351-0.054-1.909-0.054c-0.198,0-1.188,0.054-2.125,0.054c-0.234,0-0.342-0.035-0.342-0.18
		c0-0.107,0.072-0.145,0.216-0.145c0.162,0,0.415-0.018,0.559-0.035c0.828-0.108,1.17-0.721,1.53-1.621l4.52-11.307
		C18.761,0.198,18.869,0,19.049,0c0.162,0,0.27,0.162,0.45,0.576c0.432,0.99,3.313,8.336,4.465,11.073
		c0.684,1.62,1.207,1.872,1.584,1.962c0.27,0.055,0.54,0.072,0.756,0.072c0.144,0,0.234,0.019,0.234,0.145
		c0,0.145-0.162,0.18-0.828,0.18c-0.648,0-1.963,0-3.403-0.035c-0.324-0.019-0.54-0.019-0.54-0.145c0-0.107,0.072-0.145,0.252-0.162
		c0.126-0.036,0.252-0.198,0.162-0.414l-1.44-3.817c-0.036-0.09-0.09-0.126-0.18-0.126H16.546z M20.22,8.408
		c0.09,0,0.108-0.054,0.09-0.108l-1.62-4.447c-0.018-0.072-0.036-0.162-0.09-0.162c-0.054,0-0.09,0.09-0.108,0.162l-1.657,4.429
		c-0.018,0.072,0,0.126,0.072,0.126H20.22z"/>
	<path fill="#95CBEE" d="M28.787,5.618c0-2.737,0-3.241-0.036-3.817c-0.036-0.612-0.18-0.9-0.774-1.026
		c-0.144-0.036-0.45-0.054-0.702-0.054c-0.198,0-0.306-0.036-0.306-0.162s0.126-0.162,0.396-0.162c0.955,0,2.089,0.054,2.449,0.054
		c0.882,0,1.584-0.054,2.197-0.054c3.259,0,3.835,1.747,3.835,2.701c0,1.477-0.847,2.359-1.837,3.151
		c1.477,0.504,3.277,1.782,3.277,3.889c0,1.927-1.495,3.926-4.808,3.926c-0.432,0-2.071-0.108-2.611-0.108
		c-0.414,0-1.548,0.054-2.269,0.054c-0.234,0-0.36-0.054-0.36-0.18c0-0.09,0.072-0.145,0.288-0.145c0.27,0,0.486-0.035,0.648-0.072
		c0.36-0.071,0.45-0.467,0.522-0.99c0.09-0.756,0.09-2.178,0.09-3.834V5.618z M30.948,5.924c0,0.144,0.054,0.18,0.126,0.198
		c0.162,0.036,0.432,0.054,0.846,0.054c0.594,0,0.99-0.072,1.296-0.342c0.468-0.378,0.738-1.026,0.738-1.908
		c0-1.207-0.702-2.791-2.251-2.791c-0.252,0-0.414,0-0.594,0.036c-0.126,0.036-0.162,0.108-0.162,0.306V5.924z M33.324,7.364
		c-0.378-0.27-0.792-0.396-1.495-0.432c-0.324-0.018-0.504-0.018-0.774-0.018c-0.072,0-0.108,0.036-0.108,0.126v4.267
		c0,1.189,0.054,1.495,0.63,1.729c0.486,0.199,0.9,0.217,1.314,0.217c0.81,0,2.179-0.432,2.179-2.305
		C35.071,9.831,34.693,8.318,33.324,7.364z"/>
	<path fill="#95CBEE" d="M41.516,5.618c0-2.737,0-3.241-0.036-3.817c-0.036-0.612-0.18-0.9-0.774-1.026
		c-0.144-0.036-0.45-0.054-0.702-0.054c-0.198,0-0.306-0.036-0.306-0.162s0.126-0.162,0.396-0.162c0.955,0,2.089,0.054,2.449,0.054
		c0.882,0,1.584-0.054,2.197-0.054c3.259,0,3.835,1.747,3.835,2.701c0,1.477-0.847,2.359-1.837,3.151
		c1.477,0.504,3.277,1.782,3.277,3.889c0,1.927-1.495,3.926-4.808,3.926c-0.432,0-2.071-0.108-2.611-0.108
		c-0.414,0-1.548,0.054-2.269,0.054c-0.234,0-0.36-0.054-0.36-0.18c0-0.09,0.072-0.145,0.288-0.145c0.27,0,0.486-0.035,0.648-0.072
		c0.36-0.071,0.45-0.467,0.522-0.99c0.09-0.756,0.09-2.178,0.09-3.834V5.618z M43.677,5.924c0,0.144,0.054,0.18,0.126,0.198
		c0.162,0.036,0.432,0.054,0.846,0.054c0.594,0,0.99-0.072,1.296-0.342c0.468-0.378,0.738-1.026,0.738-1.908
		c0-1.207-0.702-2.791-2.251-2.791c-0.252,0-0.414,0-0.594,0.036c-0.126,0.036-0.162,0.108-0.162,0.306V5.924z M46.054,7.364
		c-0.378-0.27-0.792-0.396-1.495-0.432c-0.324-0.018-0.504-0.018-0.774-0.018c-0.072,0-0.108,0.036-0.108,0.126v4.267
		c0,1.189,0.054,1.495,0.63,1.729c0.486,0.199,0.9,0.217,1.314,0.217c0.81,0,2.179-0.432,2.179-2.305
		C47.8,9.831,47.422,8.318,46.054,7.364z"/>
	<path fill="#95CBEE" d="M55.41,9.309c-0.09,0-0.126,0.036-0.162,0.145l-0.973,2.574c-0.18,0.45-0.27,0.883-0.27,1.099
		c0,0.324,0.162,0.558,0.72,0.558h0.27c0.216,0,0.271,0.037,0.271,0.145c0,0.145-0.108,0.18-0.306,0.18
		c-0.576,0-1.351-0.054-1.909-0.054c-0.198,0-1.188,0.054-2.125,0.054c-0.234,0-0.342-0.035-0.342-0.18
		c0-0.107,0.072-0.145,0.216-0.145c0.162,0,0.415-0.018,0.559-0.035c0.828-0.108,1.17-0.721,1.53-1.621l4.52-11.307
		C57.625,0.198,57.732,0,57.913,0c0.162,0,0.27,0.162,0.45,0.576c0.432,0.99,3.313,8.336,4.465,11.073
		c0.684,1.62,1.207,1.872,1.584,1.962c0.27,0.055,0.54,0.072,0.756,0.072c0.144,0,0.234,0.019,0.234,0.145
		c0,0.145-0.162,0.18-0.828,0.18c-0.648,0-1.963,0-3.403-0.035c-0.324-0.019-0.54-0.019-0.54-0.145c0-0.107,0.072-0.145,0.252-0.162
		c0.126-0.036,0.252-0.198,0.162-0.414l-1.44-3.817c-0.036-0.09-0.09-0.126-0.18-0.126H55.41z M59.083,8.408
		c0.09,0,0.108-0.054,0.09-0.108l-1.62-4.447c-0.018-0.072-0.036-0.162-0.09-0.162c-0.054,0-0.09,0.09-0.108,0.162l-1.657,4.429
		c-0.018,0.072,0,0.126,0.072,0.126H59.083z"/>
	<path fill="#95CBEE" d="M69.9,8.787c0,2.305,0,3.547,0.378,3.872c0.306,0.27,0.774,0.396,2.179,0.396
		c0.955,0,1.657-0.019,2.107-0.504c0.216-0.234,0.432-0.738,0.468-1.081c0.018-0.162,0.054-0.27,0.198-0.27
		c0.126,0,0.144,0.09,0.144,0.307c0,0.197-0.126,1.548-0.27,2.07c-0.108,0.396-0.198,0.486-1.134,0.486
		c-2.593,0-3.781-0.108-5.24-0.108c-0.414,0-1.548,0.054-2.269,0.054c-0.234,0-0.36-0.054-0.36-0.18c0-0.09,0.072-0.145,0.288-0.145
		c0.27,0,0.486-0.035,0.648-0.072c0.36-0.071,0.45-0.467,0.522-0.99c0.09-0.756,0.09-2.178,0.09-3.834V5.618
		c0-2.737,0-3.241-0.036-3.817c-0.036-0.612-0.18-0.9-0.774-1.026c-0.144-0.036-0.36-0.054-0.594-0.054
		c-0.198,0-0.306-0.036-0.306-0.162s0.126-0.162,0.396-0.162c0.846,0,1.98,0.054,2.467,0.054c0.432,0,1.746-0.054,2.448-0.054
		c0.252,0,0.378,0.036,0.378,0.162S71.521,0.72,71.305,0.72c-0.198,0-0.486,0.018-0.702,0.054c-0.486,0.09-0.63,0.396-0.666,1.026
		C69.9,2.376,69.9,2.881,69.9,5.618V8.787z"/>
	<path fill="#95CBEE" d="M79.976,9.309c-0.09,0-0.126,0.036-0.162,0.145l-0.973,2.574c-0.18,0.45-0.27,0.883-0.27,1.099
		c0,0.324,0.162,0.558,0.72,0.558h0.27c0.216,0,0.271,0.037,0.271,0.145c0,0.145-0.108,0.18-0.306,0.18
		c-0.576,0-1.351-0.054-1.909-0.054c-0.198,0-1.188,0.054-2.125,0.054c-0.234,0-0.342-0.035-0.342-0.18
		c0-0.107,0.072-0.145,0.216-0.145c0.162,0,0.415-0.018,0.559-0.035c0.828-0.108,1.17-0.721,1.53-1.621l4.52-11.307
		C82.191,0.198,82.299,0,82.479,0c0.162,0,0.27,0.162,0.45,0.576c0.432,0.99,3.313,8.336,4.465,11.073
		c0.684,1.62,1.207,1.872,1.584,1.962c0.27,0.055,0.54,0.072,0.756,0.072c0.144,0,0.234,0.019,0.234,0.145
		c0,0.145-0.162,0.18-0.828,0.18c-0.648,0-1.963,0-3.403-0.035c-0.324-0.019-0.54-0.019-0.54-0.145c0-0.107,0.072-0.145,0.252-0.162
		c0.126-0.036,0.252-0.198,0.162-0.414l-1.44-3.817c-0.036-0.09-0.09-0.126-0.18-0.126H79.976z M83.649,8.408
		c0.09,0,0.108-0.054,0.09-0.108l-1.62-4.447c-0.018-0.072-0.036-0.162-0.09-0.162c-0.054,0-0.09,0.09-0.108,0.162l-1.657,4.429
		c-0.018,0.072,0,0.126,0.072,0.126H83.649z"/>
	<path fill="#95CBEE" d="M101.453,6.122c0.054,0,0.108-0.036,0.108-0.126V5.618c0-2.737,0-3.241-0.036-3.817
		c-0.036-0.612-0.18-0.9-0.774-1.026c-0.144-0.036-0.45-0.054-0.702-0.054c-0.198,0-0.306-0.036-0.306-0.162
		s0.126-0.162,0.378-0.162c0.972,0,2.106,0.054,2.593,0.054c0.432,0,1.566-0.054,2.269-0.054c0.252,0,0.378,0.036,0.378,0.162
		s-0.108,0.162-0.324,0.162c-0.144,0-0.306,0.018-0.522,0.054c-0.486,0.09-0.63,0.396-0.666,1.026
		c-0.036,0.576-0.036,1.081-0.036,3.817v3.169c0,1.657,0,3.079,0.09,3.853c0.054,0.505,0.162,0.9,0.703,0.972
		c0.252,0.037,0.648,0.072,0.918,0.072c0.198,0,0.288,0.055,0.288,0.145c0,0.126-0.144,0.18-0.36,0.18
		c-1.17,0-2.305-0.054-2.809-0.054c-0.414,0-1.548,0.054-2.25,0.054c-0.252,0-0.378-0.054-0.378-0.18
		c0-0.09,0.072-0.145,0.288-0.145c0.271,0,0.486-0.035,0.648-0.072c0.36-0.071,0.45-0.467,0.522-0.99
		c0.09-0.756,0.09-2.178,0.09-3.834V7.202c0-0.072-0.054-0.108-0.108-0.108h-6.878c-0.054,0-0.108,0.018-0.108,0.108v1.584
		c0,1.657,0,3.079,0.09,3.853c0.054,0.505,0.162,0.9,0.702,0.972c0.252,0.037,0.648,0.072,0.918,0.072
		c0.198,0,0.288,0.055,0.288,0.145c0,0.126-0.144,0.18-0.36,0.18c-1.17,0-2.305-0.054-2.809-0.054c-0.414,0-1.548,0.054-2.269,0.054
		c-0.234,0-0.36-0.054-0.36-0.18c0-0.09,0.072-0.145,0.288-0.145c0.27,0,0.486-0.035,0.648-0.072c0.36-0.071,0.45-0.467,0.522-0.99
		c0.09-0.756,0.09-2.178,0.09-3.834V5.618c0-2.737,0-3.241-0.036-3.817C92.144,1.188,92,0.9,91.406,0.774
		c-0.144-0.036-0.45-0.054-0.702-0.054c-0.198,0-0.306-0.036-0.306-0.162s0.126-0.162,0.378-0.162c0.972,0,2.106,0.054,2.593,0.054
		c0.432,0,1.566-0.054,2.269-0.054c0.252,0,0.378,0.036,0.378,0.162S95.907,0.72,95.691,0.72c-0.144,0-0.306,0.018-0.522,0.054
		c-0.486,0.09-0.63,0.396-0.666,1.026c-0.036,0.576-0.036,1.081-0.036,3.817v0.378c0,0.09,0.054,0.126,0.108,0.126H101.453z"/>
	<path fill="#95CBEE" d="M115.058,5.618c0-2.737,0-3.241-0.036-3.817c-0.036-0.612-0.18-0.9-0.774-1.026
		c-0.145-0.036-0.45-0.054-0.703-0.054c-0.198,0-0.306-0.036-0.306-0.162s0.126-0.162,0.396-0.162c0.954,0,2.088,0.054,2.629,0.054
		c0.432,0,1.566-0.054,2.214-0.054c0.27,0,0.396,0.036,0.396,0.162s-0.108,0.162-0.288,0.162c-0.198,0-0.306,0.018-0.522,0.054
		c-0.486,0.09-0.63,0.396-0.666,1.026c-0.036,0.576-0.036,1.081-0.036,3.817v2.521c0,2.611,0.522,3.709,1.404,4.43
		c0.81,0.666,1.639,0.737,2.25,0.737c0.792,0,1.765-0.252,2.485-0.972c0.99-0.99,1.044-2.611,1.044-4.466v-2.25
		c0-2.737,0-3.241-0.036-3.817c-0.036-0.612-0.18-0.9-0.773-1.026c-0.145-0.036-0.451-0.054-0.648-0.054
		c-0.198,0-0.307-0.036-0.307-0.162s0.126-0.162,0.379-0.162c0.918,0,2.052,0.054,2.07,0.054c0.216,0,1.35-0.054,2.053-0.054
		c0.252,0,0.377,0.036,0.377,0.162s-0.107,0.162-0.323,0.162c-0.198,0-0.306,0.018-0.522,0.054c-0.486,0.09-0.63,0.396-0.666,1.026
		c-0.036,0.576-0.036,1.081-0.036,3.817v1.926c0,1.999-0.198,4.124-1.71,5.42c-1.279,1.099-2.575,1.296-3.746,1.296
		c-0.954,0-2.683-0.054-3.997-1.242c-0.918-0.828-1.603-2.16-1.603-4.771V5.618z"/>
	<path fill="#95CBEE" d="M132.536,11.56c0.036,1.404,0.271,1.872,0.631,1.999c0.306,0.107,0.648,0.125,0.936,0.125
		c0.198,0,0.307,0.037,0.307,0.145c0,0.145-0.162,0.18-0.414,0.18c-1.171,0-1.891-0.054-2.232-0.054
		c-0.162,0-1.009,0.054-1.945,0.054c-0.234,0-0.396-0.018-0.396-0.18c0-0.107,0.108-0.145,0.289-0.145
		c0.233,0,0.558-0.018,0.81-0.09c0.468-0.144,0.54-0.666,0.559-2.232l0.162-10.659c0-0.36,0.054-0.612,0.233-0.612
		c0.198,0,0.36,0.234,0.666,0.558c0.217,0.234,2.953,3.169,5.582,5.78c1.225,1.225,3.655,3.817,3.961,4.105h0.09l-0.18-8.084
		c-0.018-1.098-0.18-1.44-0.611-1.621c-0.271-0.108-0.703-0.108-0.955-0.108c-0.216,0-0.288-0.054-0.288-0.162
		c0-0.144,0.198-0.162,0.468-0.162c0.938,0,1.801,0.054,2.18,0.054c0.197,0,0.882-0.054,1.764-0.054
		c0.234,0,0.414,0.018,0.414,0.162c0,0.108-0.107,0.162-0.324,0.162c-0.18,0-0.323,0-0.539,0.054
		c-0.505,0.144-0.648,0.522-0.666,1.53l-0.199,11.361c0,0.396-0.071,0.559-0.233,0.559c-0.198,0-0.414-0.198-0.612-0.396
		c-1.135-1.08-3.439-3.439-5.312-5.293c-1.963-1.945-3.962-4.195-4.285-4.538h-0.054L132.536,11.56z"/>
	<path fill="#95CBEE" d="M148.933,5.618c0-2.737,0-3.241-0.036-3.817c-0.035-0.612-0.216-0.918-0.611-1.008
		c-0.199-0.054-0.433-0.072-0.648-0.072c-0.18,0-0.288-0.036-0.288-0.18c0-0.108,0.144-0.144,0.432-0.144
		c0.685,0,1.819,0.054,2.341,0.054c0.45,0,1.513-0.054,2.197-0.054c0.233,0,0.377,0.036,0.377,0.144c0,0.144-0.107,0.18-0.287,0.18
		s-0.324,0.018-0.541,0.054c-0.485,0.09-0.63,0.396-0.666,1.026c-0.035,0.576-0.035,1.081-0.035,3.817v3.169
		c0,1.747,0,3.168,0.071,3.943c0.054,0.486,0.181,0.811,0.721,0.882c0.252,0.037,0.647,0.072,0.918,0.072
		c0.198,0,0.288,0.055,0.288,0.145c0,0.126-0.145,0.18-0.342,0.18c-1.188,0-2.322-0.054-2.809-0.054
		c-0.414,0-1.549,0.054-2.27,0.054c-0.234,0-0.359-0.054-0.359-0.18c0-0.09,0.072-0.145,0.287-0.145
		c0.271,0,0.486-0.035,0.648-0.072c0.36-0.071,0.469-0.377,0.522-0.899c0.09-0.757,0.09-2.179,0.09-3.925V5.618z"/>
	<path fill="#95CBEE" d="M155.772,2.161c-0.414-0.99-0.72-1.188-1.368-1.369c-0.271-0.072-0.558-0.072-0.702-0.072
		c-0.162,0-0.216-0.054-0.216-0.162c0-0.144,0.198-0.162,0.468-0.162c0.955,0,1.98,0.054,2.611,0.054
		c0.449,0,1.314-0.054,2.215-0.054c0.216,0,0.414,0.036,0.414,0.162s-0.108,0.162-0.271,0.162c-0.288,0-0.558,0.018-0.702,0.126
		c-0.126,0.09-0.18,0.216-0.18,0.378c0,0.234,0.162,0.738,0.414,1.387l3.097,8.174h0.071c0.775-1.98,3.115-7.778,3.548-8.967
		c0.09-0.234,0.162-0.504,0.162-0.666c0-0.144-0.072-0.288-0.234-0.342c-0.216-0.072-0.485-0.09-0.72-0.09
		c-0.162,0-0.307-0.018-0.307-0.144c0-0.144,0.162-0.18,0.504-0.18c0.9,0,1.656,0.054,1.891,0.054c0.307,0,1.152-0.054,1.693-0.054
		c0.233,0,0.377,0.036,0.377,0.162S168.43,0.72,168.25,0.72s-0.559,0-0.883,0.216c-0.234,0.162-0.504,0.468-0.99,1.621
		c-0.702,1.692-1.188,2.665-2.16,4.879c-1.152,2.628-1.999,4.591-2.395,5.492c-0.469,1.045-0.576,1.332-0.828,1.332
		c-0.234,0-0.343-0.252-0.685-1.098L155.772,2.161z"/>
	<path fill="#95CBEE" d="M170.821,5.618c0-2.737,0-3.241-0.035-3.817c-0.037-0.612-0.181-0.9-0.775-1.026
		c-0.144-0.036-0.449-0.054-0.701-0.054c-0.199,0-0.307-0.036-0.307-0.162s0.126-0.162,0.396-0.162c0.954,0,2.088,0.054,2.592,0.054
		c0.576,0,4.16,0,4.502-0.018c0.342-0.036,0.631-0.072,0.774-0.108c0.09-0.018,0.198-0.072,0.288-0.072s0.107,0.072,0.107,0.162
		c0,0.126-0.09,0.342-0.144,1.17c-0.019,0.18-0.054,0.972-0.09,1.188c-0.019,0.09-0.054,0.198-0.181,0.198
		c-0.125,0-0.162-0.09-0.162-0.252c0-0.126-0.018-0.432-0.107-0.648c-0.126-0.324-0.307-0.54-1.207-0.648
		c-0.306-0.036-2.196-0.072-2.557-0.072c-0.09,0-0.125,0.054-0.125,0.18v4.556c0,0.126,0.018,0.198,0.125,0.198
		c0.396,0,2.467,0,2.881-0.036c0.433-0.036,0.703-0.09,0.865-0.271c0.125-0.144,0.197-0.234,0.287-0.234
		c0.072,0,0.127,0.036,0.127,0.144s-0.09,0.396-0.145,1.314c-0.036,0.36-0.072,1.08-0.072,1.206c0,0.145,0,0.342-0.162,0.342
		c-0.126,0-0.162-0.072-0.162-0.162c-0.018-0.18-0.018-0.414-0.072-0.648c-0.09-0.36-0.342-0.63-1.008-0.702
		c-0.342-0.036-2.125-0.054-2.557-0.054c-0.09,0-0.107,0.072-0.107,0.18v1.422c0,0.612-0.019,2.268,0,2.791
		c0.035,1.243,0.323,1.513,2.16,1.513c0.468,0,1.225,0,1.692-0.216s0.685-0.595,0.81-1.333c0.037-0.197,0.072-0.27,0.199-0.27
		c0.144,0,0.144,0.145,0.144,0.324c0,0.414-0.144,1.639-0.233,1.998c-0.127,0.469-0.289,0.469-0.973,0.469
		c-2.719,0-3.926-0.108-4.988-0.108c-0.414,0-1.548,0.054-2.268,0.054c-0.234,0-0.361-0.054-0.361-0.18
		c0-0.09,0.072-0.145,0.289-0.145c0.27,0,0.486-0.035,0.648-0.072c0.359-0.071,0.449-0.467,0.521-0.99
		c0.09-0.756,0.09-2.178,0.09-3.834V5.618z"/>
	<path fill="#95CBEE" d="M182.557,5.618c0-2.737,0-3.241-0.036-3.817c-0.036-0.612-0.181-0.9-0.774-1.026
		c-0.145-0.036-0.45-0.054-0.702-0.054c-0.198,0-0.306-0.036-0.306-0.162s0.125-0.162,0.396-0.162c0.954,0,2.089,0.054,2.467,0.054
		c0.612,0,1.98-0.054,2.539-0.054c1.134,0,2.341,0.108,3.313,0.774c0.504,0.342,1.224,1.26,1.224,2.467
		c0,1.332-0.558,2.557-2.376,4.033c1.602,2.017,2.844,3.619,3.906,4.736c1.009,1.044,1.746,1.17,2.017,1.224
		c0.198,0.036,0.36,0.054,0.505,0.054c0.144,0,0.216,0.055,0.216,0.145c0,0.145-0.126,0.18-0.343,0.18h-1.71
		c-1.009,0-1.458-0.09-1.927-0.342c-0.774-0.414-1.459-1.26-2.467-2.646c-0.721-0.99-1.549-2.215-1.782-2.485
		c-0.091-0.108-0.198-0.126-0.324-0.126l-1.566-0.036c-0.091,0-0.144,0.036-0.144,0.144v0.252c0,1.675,0,3.097,0.09,3.853
		c0.054,0.523,0.162,0.919,0.701,0.99c0.271,0.037,0.667,0.072,0.883,0.072c0.145,0,0.217,0.055,0.217,0.145
		c0,0.126-0.127,0.18-0.361,0.18c-1.044,0-2.376-0.054-2.646-0.054c-0.342,0-1.477,0.054-2.196,0.054c-0.234,0-0.36-0.054-0.36-0.18
		c0-0.09,0.072-0.145,0.288-0.145c0.271,0,0.486-0.035,0.648-0.072c0.36-0.071,0.45-0.467,0.522-0.99
		c0.09-0.756,0.09-2.178,0.09-3.834V5.618z M184.682,7.04c0,0.198,0.035,0.27,0.162,0.324c0.377,0.126,0.918,0.18,1.367,0.18
		c0.721,0,0.955-0.072,1.279-0.306c0.54-0.396,1.062-1.225,1.062-2.701c0-2.557-1.693-3.295-2.756-3.295
		c-0.449,0-0.773,0.018-0.953,0.072c-0.127,0.036-0.162,0.108-0.162,0.252V7.04z"/>
	<path fill="#95CBEE" d="M195.249,13.792c-0.289-0.126-0.342-0.216-0.342-0.612c0-0.99,0.071-2.07,0.09-2.358
		c0.018-0.271,0.072-0.468,0.216-0.468c0.162,0,0.18,0.162,0.18,0.306c0,0.233,0.072,0.612,0.162,0.918
		c0.396,1.333,1.458,1.819,2.575,1.819c1.62,0,2.412-1.099,2.412-2.053c0-0.883-0.27-1.729-1.764-2.881l-0.828-0.648
		c-1.981-1.549-2.666-2.809-2.666-4.268c0-1.98,1.657-3.403,4.16-3.403c1.17,0,1.926,0.18,2.395,0.306
		c0.162,0.036,0.252,0.09,0.252,0.216c0,0.234-0.072,0.756-0.072,2.161c0,0.396-0.054,0.541-0.197,0.541
		c-0.127,0-0.181-0.108-0.181-0.324c0-0.162-0.09-0.72-0.468-1.188c-0.271-0.342-0.793-0.882-1.963-0.882
		c-1.332,0-2.143,0.774-2.143,1.854c0,0.829,0.414,1.458,1.908,2.593l0.504,0.378c2.161,1.674,2.953,2.881,2.953,4.591
		c0,1.045-0.396,2.287-1.692,3.133c-0.9,0.576-1.908,0.738-2.862,0.738C196.833,14.26,196.022,14.135,195.249,13.792z"/>
	<path fill="#95CBEE" d="M207.074,5.618c0-2.737,0-3.241-0.036-3.817c-0.035-0.612-0.216-0.918-0.611-1.008
		c-0.199-0.054-0.433-0.072-0.648-0.072c-0.18,0-0.288-0.036-0.288-0.18c0-0.108,0.144-0.144,0.432-0.144
		c0.685,0,1.819,0.054,2.341,0.054c0.45,0,1.513-0.054,2.197-0.054c0.233,0,0.377,0.036,0.377,0.144c0,0.144-0.107,0.18-0.287,0.18
		s-0.324,0.018-0.541,0.054c-0.485,0.09-0.63,0.396-0.666,1.026c-0.035,0.576-0.035,1.081-0.035,3.817v3.169
		c0,1.747,0,3.168,0.071,3.943c0.054,0.486,0.181,0.811,0.721,0.882c0.252,0.037,0.647,0.072,0.918,0.072
		c0.198,0,0.288,0.055,0.288,0.145c0,0.126-0.145,0.18-0.342,0.18c-1.188,0-2.322-0.054-2.809-0.054
		c-0.414,0-1.549,0.054-2.27,0.054c-0.234,0-0.359-0.054-0.359-0.18c0-0.09,0.072-0.145,0.287-0.145
		c0.271,0,0.486-0.035,0.648-0.072c0.36-0.071,0.469-0.377,0.522-0.899c0.09-0.757,0.09-2.179,0.09-3.925V5.618z"/>
	<path fill="#95CBEE" d="M217.965,1.404l-2.684,0.072c-1.044,0.036-1.477,0.126-1.746,0.522c-0.18,0.27-0.271,0.486-0.307,0.63
		c-0.035,0.144-0.09,0.216-0.197,0.216c-0.127,0-0.162-0.09-0.162-0.288c0-0.288,0.342-1.927,0.378-2.07
		c0.054-0.234,0.108-0.342,0.216-0.342c0.145,0,0.324,0.18,0.774,0.216c0.522,0.054,1.206,0.09,1.8,0.09h7.131
		c1.152,0,1.584-0.18,1.729-0.18c0.126,0,0.145,0.108,0.145,0.378c0,0.378-0.055,1.621-0.055,2.089
		c-0.018,0.18-0.054,0.288-0.162,0.288c-0.145,0-0.18-0.09-0.197-0.36l-0.019-0.198c-0.036-0.468-0.522-0.973-2.125-1.008
		l-2.269-0.054v7.382c0,1.657,0,3.079,0.09,3.853c0.055,0.505,0.162,0.9,0.703,0.972c0.252,0.037,0.647,0.072,0.918,0.072
		c0.197,0,0.287,0.055,0.287,0.145c0,0.126-0.144,0.18-0.342,0.18c-1.188,0-2.322-0.054-2.826-0.054
		c-0.414,0-1.549,0.054-2.27,0.054c-0.233,0-0.359-0.054-0.359-0.18c0-0.09,0.072-0.145,0.288-0.145
		c0.271,0,0.485-0.035,0.647-0.072c0.361-0.071,0.469-0.467,0.522-0.99c0.091-0.756,0.091-2.178,0.091-3.834V1.404z"/>
	<path fill="#95CBEE" d="M230.814,9.345c0-0.972-0.18-1.368-0.414-1.891c-0.126-0.288-2.538-4.249-3.169-5.186
		c-0.45-0.666-0.9-1.116-1.242-1.314c-0.234-0.126-0.54-0.234-0.756-0.234c-0.145,0-0.271-0.036-0.271-0.162
		c0-0.108,0.126-0.162,0.343-0.162c0.323,0,1.674,0.054,2.268,0.054c0.379,0,1.117-0.054,1.928-0.054c0.18,0,0.27,0.054,0.27,0.162
		s-0.126,0.126-0.396,0.198c-0.162,0.036-0.252,0.18-0.252,0.324s0.09,0.36,0.217,0.612c0.252,0.54,2.772,4.879,3.061,5.384
		c0.18-0.432,2.448-4.394,2.701-4.952c0.18-0.396,0.252-0.702,0.252-0.936c0-0.18-0.072-0.378-0.379-0.45
		c-0.162-0.036-0.324-0.072-0.324-0.18c0-0.126,0.09-0.162,0.307-0.162c0.594,0,1.17,0.054,1.692,0.054
		c0.396,0,1.585-0.054,1.927-0.054c0.197,0,0.324,0.036,0.324,0.144c0,0.126-0.145,0.18-0.342,0.18
		c-0.181,0-0.523,0.072-0.793,0.216c-0.378,0.18-0.576,0.396-0.973,0.882c-0.594,0.72-3.114,4.952-3.438,5.726
		c-0.271,0.648-0.271,1.207-0.271,1.801v1.477c0,0.288,0,1.044,0.055,1.8c0.035,0.523,0.197,0.919,0.738,0.99
		c0.252,0.037,0.648,0.072,0.9,0.072c0.197,0,0.287,0.055,0.287,0.145c0,0.126-0.144,0.18-0.377,0.18
		c-1.135,0-2.27-0.054-2.756-0.054c-0.449,0-1.584,0.054-2.25,0.054c-0.252,0-0.396-0.035-0.396-0.18c0-0.09,0.09-0.145,0.288-0.145
		c0.252,0,0.468-0.035,0.63-0.072c0.36-0.071,0.522-0.467,0.559-0.99c0.054-0.756,0.054-1.512,0.054-1.8V9.345z"/>
</g>
</svg>
