<?xml version="1.0" encoding="utf-8"?>
<!-- Generator: Adobe Illustrator 15.0.2, SVG Export Plug-In . SVG Version: 6.00 Build 0)  -->
<!DOCTYPE svg PUBLIC "-//W3C//DTD SVG 1.1//EN" "http://www.w3.org/Graphics/SVG/1.1/DTD/svg11.dtd">
<svg version="1.1" id="Layer_1" xmlns="http://www.w3.org/2000/svg" xmlns:xlink="http://www.w3.org/1999/xlink" x="0px" y="0px"
	 width="226.626px" height="29.959px" viewBox="0 0 226.626 29.959" enable-background="new 0 0 226.626 29.959"
	 xml:space="preserve">
<g>
	<g enable-background="new    ">
		<path fill="#D2D2D2" d="M33.843,17.107c0,1.39,0,2.525,0.068,3.119c0.051,0.423,0.119,0.694,0.577,0.763
			c0.204,0.034,0.542,0.068,0.678,0.068c0.103,0,0.119,0.066,0.119,0.117c0,0.068-0.068,0.119-0.238,0.119
			c-0.813,0-1.762-0.051-1.847-0.051c-0.068,0-1.102,0.051-1.542,0.051c-0.169,0-0.237-0.033-0.237-0.119
			c0-0.051,0.035-0.101,0.119-0.101c0.136,0,0.304-0.034,0.44-0.067c0.305-0.068,0.39-0.357,0.441-0.78
			c0.067-0.594,0.067-1.729,0.067-3.119v-6.051l-2.153,0.033c-0.932,0.017-1.289,0.119-1.509,0.458
			c-0.169,0.254-0.187,0.355-0.237,0.458c-0.033,0.119-0.085,0.136-0.152,0.136c-0.034,0-0.102-0.034-0.102-0.119
			c0-0.152,0.305-1.441,0.322-1.56c0.034-0.084,0.102-0.271,0.152-0.271c0.102,0,0.254,0.119,0.662,0.17
			c0.423,0.05,1,0.067,1.169,0.067h5.627c0.493,0,0.831-0.033,1.068-0.067c0.221-0.034,0.356-0.069,0.423-0.069
			c0.068,0,0.068,0.086,0.068,0.17c0,0.441-0.051,1.475-0.051,1.645c0,0.118-0.067,0.187-0.135,0.187
			c-0.068,0-0.102-0.051-0.118-0.254l-0.017-0.152c-0.052-0.441-0.374-0.764-1.797-0.798l-1.865-0.033V17.107z"/>
		<path fill="#D2D2D2" d="M49.52,17.107c0,1.39,0.017,2.525,0.085,3.119c0.051,0.423,0.085,0.694,0.542,0.763
			c0.204,0.034,0.543,0.068,0.661,0.068c0.102,0,0.136,0.066,0.136,0.117c0,0.068-0.084,0.119-0.254,0.119
			c-0.814,0-1.763-0.051-1.847-0.051c-0.068,0-1.035,0.051-1.475,0.051c-0.17,0-0.237-0.033-0.237-0.119
			c0-0.051,0.033-0.117,0.118-0.117c0.136,0,0.305-0.034,0.44-0.068c0.305-0.068,0.355-0.356,0.406-0.779
			c0.068-0.594,0.068-1.679,0.068-3.068V15.7c0-0.067-0.034-0.084-0.085-0.084h-6.22c-0.052,0-0.084,0.017-0.084,0.084v1.441
			c0,1.39,0,2.491,0.067,3.085c0.051,0.423,0.101,0.694,0.543,0.763c0.22,0.034,0.542,0.068,0.677,0.068
			c0.085,0,0.12,0.066,0.12,0.117c0,0.068-0.068,0.119-0.238,0.119c-0.831,0-1.78-0.051-1.847-0.051
			c-0.086,0-1.034,0.051-1.493,0.051c-0.153,0-0.237-0.033-0.237-0.119c0-0.051,0.034-0.117,0.118-0.117
			c0.136,0,0.323-0.034,0.458-0.068c0.288-0.068,0.322-0.34,0.391-0.763c0.084-0.594,0.084-1.729,0.084-3.119v-2.542
			c0-2.238,0-2.645-0.034-3.103c-0.034-0.492-0.118-0.729-0.611-0.797c-0.118-0.016-0.372-0.033-0.507-0.033
			c-0.051,0-0.119-0.068-0.119-0.119c0-0.085,0.068-0.118,0.238-0.118c0.678,0,1.626,0.033,1.712,0.033
			c0.067,0,1.016-0.033,1.474-0.033c0.169,0,0.237,0.033,0.237,0.118c0,0.051-0.068,0.119-0.119,0.119c-0.102,0-0.203,0-0.373,0.033
			c-0.407,0.085-0.492,0.289-0.525,0.797c-0.017,0.458-0.017,0.899-0.017,3.136v0.305c0,0.085,0.033,0.085,0.084,0.085h6.22
			c0.051,0,0.085,0,0.085-0.085v-0.305c0-2.237-0.017-2.678-0.034-3.136c-0.034-0.492-0.101-0.729-0.593-0.797
			c-0.119-0.016-0.374-0.033-0.509-0.033c-0.068,0-0.119-0.068-0.119-0.119c0-0.085,0.068-0.118,0.237-0.118
			c0.662,0,1.628,0.033,1.696,0.033c0.084,0,1.033-0.033,1.474-0.033c0.17,0,0.254,0.033,0.254,0.118
			c0,0.051-0.067,0.119-0.136,0.119c-0.101,0-0.185,0-0.373,0.033c-0.39,0.085-0.474,0.289-0.508,0.797
			c-0.035,0.458-0.035,0.865-0.035,3.103V17.107z"/>
		<path fill="#D2D2D2" d="M53.925,14.565c0-2.238,0-2.645-0.034-3.103c-0.034-0.492-0.119-0.729-0.61-0.797
			c-0.118-0.016-0.374-0.033-0.509-0.033c-0.051,0-0.118-0.068-0.118-0.119c0-0.085,0.067-0.118,0.236-0.118
			c0.679,0,1.645,0.033,1.73,0.033c0.102,0,3.221,0.017,3.56,0c0.289-0.017,0.56-0.067,0.678-0.084
			c0.068-0.017,0.135-0.068,0.204-0.068c0.05,0,0.067,0.068,0.067,0.136c0,0.102-0.085,0.271-0.119,0.678
			c-0.018,0.136-0.051,0.781-0.084,0.95c-0.018,0.068-0.068,0.152-0.136,0.152c-0.086,0-0.119-0.067-0.119-0.186
			c0-0.102-0.016-0.339-0.085-0.509c-0.101-0.237-0.253-0.339-1.067-0.44c-0.254-0.034-1.983-0.051-2.152-0.051
			c-0.068,0-0.085,0.051-0.085,0.152v3.916c0,0.102,0,0.153,0.085,0.153c0.186,0,2.152,0,2.492-0.034
			c0.355-0.034,0.576-0.051,0.728-0.204c0.102-0.102,0.17-0.186,0.221-0.186c0.05,0,0.084,0.033,0.084,0.118
			s-0.084,0.322-0.118,0.797c-0.034,0.287-0.069,0.831-0.069,0.932c0,0.119-0.033,0.271-0.134,0.271
			c-0.068,0-0.102-0.051-0.102-0.136c0-0.136,0-0.288-0.068-0.475c-0.05-0.203-0.187-0.372-0.763-0.44
			c-0.406-0.051-2-0.068-2.253-0.068c-0.085,0-0.102,0.051-0.102,0.102v1.204c0,0.491-0.017,2.17,0,2.458
			c0.034,0.967,0.304,1.152,1.78,1.152c0.389,0,1.102,0,1.492-0.152c0.391-0.169,0.593-0.424,0.678-1
			c0.034-0.17,0.067-0.221,0.153-0.221c0.084,0,0.102,0.119,0.102,0.221s-0.119,1.084-0.203,1.39
			c-0.103,0.372-0.254,0.372-0.831,0.372c-1.119,0-1.983-0.033-2.594-0.05c-0.626-0.034-1.016-0.034-1.236-0.034
			c-0.034,0-0.323,0-0.645,0.018c-0.288,0.017-0.627,0.033-0.864,0.033c-0.152,0-0.238-0.033-0.238-0.119
			c0-0.051,0.034-0.117,0.12-0.117c0.135,0,0.322-0.051,0.458-0.068c0.288-0.051,0.322-0.34,0.389-0.763
			c0.085-0.594,0.085-1.729,0.085-3.119V14.565z"/>
		<path fill="#D2D2D2" d="M67.753,14.565c0-2.238,0-2.645-0.034-3.103c-0.033-0.492-0.118-0.729-0.61-0.797
			c-0.119-0.016-0.372-0.033-0.507-0.033c-0.052,0-0.119-0.068-0.119-0.119c0-0.085,0.067-0.118,0.237-0.118
			c0.677,0,1.593,0.033,1.678,0.033c0.135,0,1.035-0.033,1.475-0.033c0.169,0,0.236,0.033,0.236,0.118
			c0,0.051-0.05,0.119-0.118,0.119c-0.101,0-0.187,0-0.374,0.033c-0.389,0.085-0.492,0.289-0.524,0.797
			c-0.034,0.458-0.034,0.865-0.034,3.103v0.863h0.067c0.238-0.271,2.899-2.897,3.458-3.474c0.424-0.424,0.813-0.797,0.813-1.034
			c0-0.187-0.067-0.271-0.186-0.288c-0.085-0.017-0.135-0.085-0.135-0.136c0-0.068,0.067-0.101,0.169-0.101
			c0.304,0,0.763,0.033,1.118,0.033c0.085,0,1.068-0.033,1.441-0.033c0.153,0,0.22,0.033,0.22,0.101s-0.033,0.119-0.152,0.119
			c-0.22,0-0.542,0.084-0.831,0.203c-0.61,0.271-0.898,0.594-1.559,1.221c-0.373,0.338-2.916,2.779-3.238,3.136
			c0.391,0.423,3.493,3.525,4.103,4.085c1.254,1.117,1.424,1.305,2.136,1.594c0.389,0.152,0.813,0.203,0.915,0.203
			c0.102,0,0.186,0.05,0.186,0.117c0,0.068-0.067,0.119-0.322,0.119H76.5c-0.424,0-0.695,0-1.033-0.033
			c-0.78-0.068-1.171-0.391-1.814-0.883c-0.678-0.523-3.814-3.829-4.527-4.678h-0.067v1.407c0,1.39,0,2.525,0.067,3.119
			c0.051,0.423,0.12,0.694,0.577,0.763c0.205,0.034,0.441,0.068,0.577,0.068c0.084,0,0.118,0.066,0.118,0.117
			c0,0.068-0.066,0.119-0.237,0.119c-0.728,0-1.627-0.051-1.746-0.051c-0.119,0-1.018,0.051-1.475,0.051
			c-0.153,0-0.237-0.033-0.237-0.119c0-0.051,0.034-0.117,0.118-0.117c0.135,0,0.322-0.034,0.458-0.068
			c0.288-0.068,0.323-0.34,0.39-0.763c0.085-0.594,0.085-1.729,0.085-3.119V14.565z"/>
		<path fill="#D2D2D2" d="M80.718,10.682c0.187-0.474,0.255-0.559,0.356-0.559c0.152,0,0.204,0.204,0.356,0.526
			c0.271,0.61,2.661,6.56,3.575,8.746c0.542,1.289,0.949,1.475,1.272,1.576c0.22,0.068,0.44,0.086,0.593,0.086
			c0.084,0,0.186,0.033,0.186,0.117c0,0.086-0.169,0.119-0.339,0.119c-0.22,0-1.322,0-2.356-0.033
			c-0.288-0.018-0.526-0.018-0.526-0.102c0-0.068,0.034-0.068,0.103-0.102c0.084-0.034,0.237-0.153,0.136-0.39l-1.339-3.306
			c-0.034-0.068-0.051-0.086-0.136-0.086h-3.44c-0.069,0-0.119,0.035-0.153,0.119L78.159,19.7c-0.137,0.355-0.221,0.713-0.221,0.968
			c0,0.287,0.253,0.39,0.509,0.39h0.135c0.119,0,0.153,0.05,0.153,0.117c0,0.086-0.086,0.119-0.22,0.119
			c-0.356,0-1.169-0.051-1.339-0.051c-0.153,0-0.899,0.051-1.509,0.051c-0.186,0-0.289-0.033-0.289-0.119
			c0-0.067,0.069-0.117,0.136-0.117c0.102,0,0.322-0.018,0.441-0.034c0.678-0.085,0.966-0.594,1.255-1.323L80.718,10.682z
			 M82.38,16.682c0.067,0,0.067-0.033,0.05-0.101l-1.474-3.95c-0.086-0.22-0.17-0.22-0.255,0l-1.39,3.95
			c-0.017,0.067,0,0.101,0.051,0.101H82.38z"/>
		<path fill="#D2D2D2" d="M88.513,14.565c0-2.238,0-2.645-0.034-3.103c-0.033-0.492-0.119-0.763-0.61-0.83
			c-0.118-0.017-0.373-0.034-0.509-0.034c-0.051,0-0.118-0.034-0.118-0.085c0-0.085,0.067-0.118,0.238-0.118
			c0.677,0,1.644,0.033,1.729,0.033c0.355,0,1.05-0.033,1.746-0.033c2.492,0,3.136,1.44,3.136,2.203
			c0,1.136-0.746,1.848-1.509,2.526c1.136,0.34,2.627,1.373,2.627,3c0,1.611-1.203,3.203-3.747,3.203
			c-0.27,0-0.812-0.016-1.287-0.05c-0.475-0.017-0.899-0.034-0.966-0.034c-0.035,0-0.306,0.018-0.611,0.018
			c-0.305,0.017-0.661,0.033-0.898,0.033c-0.153,0-0.237-0.033-0.237-0.119c0-0.051,0.034-0.084,0.118-0.084
			c0.136,0,0.322-0.051,0.458-0.067c0.288-0.052,0.322-0.374,0.391-0.797c0.084-0.594,0.084-1.729,0.084-3.119V14.565z
			 M89.801,14.87c0,0.102,0.034,0.136,0.102,0.153c0.084,0.016,0.355,0.067,0.915,0.067c0.831,0,1.153-0.034,1.457-0.373
			c0.323-0.356,0.578-0.847,0.578-1.543c0-1.102-0.611-2.322-2.102-2.322c-0.17,0-0.527,0.016-0.765,0.067
			c-0.134,0.035-0.186,0.068-0.186,0.153V14.87z M89.801,16.463c0,1.118,0,2.848,0.017,3.067c0.05,0.695,0.05,0.865,0.509,1.085
			c0.406,0.188,1.033,0.203,1.304,0.203c0.983,0,2.187-0.373,2.187-2.221c0-0.643-0.254-1.881-1.425-2.627
			c-0.508-0.322-0.981-0.305-1.338-0.373c-0.186-0.033-0.932-0.033-1.169-0.033c-0.051,0-0.085,0.033-0.085,0.102V16.463z"/>
		<path fill="#D2D2D2" d="M97.901,14.565c0-2.238,0-2.645-0.034-3.103c-0.035-0.492-0.117-0.763-0.61-0.83
			c-0.119-0.017-0.372-0.034-0.507-0.034c-0.051,0-0.121-0.034-0.121-0.085c0-0.085,0.069-0.118,0.238-0.118
			c0.678,0,1.644,0.033,1.729,0.033c0.355,0,1.051-0.033,1.746-0.033c2.489,0,3.135,1.44,3.135,2.203
			c0,1.136-0.746,1.848-1.509,2.526c1.135,0.34,2.627,1.373,2.627,3c0,1.611-1.204,3.205-3.747,3.205
			c-0.27,0-0.814-0.018-1.287-0.052c-0.476-0.017-0.899-0.034-0.966-0.034c-0.034,0-0.306,0.018-0.61,0.018
			c-0.308,0.017-0.662,0.033-0.899,0.033c-0.152,0-0.237-0.033-0.237-0.119c0-0.051,0.035-0.084,0.119-0.084
			c0.135,0,0.322-0.051,0.458-0.067c0.288-0.052,0.323-0.374,0.39-0.797c0.084-0.594,0.084-1.729,0.084-3.119V14.565z M99.189,14.87
			c0,0.102,0.034,0.136,0.102,0.153c0.085,0.016,0.357,0.067,0.915,0.067c0.831,0,1.153-0.034,1.457-0.373
			c0.322-0.356,0.578-0.847,0.578-1.543c0-1.102-0.61-2.322-2.102-2.322c-0.17,0-0.526,0.016-0.763,0.067
			c-0.136,0.035-0.188,0.068-0.188,0.153V14.87z M99.189,16.463c0,1.118,0,2.848,0.017,3.067c0.05,0.695,0.05,0.865,0.509,1.085
			c0.406,0.188,1.033,0.203,1.305,0.203c0.984,0,2.188-0.373,2.188-2.221c0-0.643-0.255-1.881-1.425-2.627
			c-0.507-0.322-0.983-0.305-1.338-0.373c-0.187-0.033-0.933-0.033-1.171-0.033c-0.05,0-0.084,0.033-0.084,0.102V16.463z"/>
		<path fill="#D2D2D2" d="M109.985,10.682c0.188-0.474,0.254-0.559,0.355-0.559c0.153,0,0.204,0.204,0.356,0.526
			c0.271,0.61,2.661,6.56,3.577,8.746c0.543,1.289,0.949,1.475,1.271,1.576c0.22,0.068,0.442,0.086,0.594,0.086
			c0.084,0,0.186,0.033,0.186,0.117c0,0.086-0.17,0.119-0.337,0.119c-0.223,0-1.323,0-2.357-0.033
			c-0.289-0.018-0.527-0.018-0.527-0.102c0-0.068,0.034-0.068,0.102-0.102c0.085-0.034,0.237-0.153,0.136-0.39l-1.339-3.306
			c-0.035-0.068-0.051-0.086-0.135-0.086h-3.441c-0.068,0-0.118,0.035-0.152,0.119l-0.848,2.305
			c-0.136,0.355-0.222,0.713-0.222,0.968c0,0.288,0.255,0.39,0.508,0.39h0.137c0.119,0,0.153,0.05,0.153,0.117
			c0,0.086-0.085,0.119-0.221,0.119c-0.356,0-1.17-0.051-1.34-0.051c-0.152,0-0.899,0.051-1.509,0.051
			c-0.186,0-0.288-0.033-0.288-0.119c0-0.067,0.068-0.117,0.135-0.117c0.101,0,0.322-0.018,0.44-0.034
			c0.679-0.085,0.967-0.594,1.254-1.323L109.985,10.682z M111.647,16.682c0.067,0,0.067-0.033,0.05-0.101l-1.475-3.95
			c-0.083-0.22-0.169-0.22-0.254,0l-1.389,3.95c-0.019,0.067,0,0.101,0.05,0.101H111.647z"/>
		<path fill="#D2D2D2" d="M119.135,17.141c0,2.119,0.035,2.984,0.305,3.236c0.239,0.238,0.814,0.34,1.984,0.34
			c0.779,0,1.441-0.018,1.799-0.439c0.186-0.223,0.304-0.526,0.354-0.814c0.018-0.103,0.069-0.187,0.153-0.187
			c0.068,0,0.102,0.067,0.102,0.22s-0.102,1.018-0.22,1.441c-0.104,0.339-0.154,0.391-0.949,0.391c-1.067,0-1.898-0.018-2.594-0.052
			c-0.68-0.017-1.187-0.034-1.628-0.034c-0.067,0-0.321,0-0.61,0.018c-0.305,0.017-0.627,0.033-0.863,0.033
			c-0.152,0-0.238-0.033-0.238-0.119c0-0.051,0.035-0.117,0.119-0.117c0.137,0,0.323-0.034,0.457-0.068
			c0.289-0.068,0.322-0.34,0.39-0.763c0.085-0.594,0.085-1.729,0.085-3.119v-2.542c0-2.238,0-2.645-0.033-3.103
			c-0.033-0.492-0.119-0.729-0.61-0.797c-0.118-0.016-0.372-0.033-0.507-0.033c-0.053,0-0.119-0.068-0.119-0.119
			c0-0.085,0.066-0.118,0.236-0.118c0.678,0,1.61,0.033,1.694,0.033c0.067,0,1.187-0.033,1.646-0.033
			c0.152,0,0.235,0.033,0.235,0.118c0,0.051-0.067,0.102-0.118,0.102c-0.102,0-0.32,0.017-0.491,0.034
			c-0.44,0.084-0.524,0.305-0.559,0.813c-0.019,0.458-0.019,0.865-0.019,3.103V17.141z"/>
		<path fill="#D2D2D2" d="M128.762,10.682c0.186-0.474,0.255-0.559,0.355-0.559c0.152,0,0.205,0.204,0.356,0.526
			c0.272,0.61,2.661,6.56,3.575,8.746c0.543,1.289,0.951,1.475,1.273,1.576c0.221,0.068,0.439,0.086,0.592,0.086
			c0.086,0,0.188,0.033,0.188,0.117c0,0.086-0.17,0.119-0.34,0.119c-0.219,0-1.323,0-2.356-0.033
			c-0.287-0.018-0.524-0.018-0.524-0.102c0-0.068,0.033-0.068,0.102-0.102c0.084-0.034,0.236-0.153,0.136-0.39l-1.34-3.306
			c-0.034-0.068-0.052-0.086-0.134-0.086h-3.443c-0.066,0-0.119,0.035-0.152,0.119l-0.848,2.305
			c-0.134,0.355-0.219,0.713-0.219,0.968c0,0.288,0.252,0.39,0.508,0.39h0.135c0.119,0,0.152,0.05,0.152,0.117
			c0,0.086-0.082,0.119-0.219,0.119c-0.357,0-1.171-0.051-1.34-0.051c-0.152,0-0.898,0.051-1.508,0.051
			c-0.188,0-0.289-0.033-0.289-0.119c0-0.067,0.067-0.117,0.136-0.117c0.102,0,0.321-0.018,0.44-0.034
			c0.68-0.085,0.967-0.594,1.255-1.323L128.762,10.682z M130.422,16.682c0.068,0,0.068-0.033,0.051-0.101l-1.475-3.95
			c-0.084-0.22-0.17-0.22-0.252,0l-1.393,3.95c-0.016,0.067,0,0.101,0.052,0.101H130.422z"/>
		<path fill="#D2D2D2" d="M145.658,17.107c0,1.39,0.018,2.525,0.086,3.119c0.05,0.423,0.084,0.694,0.541,0.763
			c0.205,0.034,0.543,0.068,0.662,0.068c0.101,0,0.135,0.066,0.135,0.117c0,0.068-0.084,0.119-0.254,0.119
			c-0.814,0-1.762-0.051-1.848-0.051c-0.066,0-1.033,0.051-1.475,0.051c-0.17,0-0.238-0.033-0.238-0.119
			c0-0.051,0.034-0.117,0.12-0.117c0.134,0,0.305-0.034,0.44-0.068c0.305-0.068,0.355-0.356,0.406-0.779
			c0.067-0.594,0.067-1.679,0.067-3.068V15.7c0-0.067-0.033-0.084-0.083-0.084h-6.222c-0.052,0-0.085,0.017-0.085,0.084v1.441
			c0,1.39,0,2.491,0.068,3.085c0.05,0.423,0.102,0.694,0.543,0.763c0.219,0.034,0.541,0.068,0.676,0.068
			c0.086,0,0.12,0.066,0.12,0.117c0,0.068-0.067,0.119-0.237,0.119c-0.83,0-1.78-0.051-1.849-0.051
			c-0.084,0-1.034,0.051-1.491,0.051c-0.152,0-0.238-0.033-0.238-0.119c0-0.051,0.035-0.117,0.119-0.117
			c0.136,0,0.322-0.034,0.459-0.068c0.287-0.068,0.32-0.34,0.389-0.763c0.084-0.594,0.084-1.729,0.084-3.119v-2.542
			c0-2.238,0-2.645-0.033-3.103c-0.033-0.492-0.119-0.729-0.609-0.797c-0.119-0.016-0.373-0.033-0.509-0.033
			c-0.052,0-0.12-0.068-0.12-0.119c0-0.085,0.068-0.118,0.238-0.118c0.678,0,1.628,0.033,1.712,0.033
			c0.068,0,1.019-0.033,1.476-0.033c0.168,0,0.237,0.033,0.237,0.118c0,0.051-0.069,0.119-0.118,0.119c-0.104,0-0.204,0-0.375,0.033
			c-0.406,0.085-0.49,0.289-0.523,0.797c-0.018,0.458-0.018,0.899-0.018,3.136v0.305c0,0.085,0.033,0.085,0.085,0.085h6.222
			c0.05,0,0.083,0,0.083-0.085v-0.305c0-2.237-0.016-2.678-0.033-3.136c-0.034-0.492-0.102-0.729-0.593-0.797
			c-0.117-0.016-0.374-0.033-0.51-0.033c-0.068,0-0.117-0.068-0.117-0.119c0-0.085,0.067-0.118,0.236-0.118
			c0.662,0,1.629,0.033,1.695,0.033c0.086,0,1.033-0.033,1.475-0.033c0.17,0,0.254,0.033,0.254,0.118
			c0,0.051-0.066,0.119-0.134,0.119c-0.104,0-0.187,0-0.375,0.033c-0.39,0.085-0.474,0.289-0.509,0.797
			c-0.033,0.458-0.033,0.865-0.033,3.103V17.107z"/>
		<path fill="#D2D2D2" d="M155.52,19.938c-1.458-1.255-1.814-2.898-1.814-4.271c0-0.966,0.356-2.645,1.68-3.933
			c0.898-0.864,2.254-1.543,4.541-1.543c0.594,0,1.441,0.051,2.17,0.17c0.561,0.101,1.035,0.203,1.526,0.22
			c0.153,0,0.187,0.068,0.187,0.152c0,0.119-0.033,0.289-0.067,0.814c-0.02,0.475-0.02,1.271-0.034,1.475
			c-0.018,0.22-0.085,0.305-0.17,0.305c-0.102,0-0.119-0.101-0.119-0.305c0-0.56-0.238-1.135-0.625-1.44
			c-0.527-0.441-1.611-0.797-2.935-0.797c-1.914,0-2.831,0.508-3.356,0.999c-1.102,1.018-1.34,2.307-1.34,3.764
			c0,2.764,2.188,5.221,5.375,5.221c1.119,0,1.865-0.084,2.457-0.678c0.322-0.322,0.527-0.933,0.576-1.204
			c0.035-0.151,0.052-0.203,0.151-0.203c0.07,0,0.138,0.103,0.138,0.203c0,0.103-0.205,1.356-0.355,1.849
			c-0.086,0.271-0.119,0.322-0.373,0.424c-0.61,0.236-1.73,0.322-2.697,0.322C158.197,21.481,156.688,20.956,155.52,19.938z"/>
		<path fill="#D2D2D2" d="M166.891,14.565c0-2.238,0-2.645-0.033-3.103c-0.035-0.492-0.119-0.729-0.61-0.797
			c-0.118-0.016-0.372-0.033-0.509-0.033c-0.051,0-0.119-0.068-0.119-0.119c0-0.085,0.068-0.118,0.238-0.118
			c0.678,0,1.645,0.033,1.729,0.033c0.103,0,3.22,0.017,3.559,0c0.289-0.017,0.561-0.067,0.68-0.084
			c0.066-0.017,0.135-0.068,0.203-0.068c0.05,0,0.068,0.068,0.068,0.136c0,0.102-0.086,0.271-0.119,0.678
			c-0.018,0.136-0.052,0.781-0.086,0.95c-0.016,0.068-0.066,0.152-0.134,0.152c-0.085,0-0.119-0.067-0.119-0.186
			c0-0.102-0.019-0.339-0.085-0.509c-0.102-0.237-0.254-0.339-1.067-0.44c-0.255-0.034-1.983-0.051-2.153-0.051
			c-0.067,0-0.086,0.051-0.086,0.152v3.916c0,0.102,0,0.153,0.086,0.153c0.186,0,2.153,0,2.492-0.034
			c0.356-0.034,0.576-0.051,0.729-0.204c0.102-0.102,0.17-0.186,0.22-0.186c0.052,0,0.085,0.033,0.085,0.118
			s-0.085,0.322-0.119,0.797c-0.033,0.287-0.066,0.831-0.066,0.932c0,0.119-0.034,0.271-0.138,0.271
			c-0.067,0-0.101-0.051-0.101-0.136c0-0.136,0-0.288-0.068-0.475c-0.05-0.203-0.185-0.372-0.763-0.44
			c-0.406-0.051-2.001-0.068-2.253-0.068c-0.085,0-0.104,0.051-0.104,0.102v1.204c0,0.491-0.016,2.17,0,2.458
			c0.034,0.967,0.306,1.152,1.78,1.152c0.391,0,1.103,0,1.493-0.152c0.39-0.169,0.594-0.424,0.677-1
			c0.034-0.17,0.069-0.221,0.151-0.221c0.086,0,0.104,0.119,0.104,0.221s-0.119,1.084-0.203,1.391
			c-0.102,0.373-0.254,0.373-0.832,0.373c-1.119,0-1.982-0.035-2.593-0.052c-0.626-0.034-1.017-0.034-1.237-0.034
			c-0.034,0-0.321,0-0.644,0.018c-0.289,0.017-0.627,0.033-0.866,0.033c-0.152,0-0.236-0.033-0.236-0.119
			c0-0.051,0.035-0.117,0.118-0.117c0.136,0,0.322-0.051,0.458-0.068c0.289-0.051,0.322-0.34,0.389-0.763
			c0.086-0.594,0.086-1.729,0.086-3.119V14.565z"/>
		<path fill="#D2D2D2" d="M176.348,19.328c0.034,1.187,0.17,1.542,0.576,1.644c0.271,0.068,0.609,0.086,0.746,0.086
			c0.068,0,0.117,0.05,0.117,0.117c0,0.086-0.1,0.119-0.27,0.119c-0.848,0-1.441-0.051-1.576-0.051
			c-0.137,0-0.764,0.051-1.441,0.051c-0.152,0-0.236-0.017-0.236-0.119c0-0.067,0.051-0.117,0.117-0.117
			c0.119,0,0.391-0.018,0.61-0.086c0.373-0.102,0.423-0.491,0.423-1.797V10.92c0-0.576,0.086-0.729,0.205-0.729
			c0.17,0,0.424,0.289,0.576,0.441c0.236,0.237,2.406,2.542,4.711,4.915c1.476,1.525,3.068,3.238,3.526,3.713l-0.152-7.221
			c-0.017-0.933-0.101-1.254-0.559-1.34c-0.271-0.05-0.609-0.067-0.729-0.067c-0.103,0-0.118-0.085-0.118-0.136
			c0-0.085,0.118-0.101,0.287-0.101c0.68,0,1.39,0.033,1.561,0.033c0.17,0,0.661-0.033,1.271-0.033c0.152,0,0.271,0.016,0.271,0.101
			c0,0.051-0.066,0.136-0.168,0.136c-0.069,0-0.188,0-0.356,0.033c-0.493,0.102-0.526,0.39-0.526,1.254l-0.035,8.441
			c0,0.95-0.016,1.034-0.117,1.034c-0.152,0-0.306-0.118-1.135-0.881c-0.154-0.137-2.307-2.254-3.883-3.898
			c-1.73-1.813-3.406-3.577-3.865-4.085L176.348,19.328z"/>
		<path fill="#D2D2D2" d="M192.584,17.107c0,1.39,0,2.525,0.066,3.119c0.051,0.423,0.118,0.694,0.576,0.763
			c0.203,0.034,0.543,0.068,0.679,0.068c0.103,0,0.119,0.066,0.119,0.117c0,0.068-0.067,0.119-0.237,0.119
			c-0.814,0-1.765-0.051-1.848-0.051c-0.068,0-1.102,0.051-1.545,0.051c-0.167,0-0.234-0.033-0.234-0.119
			c0-0.051,0.033-0.101,0.119-0.101c0.135,0,0.305-0.034,0.439-0.067c0.305-0.068,0.39-0.357,0.441-0.78
			c0.067-0.594,0.067-1.729,0.067-3.119v-6.051l-2.152,0.033c-0.933,0.017-1.29,0.119-1.509,0.458
			c-0.17,0.254-0.188,0.355-0.237,0.458c-0.034,0.119-0.085,0.136-0.153,0.136c-0.035,0-0.102-0.034-0.102-0.119
			c0-0.152,0.305-1.441,0.322-1.56c0.034-0.084,0.101-0.271,0.152-0.271c0.102,0,0.254,0.119,0.662,0.17
			c0.423,0.05,0.998,0.067,1.169,0.067h5.626c0.492,0,0.832-0.033,1.068-0.067c0.221-0.034,0.357-0.069,0.426-0.069
			c0.066,0,0.066,0.086,0.066,0.17c0,0.441-0.05,1.475-0.05,1.645c0,0.118-0.069,0.187-0.137,0.187s-0.101-0.051-0.118-0.254
			l-0.017-0.152c-0.05-0.441-0.374-0.763-1.798-0.798l-1.863-0.033V17.107z"/>
		<path fill="#D2D2D2" d="M199.157,14.565c0-2.238,0-2.645-0.032-3.103c-0.034-0.492-0.121-0.729-0.611-0.797
			c-0.118-0.016-0.373-0.033-0.508-0.033c-0.052,0-0.119-0.068-0.119-0.119c0-0.085,0.067-0.118,0.236-0.118
			c0.68,0,1.678,0.033,1.764,0.033c0.152,0,1.407-0.033,1.864-0.033c0.95,0,2,0.084,2.78,0.627c0.373,0.271,1.035,0.966,1.035,1.966
			c0,1.067-0.441,2.102-1.832,3.288c1.22,1.525,2.256,2.83,3.118,3.729c0.798,0.813,1.288,0.95,1.661,1.001
			c0.289,0.051,0.441,0.051,0.525,0.051c0.086,0,0.135,0.066,0.135,0.117c0,0.086-0.082,0.119-0.354,0.119h-0.932
			c-0.85,0-1.221-0.084-1.594-0.287c-0.646-0.34-1.188-1.035-2.035-2.12c-0.627-0.779-1.287-1.712-1.61-2.102
			c-0.066-0.067-0.101-0.085-0.203-0.085l-1.899-0.033c-0.066,0-0.101,0.033-0.101,0.118v0.339c0,1.391,0,2.509,0.068,3.103
			c0.051,0.423,0.136,0.694,0.593,0.763c0.203,0.034,0.525,0.068,0.662,0.068c0.1,0,0.117,0.066,0.117,0.117
			c0,0.068-0.068,0.119-0.236,0.119c-0.814,0-1.764-0.051-1.832-0.051c-0.018,0-1.016,0.051-1.474,0.051
			c-0.153,0-0.238-0.033-0.238-0.119c0-0.051,0.034-0.117,0.118-0.117c0.137,0,0.323-0.034,0.458-0.068
			c0.29-0.068,0.321-0.34,0.39-0.763c0.085-0.594,0.085-1.729,0.085-3.119V14.565z M200.446,15.786c0,0.084,0.034,0.135,0.101,0.186
			c0.221,0.119,0.984,0.221,1.646,0.221c0.356,0,0.763-0.018,1.119-0.254c0.509-0.34,0.897-1.103,0.897-2.204
			c0-1.797-0.983-2.831-2.576-2.831c-0.439,0-0.916,0.052-1.067,0.085c-0.069,0.034-0.119,0.085-0.119,0.169V15.786z"/>
		<path fill="#D2D2D2" d="M210.037,14.565c0-2.238,0-2.645-0.034-3.103c-0.034-0.492-0.118-0.729-0.61-0.797
			c-0.117-0.016-0.372-0.033-0.508-0.033c-0.053,0-0.119-0.068-0.119-0.119c0-0.085,0.066-0.118,0.236-0.118
			c0.681,0,1.646,0.033,1.729,0.033c0.103,0,3.221,0.017,3.562,0c0.287-0.017,0.559-0.067,0.677-0.084
			c0.067-0.017,0.137-0.068,0.204-0.068c0.051,0,0.066,0.068,0.066,0.136c0,0.102-0.084,0.271-0.118,0.678
			c-0.016,0.136-0.052,0.781-0.085,0.95c-0.016,0.068-0.067,0.152-0.135,0.152c-0.085,0-0.119-0.067-0.119-0.186
			c0-0.102-0.018-0.339-0.085-0.509c-0.101-0.237-0.253-0.339-1.067-0.44c-0.256-0.034-1.983-0.051-2.154-0.051
			c-0.066,0-0.084,0.051-0.084,0.152v3.916c0,0.102,0,0.153,0.084,0.153c0.188,0,2.154,0,2.494-0.034
			c0.355-0.034,0.576-0.051,0.728-0.204c0.101-0.102,0.171-0.186,0.22-0.186c0.052,0,0.086,0.033,0.086,0.118
			s-0.086,0.322-0.119,0.797c-0.033,0.287-0.067,0.831-0.067,0.932c0,0.119-0.034,0.271-0.135,0.271
			c-0.069,0-0.103-0.051-0.103-0.136c0-0.136,0-0.288-0.068-0.475c-0.051-0.203-0.186-0.372-0.762-0.44
			c-0.407-0.051-2.002-0.068-2.254-0.068c-0.086,0-0.104,0.051-0.104,0.102v1.204c0,0.491-0.016,2.17,0,2.458
			c0.035,0.967,0.307,1.152,1.781,1.152c0.389,0,1.102,0,1.49-0.152c0.391-0.169,0.594-0.424,0.678-1
			c0.035-0.17,0.07-0.221,0.154-0.221c0.083,0,0.101,0.119,0.101,0.221s-0.118,1.084-0.203,1.391
			c-0.102,0.373-0.253,0.373-0.83,0.373c-1.12,0-1.982-0.035-2.595-0.052c-0.627-0.034-1.016-0.034-1.237-0.034
			c-0.034,0-0.321,0-0.644,0.018c-0.288,0.017-0.627,0.033-0.864,0.033c-0.153,0-0.237-0.033-0.237-0.119
			c0-0.051,0.034-0.117,0.118-0.117c0.136,0,0.321-0.051,0.458-0.068c0.289-0.051,0.322-0.34,0.391-0.763
			c0.084-0.594,0.084-1.729,0.084-3.119V14.565z"/>
		<path fill="#D2D2D2" d="M218.896,11.325c0,0.57,0,1.038,0.028,1.287c0.018,0.172,0.054,0.302,0.231,0.325
			c0.084,0.013,0.213,0.024,0.267,0.024c0.035,0,0.048,0.018,0.048,0.036c0,0.029-0.029,0.047-0.096,0.047
			c-0.324,0-0.699-0.018-0.729-0.018c-0.031,0-0.402,0.018-0.58,0.018c-0.066,0-0.096-0.012-0.096-0.047
			c0-0.018,0.013-0.036,0.049-0.036c0.053,0,0.123-0.012,0.176-0.024c0.12-0.023,0.15-0.153,0.173-0.325
			c0.03-0.249,0.03-0.717,0.03-1.287V8.818l-0.878,0.011c-0.366,0.006-0.511,0.048-0.604,0.19c-0.065,0.101-0.084,0.142-0.102,0.183
			c-0.018,0.047-0.035,0.06-0.058,0.06c-0.019,0-0.03-0.018-0.03-0.053c0-0.06,0.119-0.569,0.13-0.617
			c0.012-0.036,0.035-0.113,0.06-0.113c0.041,0,0.102,0.06,0.262,0.071c0.172,0.018,0.396,0.03,0.467,0.03h2.224
			c0.189,0,0.325-0.012,0.419-0.03c0.092-0.012,0.145-0.03,0.167-0.03c0.03,0,0.03,0.036,0.03,0.072
			c0,0.178-0.018,0.586-0.018,0.651c0,0.054-0.018,0.078-0.043,0.078c-0.028,0-0.041-0.018-0.045-0.102l-0.008-0.065
			c-0.018-0.177-0.16-0.313-0.729-0.326l-0.746-0.011V11.325z"/>
		<path fill="#D2D2D2" d="M225.875,12.28c0.022,0.212,0.063,0.544,0.318,0.628c0.172,0.053,0.327,0.053,0.388,0.053
			c0.027,0,0.045,0.005,0.045,0.03c0,0.035-0.053,0.053-0.124,0.053c-0.129,0-0.771-0.018-0.989-0.036
			c-0.136-0.011-0.166-0.029-0.166-0.059c0-0.024,0.013-0.036,0.041-0.042c0.03-0.006,0.037-0.106,0.024-0.214l-0.285-3.058h-0.018
			l-1.452,3.083c-0.124,0.26-0.142,0.313-0.194,0.313c-0.043,0-0.071-0.059-0.185-0.272c-0.155-0.291-0.663-1.316-0.693-1.375
			c-0.054-0.106-0.718-1.529-0.782-1.688h-0.024l-0.237,2.75c-0.005,0.095-0.005,0.202-0.005,0.303c0,0.088,0.065,0.166,0.153,0.184
			c0.102,0.023,0.19,0.03,0.225,0.03c0.023,0,0.049,0.012,0.049,0.03c0,0.041-0.036,0.053-0.106,0.053
			c-0.22,0-0.505-0.018-0.551-0.018c-0.054,0-0.34,0.018-0.498,0.018c-0.061,0-0.103-0.012-0.103-0.053
			c0-0.018,0.031-0.03,0.06-0.03c0.048,0,0.091,0,0.179-0.018c0.195-0.036,0.213-0.267,0.236-0.492l0.427-3.865
			c0.008-0.065,0.03-0.107,0.065-0.107c0.036,0,0.059,0.024,0.089,0.089l1.814,3.728l1.741-3.722
			c0.025-0.054,0.048-0.095,0.09-0.095c0.041,0,0.06,0.047,0.072,0.161L225.875,12.28z"/>
	</g>
	<path fill="#D2D2D2" enable-background="new    " d="M21.129,14.698c0.734-0.211,1.248-0.893,1.248-1.658
		c0-0.764-0.513-1.445-1.248-1.656l-0.078-0.022V8.399l0.078-0.022c0.734-0.211,1.248-0.893,1.248-1.657
		c0-0.951-0.774-1.725-1.725-1.725c-0.373,0-0.729,0.118-1.03,0.341l-0.069,0.051l-3.229-2.744l0.043-0.078
		c0.144-0.258,0.219-0.549,0.219-0.841C16.585,0.774,15.812,0,14.861,0c-0.952,0-1.725,0.774-1.725,1.725
		c0,0.292,0.076,0.583,0.219,0.841l0.043,0.078l-3.282,2.789l-0.025,0.021l-0.07-0.058C9.713,5.138,9.32,4.995,8.917,4.995
		c-0.951,0-1.725,0.773-1.725,1.725c0,0.822,0.585,1.534,1.392,1.692L8.67,8.428v2.904l-0.087,0.017
		c-0.806,0.158-1.392,0.87-1.392,1.691c0,0.823,0.585,1.535,1.392,1.693L8.67,14.75v2.904L8.583,17.67
		c-0.806,0.157-1.392,0.869-1.392,1.691c0,0.951,0.774,1.725,1.725,1.725c0.481,0,0.929-0.193,1.258-0.545l0.062-0.064l3.051,1.944
		l-0.032,0.083c-0.078,0.201-0.118,0.412-0.118,0.627c0,0.822,0.585,1.535,1.39,1.692l0.088,0.017v1.686l-0.088,0.017
		c-0.805,0.159-1.39,0.87-1.39,1.692c0,0.951,0.773,1.725,1.725,1.725c0.95,0,1.724-0.773,1.724-1.725
		c0-0.822-0.585-1.533-1.391-1.692l-0.087-0.017V24.84l0.087-0.017c0.806-0.157,1.391-0.87,1.391-1.692
		c0-0.215-0.04-0.426-0.119-0.627l-0.033-0.082l2.956-1.885l0.061,0.061c0.323,0.314,0.75,0.488,1.202,0.488
		c0.951,0,1.725-0.773,1.725-1.725c0-0.764-0.513-1.445-1.248-1.656l-0.078-0.022v-2.962L21.129,14.698z M9.163,8.428L9.25,8.412
		C9.362,8.389,9.474,8.355,9.583,8.31l0.052-0.022l0.032-0.013l2.848,4.54h-1.887l-0.016-0.088
		c-0.127-0.689-0.674-1.243-1.362-1.378l-0.087-0.017V8.428z M12.765,13.307l0.06,0l0.012,0.019c0,0,0.876,1.397,0.878,1.401
		l0.037,0.073l-0.296,0.317c0,0-2.845-1.413-2.847-1.415l-0.075-0.044l0.093-0.352H12.765z M10.235,18.252
		c-0.252-0.301-0.603-0.508-0.985-0.582l-0.087-0.016V14.75l0.087-0.017c0.379-0.074,0.727-0.279,0.981-0.577l0.035-0.041
		l0.02-0.024l2.948,1.465l-0.026,0.086c-0.046,0.157-0.07,0.321-0.07,0.488c0,0.166,0.024,0.33,0.071,0.489l0.025,0.084l-2.94,1.614
		L10.235,18.252z M14.614,21.422l-0.088,0.018c-0.349,0.068-0.665,0.242-0.913,0.502l-0.061,0.064c0,0-2.982-1.9-2.985-1.902
		l-0.063-0.049l0.098-0.33l0.024-0.084h3.949h0.039V21.422z M14.614,19.149h-3.898l-0.083-0.007l-0.097-0.396l2.896-1.59
		l0.029-0.016l0.056,0.07c0.255,0.316,0.613,0.533,1.009,0.611l0.088,0.016V19.149z M14.614,14.332l-0.008,0.084l-0.348,0.098
		l-0.083,0.023l-0.771-1.23h1.169h0.039V14.332z M14.614,12.815h-1.518L10.076,8l0.06-0.061c0.243-0.244,0.406-0.55,0.473-0.886
		l0.018-0.086h3.949h0.039V12.815z M14.614,6.474h-3.989l-0.017-0.087c-0.032-0.163-0.088-0.322-0.168-0.473L10.4,5.837l3.293-2.798
		l0.025-0.021l0.07,0.055c0.216,0.172,0.471,0.291,0.738,0.343l0.088,0.017V6.474z M15.106,3.434l0.087-0.017
		c0.269-0.052,0.525-0.171,0.741-0.343l0.043-0.035l0.026-0.021l3.217,2.734L19.174,5.83c-0.104,0.173-0.176,0.36-0.214,0.557
		l-0.018,0.087h-3.836V3.434z M15.106,6.967h3.804h0.032l0.018,0.087c0.072,0.373,0.272,0.717,0.562,0.969l0.07,0.061l-2.969,4.731
		h-1.518V6.967z M16.957,13.307l1.904,0l0.08,0.007l0.118,0.416c0,0-2.722,1.352-2.724,1.353l-0.073,0.029l-0.297-0.318l0.311-0.494
		l0.621-0.993h0.022H16.957z M15.106,13.307h1.137h0.071l-0.038,0.061c0,0-0.689,1.101-0.691,1.104l-0.048,0.062l-0.432-0.121
		V13.307z M15.106,17.838l0.087-0.016c0.397-0.078,0.755-0.295,1.009-0.611l0.037-0.045l0.021-0.025l2.804,1.54l-0.032,0.087
		c-0.034,0.094-0.06,0.192-0.078,0.291l-0.016,0.09h-3.833V17.838z M16.169,22.006l-0.061-0.064
		c-0.248-0.26-0.564-0.434-0.915-0.502l-0.087-0.018v-1.781h3.81h0.032l0.019,0.085c0.023,0.112,0.059,0.221,0.104,0.323
		l0.038,0.084L16.169,22.006z M20.557,17.638l-0.095,0.011c-0.417,0.045-0.8,0.24-1.083,0.55l-0.057,0.062l-1.645-0.902
		l-1.191-0.653l0.026-0.085c0.048-0.157,0.072-0.323,0.072-0.489c0-0.164-0.023-0.326-0.071-0.488l-0.024-0.087l2.81-1.396
		l0.026-0.013l0.055,0.06c0.282,0.308,0.666,0.502,1.081,0.548l0.095,0.011V17.638z M20.557,11.316l-0.095,0.01
		c-0.75,0.083-1.369,0.658-1.506,1.4l-0.017,0.088h-1.733l2.799-4.462l0.017-0.026l0.08,0.027c0.116,0.039,0.236,0.065,0.36,0.079
		l0.095,0.011V11.316z"/>
	<g enable-background="new    ">
		<g enable-background="new    ">
			<path fill="#D2D2D2" d="M8.506,22.303c0.465,0,0.846,0.379,0.846,0.845s-0.38,0.845-0.846,0.845s-0.845-0.379-0.845-0.845
				S8.041,22.303,8.506,22.303z M8.506,23.871c0.399,0,0.722-0.323,0.722-0.723s-0.323-0.722-0.722-0.722s-0.721,0.322-0.721,0.722
				S8.107,23.871,8.506,23.871z M8.323,23.631H8.2v-0.975h0.375c0.22,0,0.306,0.096,0.306,0.271c0,0.179-0.113,0.254-0.245,0.277
				l0.291,0.426H8.788l-0.291-0.426H8.323V23.631z M8.323,23.096h0.157c0.134,0,0.279-0.008,0.279-0.168
				c0-0.125-0.114-0.162-0.218-0.162H8.323V23.096z"/>
		</g>
		<g id="lionbig_12_" enable-background="new    ">
			<g>
				<path fill-rule="evenodd" clip-rule="evenodd" fill="#D2D2D2" d="M5.659,28.254c-0.03,0.08-0.078-0.03-0.125-0.036
					C5.572,28.176,5.615,28.25,5.659,28.254z"/>
				<path fill-rule="evenodd" clip-rule="evenodd" fill="#D2D2D2" d="M5.244,28.428c0,0.007,0,0.017,0,0.023
					c-0.02,0.004-0.032,0-0.042-0.007C5.209,28.431,5.224,28.426,5.244,28.428z"/>
				<path fill-rule="evenodd" clip-rule="evenodd" fill="#D2D2D2" d="M1.693,22.436c0.022,0,0.044,0,0.066,0
					c0.03,0.049-0.009,0.114,0.025,0.158c0.061,0.021,0.111-0.02,0.15-0.05c0.039-0.03,0.086-0.065,0.107-0.108
					c0.038,0,0.078,0,0.116,0c0.003,0.049,0.035,0.137,0.058,0.19c-0.021,0.092-0.104,0.161-0.075,0.274
					c0.151,0.035,0.091-0.17,0.157-0.257c0.037-0.045,0.068-0.044,0.109-0.083c0.015-0.05,0.055-0.072,0.066-0.125
					c0.039,0,0.077,0,0.116,0c0.045,0.219,0.492,0.035,0.598,0.19c0.003,0.04-0.034,0.038-0.026,0.085
					c0.112,0.084,0.289,0.089,0.433,0.141c0.085,0.03,0.192,0.082,0.215,0.174c-0.057,0.035-0.139-0.005-0.141,0.066
					c-0.001,0.051,0.136,0.096,0.184,0.133c0.088,0.07,0.158,0.172,0.189,0.232c-0.01,0.045-0.108,0.002-0.125,0.041
					c-0.074,0.258,0.166,0.387,0.157,0.607c-0.08-0.009-0.12-0.105-0.198-0.043c-0.057,0.13,0.09,0.25,0.108,0.382
					c0.009,0.081,0.003,0.198-0.058,0.241c-0.06-0.014-0.035-0.109-0.108-0.109c-0.096,0.049-0.016,0.146-0.018,0.249
					c0,0.052-0.035,0.213-0.091,0.208c-0.056-0.005-0.032-0.139-0.107-0.133c-0.083,0.008-0.049,0.169-0.124,0.182
					c-0.033,0.027-0.041-0.025-0.084-0.016c-0.028,0.029,0.013,0.078,0,0.092c-0.041-0.005-0.068-0.068-0.108-0.025
					c0.033,0.065,0.027,0.114,0.016,0.174c0.036,0.092,0.138,0.114,0.209,0.142c0.413,0.159,0.646,0.487,0.888,0.854
					c0.097,0.146,0.168,0.33,0.29,0.398c0.095,0.052,0.294,0.074,0.482,0.091c0.25,0.022,0.48,0.04,0.73,0.051
					c0.208,0.009,0.435-0.009,0.63,0c0.165,0.007,0.293,0.013,0.332-0.132c0.04-0.15,0.014-0.405-0.049-0.491
					c-0.085-0.115-0.269-0.249-0.39-0.35c-0.334-0.274-0.669-0.509-1.037-0.788c-0.062-0.046-0.176-0.124-0.191-0.174
					c-0.024-0.078,0.007-0.223,0.007-0.324c0-0.486-0.029-1.1-0.007-1.575c0.007-0.169-0.024-0.294,0.066-0.39
					c0.628-0.059,1.291-0.012,1.909,0c0.03,0.029,0.09,0.031,0.108,0.074c0.012,0.336-0.024,0.717,0,1.062
					c0.039,0.05,0.095,0.031,0.132,0.074c0.024,0.027,0.005,0.08,0.058,0.092c0,0.068,0,0.138,0,0.207c-0.006,0-0.012,0-0.018,0
					c-0.009,0.219-0.222,0.299-0.298,0.447c-0.02,0.036-0.033,0.09-0.033,0.133c0.002,0.212,0.195,0.277,0.256,0.458
					c-0.21,0.03-0.449-0.163-0.514-0.358c-0.021-0.065-0.009-0.133-0.067-0.141c-0.088-0.011-0.11,0.13-0.141,0.207
					c-0.104-0.035-0.141-0.229-0.108-0.363c0.013-0.051,0.062-0.083,0.033-0.125c-0.124-0.044-0.164,0.11-0.257,0.099
					c-0.054-0.283,0.157-0.43,0.349-0.539c0.081-0.047,0.263-0.11,0.291-0.174c0.02-0.048,0.018-0.171,0.016-0.217
					c0-0.216-0.031-0.489-0.034-0.712c-0.06-0.008-0.088,0.039-0.149,0.049c-0.368,0.059-0.816-0.068-1.178-0.016
					c-0.037,0.054-0.022,0.131-0.024,0.198c-0.02,0.452-0.064,0.933-0.06,1.419c0.145,0.131,0.309,0.241,0.465,0.373
					c0.371,0.312,0.748,0.624,1.137,0.954c0.091,0.078,0.196,0.147,0.208,0.266c0.02,0.203-0.016,0.464-0.008,0.688
					c0.006,0.167,0.048,0.34-0.017,0.481c-0.194,0.009-0.413,0.058-0.605,0.018c-0.024-0.06-0.043-0.159-0.134-0.142
					c-0.027,0.066,0.073,0.078,0.092,0.124c-0.129,0.03-0.141-0.088-0.232-0.075c-0.08,0.012-0.06,0.094-0.092,0.175
					c-0.025,0.066-0.069,0.111-0.067,0.158c0.008,0.09,0.122,0.183,0.2,0.19c0.047,0.005,0.141-0.016,0.233-0.023
					c0.091-0.01,0.187,0,0.249-0.01c0.143-0.02,0.353-0.114,0.423,0c0.062,0.102-0.016,0.312,0,0.439
					c0.006,0.057,0.051,0.074,0.008,0.133c-0.104,0.008-0.07-0.123-0.174-0.115c-0.005,0.094,0.049,0.182,0.091,0.258
					c0.044,0.074,0.092,0.158,0.158,0.207c0,0.022,0,0.043,0,0.066c-0.137,0.049-0.174-0.167-0.298-0.076
					c-0.002,0.068,0.054,0.106,0.083,0.158c0.034,0.061,0.104,0.172,0.09,0.249c-0.007,0.046-0.045,0.044-0.049,0.091
					c-0.006,0.057,0.086,0.154,0.082,0.234c-0.001,0.045-0.038,0.092-0.082,0.089c-0.065-0.002-0.068-0.144-0.133-0.157
					c-0.044-0.009-0.153,0.039-0.233,0.068c-0.148,0.053-0.475,0.189-0.672,0.082c-0.07-0.039-0.089-0.141-0.149-0.143
					c-0.086,0-0.102,0.146-0.132,0.183c-0.027,0.028-0.115-0.003-0.117,0.052c-0.065,0-0.132,0-0.198,0
					c-0.125-0.183,0.133-0.254,0.174-0.398c-0.215-0.068-0.231,0.229-0.349,0.331c-0.03,0.027-0.08,0.018-0.082,0.067
					c-0.042,0-0.084,0-0.126,0c0-0.006,0-0.012,0-0.018c-0.126-0.012-0.139-0.145-0.065-0.24c0.055-0.073,0.192-0.051,0.208-0.141
					c-0.17-0.211-0.261,0.149-0.365,0.298c-0.031,0.044-0.081,0.056-0.091,0.101c-0.042,0-0.083,0-0.125,0
					c-0.058-0.061-0.066-0.173-0.017-0.275c0.11-0.23,0.474-0.39,0.838-0.39c0.333,0.002,0.628,0.106,0.863,0.166
					c0.032,0.038,0.074,0.058,0.099,0.108c0.016,0.031,0.002,0.1,0.06,0.1c0.069-0.088-0.06-0.174-0.067-0.266
					c0.111-0.068,0.133,0.121,0.24,0.082c0.006-0.078-0.107-0.078-0.075-0.156c0.083,0.006,0.096,0.116,0.174,0.1
					c0.04-0.07-0.049-0.069-0.042-0.134c0.005-0.042,0.089-0.006,0.084-0.058c-0.032-0.061-0.21-0.016-0.191-0.1
					c0.024-0.031,0.107-0.004,0.132-0.033c-0.009-0.104-0.21-0.012-0.208-0.125c0.06-0.027,0.146,0.029,0.191-0.008
					c0.021-0.126-0.179-0.032-0.191-0.125c0.041-0.062,0.158,0.049,0.224-0.016c-0.031-0.075-0.177-0.033-0.199-0.117
					c0.057-0.061,0.161,0.066,0.208-0.008c-0.004-0.074-0.088-0.066-0.142-0.091c-0.034-0.02-0.038-0.095-0.099-0.101
					c-0.071-0.004-0.171,0.119-0.265,0.143c-0.176,0.039-0.383,0.035-0.465,0.133c-0.001,0.072,0.123,0.02,0.132,0.082
					c-0.069,0.062-0.293,0.046-0.315-0.041c-0.007-0.033,0.031-0.044,0.007-0.066c-0.063-0.041-0.129-0.082-0.198-0.117
					c-0.031-0.047-0.056-0.1-0.116-0.116c-0.029,0.005-0.018,0.05-0.042,0.06c-0.037-0.004-0.025-0.057-0.082-0.043
					c-0.03,0.135,0.144,0.136,0.183,0.232c-0.01,0.036-0.042,0.048-0.042,0.092c0.015,0.057,0.112,0.053,0.1,0.116
					c-0.02,0.101-0.315,0.015-0.348-0.04c0.036-0.006,0.087,0.004,0.083-0.044c-0.016-0.017-0.05-0.017-0.083-0.015
					c-0.057-0.061-0.146-0.088-0.208-0.143c-0.037-0.031-0.056-0.102-0.116-0.083c0.017,0.115,0.149,0.116,0.191,0.208
					c-0.119,0.01-0.071,0.101-0.05,0.158c-0.187-0.029-0.346-0.157-0.506-0.24c-0.185-0.123-0.278-0.424-0.166-0.697
					c0.063-0.152,0.224-0.317,0.356-0.391c0.048-0.027,0.118-0.027,0.117-0.1c-0.159-0.1-0.287,0.148-0.432,0.041
					c-0.083,0.161-0.181,0.351-0.357,0.392c0.047-0.125,0.21-0.217,0.175-0.366c-0.114,0.036-0.14,0.164-0.2,0.258
					c-0.076,0.046-0.125,0.203-0.232,0.166c0.05-0.139,0.276-0.217,0.266-0.416c-0.072-0.012-0.094,0.072-0.124,0.117
					c-0.064,0.091-0.128,0.176-0.217,0.248c-0.032,0.028-0.084,0.096-0.14,0.059c0.029-0.078,0.117-0.135,0.182-0.208
					c0.06-0.066,0.145-0.144,0.133-0.249c-0.097,0.007-0.136,0.121-0.191,0.199c-0.053,0.074-0.132,0.166-0.191,0.217
					c-0.023,0.02-0.087,0.073-0.132,0.033c0.088-0.17,0.317-0.243,0.324-0.465c-0.088-0.004-0.13,0.11-0.184,0.182
					c-0.052,0.072-0.109,0.152-0.173,0.199c-0.033,0.024-0.146,0.105-0.198,0.033c0.06-0.062,0.148-0.129,0.223-0.199
					c0.065-0.06,0.179-0.137,0.135-0.232c-0.084-0.008-0.089,0.09-0.126,0.142c-0.049,0.066-0.145,0.146-0.216,0.198
					c-0.066,0.051-0.172,0.162-0.257,0.085c0.13-0.114,0.286-0.248,0.416-0.384c0.032-0.033,0.123-0.09,0.057-0.148
					c-0.071,0.019-0.052,0.074-0.091,0.125c-0.068,0.084-0.26,0.234-0.382,0.289c-0.118,0.056-0.346,0.09-0.341-0.074
					c0.004-0.074,0.146-0.183,0.208-0.107c0.019,0.055-0.074,0.062-0.076,0.124C2.983,27.36,3.16,27.202,3.253,27
					c-0.089-0.037-0.12-0.178-0.084-0.316c0.043-0.166,0.194-0.307,0.24-0.431c-0.14-0.069-0.193,0.144-0.265,0.224
					c-0.013,0.09-0.058,0.153-0.083,0.266c-0.024,0.107,0.019,0.222,0,0.315c-0.017,0.095-0.102,0.181-0.182,0.19
					c-0.006-0.063,0.054-0.061,0.049-0.123c-0.12-0.045-0.205,0.079-0.282,0.132c-0.042,0.007-0.113,0.065-0.142,0.009
					c-0.002-0.08,0.067-0.09,0.125-0.066c0.011-0.043,0.088-0.059,0.108-0.158c0.028-0.143-0.036-0.365-0.125-0.232
					c0.077,0.094,0.095,0.287-0.032,0.34c-0.089-0.143-0.148,0.002-0.274,0.059c-0.098,0.045-0.182,0.076-0.299,0.041
					c0.004-0.053,0.058-0.057,0.058-0.115c-0.094-0.057-0.188,0.084-0.266,0.016c-0.026-0.078,0.076-0.142,0.008-0.182
					c-0.086-0.013-0.033,0.133-0.115,0.148c-0.028,0.006-0.055-0.028-0.1-0.041c-0.055-0.016-0.13,0-0.174-0.007
					c-0.065-0.013-0.122-0.075-0.174-0.075c-0.126,0-0.217,0.176-0.166,0.34c-0.046,0.121-0.458,0.083-0.474-0.05
					c-0.02-0.159,0.173-0.225,0.267-0.3c0.054,0,0.089-0.02,0.098-0.064c-0.211-0.127-0.358,0.353-0.546,0.373
					c-0.059,0.005-0.107-0.018-0.118-0.059c-0.034-0.135,0.151-0.324,0.292-0.314c-0.034-0.157-0.176,0.007-0.215,0.049
					C0.298,27.094,0.209,27.337,0,27.233c0-0.068,0-0.137,0-0.207c0.005,0,0.011,0,0.017,0c0.09-0.162,0.194-0.301,0.407-0.324
					c0.109-0.013,0.227,0.031,0.339,0c0.03-0.009,0.062-0.043,0.099-0.051c0.134-0.024,0.276,0.022,0.39,0
					c0.224-0.04,0.372-0.238,0.589-0.266c0.083-0.008,0.21,0.021,0.291-0.016c0.009-0.082-0.053-0.143-0.066-0.241
					c-0.014-0.104,0.055-0.303-0.042-0.315c-0.116-0.014-0.104,0.257-0.083,0.365c-0.042,0.061-0.232,0.102-0.298,0.034
					c0.05-0.052,0.169-0.024,0.157-0.108c-0.011-0.086-0.119-0.021-0.165-0.042c-0.007-0.093,0.118-0.054,0.133-0.124
					c-0.004-0.043,0.015-0.109-0.034-0.107c-0.072,0.021-0.025,0.162-0.132,0.148c-0.03-0.047,0.053-0.103,0-0.148
					c-0.017,0-0.033,0-0.05,0c-0.002,0.138-0.15,0.253-0.316,0.231c-0.053-0.007-0.126-0.041-0.124-0.083
					c0.004-0.084,0.223-0.051,0.175-0.182c-0.013-0.047-0.115-0.002-0.125-0.051c0.017-0.061,0.208-0.133,0.074-0.191
					c-0.071,0.082-0.104,0.201-0.247,0.209c-0.08-0.133,0.242-0.137,0.115-0.266c-0.057,0.008-0.043,0.09-0.092,0.141
					c-0.068,0.072-0.304,0.159-0.305,0.009c0.035-0.028,0.142,0.024,0.149-0.05c0.009-0.096-0.182-0.046-0.275-0.059
					c-0.124-0.017-0.39-0.084-0.364-0.182c0.029-0.11,0.195,0.016,0.265-0.059c-0.007-0.203-0.33-0.091-0.382-0.25
					c0.009-0.059,0.11-0.074,0.126-0.141c0.011-0.055-0.042-0.132-0.051-0.207c-0.028-0.224,0.087-0.512,0-0.697
					C0.149,23.952,0.03,23.885,0,23.855c0-0.052,0-0.104,0-0.156c0.041-0.01,0.057-0.044,0.083-0.067
					C0.061,23.608,0.039,23.586,0,23.581c0-0.055,0-0.109,0-0.164c0.061-0.031,0.125-0.024,0.199-0.01
					c-0.021-0.078-0.208-0.104-0.167-0.207c0.026-0.06,0.121-0.023,0.199-0.023c0.239,0.111,0.478,0.357,0.374,0.695
					c-0.019,0.061-0.107,0.119-0.117,0.191c-0.028,0.232,0.185,0.363,0.133,0.614c0.208,0.211,0.607,0.31,0.896,0.474
					c0.11,0.061,0.25,0.217,0.407,0.166c0.123-0.041,0.266-0.383,0.291-0.615c0.021-0.194-0.104-0.4-0.25-0.414
					c-0.126-0.014-0.175,0.075-0.307,0.09c-0.047-0.028-0.106-0.043-0.099-0.106c0.009-0.095,0.289-0.169,0.356-0.217
					c0.049-0.033,0.133-0.114,0.125-0.199c-0.011-0.104-0.17-0.153-0.266-0.124c-0.06,0.02-0.135,0.098-0.207,0.158
					c-0.056,0.047-0.154,0.137-0.232,0.123c-0.045-0.006-0.102-0.086-0.101-0.141c0.002-0.063,0.08-0.086,0.06-0.141
					c-0.067-0.003-0.074,0.088-0.142,0.059c-0.023-0.1,0.06-0.174,0.125-0.233c0.065-0.06,0.155-0.106,0.208-0.173
					c0.088-0.115,0.095-0.262,0.215-0.35c0.127,0.094,0.262,0,0.399,0.024c0.03,0.007,0.075,0.063,0.125,0.06
					c0.055-0.006,0.192-0.162,0.231-0.24c0.034-0.068,0.039-0.209,0.157-0.166c0.024,0.007,0.046,0.052,0.05,0.082
					c0.025,0.166-0.122,0.279-0.174,0.373c0.256,0.252,0.654,0.584,0.648,1.078c-0.003,0.236-0.112,0.463-0.232,0.59
					c-0.032,0.033-0.114,0.057-0.092,0.125c0.115,0.029,0.227-0.082,0.298-0.166c0.13-0.151,0.208-0.343,0.217-0.614
					c0.067,0.048,0.142,0.005,0.208,0.025c0.109,0.033,0.133,0.191,0.248,0.19c-0.046-0.108-0.343-0.455-0.471-0.249
					c-0.017-0.161-0.061-0.253-0.125-0.398c-0.03-0.064-0.125-0.187-0.116-0.241c0.007-0.045,0.122-0.121,0.183-0.132
					c0.13-0.026,0.21,0.077,0.306,0.075c-0.047-0.136-0.347-0.207-0.489-0.135c-0.039,0.021-0.065,0.082-0.108,0.084
					c-0.059,0.002-0.136-0.1-0.166-0.125c-0.056-0.045-0.123-0.07-0.158-0.132c0.044-0.104,0.128-0.181,0.134-0.308
					c0.007-0.2-0.247-0.318-0.349-0.15c-0.052,0.088-0.045,0.193-0.125,0.258c-0.095,0.08-0.342,0.049-0.498,0.092
					c-0.058-0.039-0.13-0.105-0.182-0.174c-0.044-0.059-0.13-0.157-0.074-0.233c0.148,0.034,0.134,0.268,0.273,0.282
					c0.028-0.053-0.063-0.104-0.092-0.174c-0.014-0.032-0.01-0.072-0.025-0.099c-0.017-0.032-0.081-0.056-0.083-0.092
					C1.615,22.489,1.686,22.495,1.693,22.436z M1.983,22.918c0.046-0.062-0.021-0.209,0.041-0.282
					C1.915,22.62,1.874,22.875,1.983,22.918z M2.887,22.776c0.046-0.002,0.088-0.012,0.141-0.008
					C3.044,22.698,2.858,22.692,2.887,22.776z M3.07,22.869c-0.091-0.003-0.231,0.019-0.224,0.116
					c0.055,0.035,0.099-0.023,0.149-0.033c0.144-0.028,0.268,0.053,0.38,0.074C3.376,22.917,3.194,22.872,3.07,22.869z
					 M3.461,23.067c0.011,0.014,0.046,0.027,0.065,0.009C3.539,23.009,3.46,23.018,3.461,23.067z M2.805,23.19
					c0.004,0.03,0.021,0.047,0.025,0.076c0.026,0.004,0.045,0.016,0.075,0.018c0.052-0.033,0.032-0.076,0.082-0.107
					c0.085-0.056,0.237,0.017,0.299-0.068C3.137,23.047,2.857,23.043,2.805,23.19z M3.435,23.159
					c-0.008,0.07,0.056,0.067,0.107,0.074c0.033,0.036,0.046,0.093,0.116,0.092C3.673,23.216,3.522,23.163,3.435,23.159z
					 M1.65,23.383c-0.003,0.06,0.003,0.105,0.034,0.133c0.122,0.006,0.135-0.098,0.157-0.191C1.764,23.297,1.692,23.346,1.65,23.383
					z M3.734,23.391c0.024,0.006,0.025,0.006,0.049,0C3.794,23.342,3.728,23.355,3.734,23.391z M0.456,23.647
					c-0.052-0.083-0.167-0.236-0.24-0.215c0.066,0.062,0.165,0.133,0.182,0.241c0.006,0.034-0.029,0.076,0.009,0.106
					c0.014,0,0.027,0,0.042,0C0.482,23.752,0.453,23.696,0.456,23.647z M3.161,23.54c-0.042,0.166,0.15,0.043,0.283,0.067
					c0.066,0.011,0.083,0.056,0.132,0.04c0.051,0.02,0.124,0.104,0.167,0.075C3.651,23.586,3.412,23.525,3.161,23.54z M0.282,23.838
					c-0.048-0.1-0.081-0.227-0.19-0.184c0.055,0.042,0.116,0.078,0.14,0.159c0.021,0.063-0.009,0.155,0.05,0.198
					C0.379,23.975,0.321,23.92,0.282,23.838z M3.536,23.739c-0.111-0.017-0.292,0.032-0.241,0.133
					c0.076,0.066,0.146-0.041,0.248-0.041c0.12,0.001,0.166,0.111,0.275,0.083C3.802,23.849,3.655,23.756,3.536,23.739z
					 M6.979,24.012c0.026,0,0.064,0.009,0.058-0.023C7.02,23.956,6.951,23.975,6.979,24.012z M6.879,24.063
					c-0.001,0.014-0.022,0.006-0.017,0.025c-0.012,0.131-0.145,0.143-0.191,0.24C6.773,24.323,7.011,24.17,6.879,24.063z
					 M6.555,24.278c0.066-0.02,0.129-0.085,0.108-0.166C6.583,24.124,6.582,24.214,6.555,24.278z M6.721,24.419
					c0.126-0.016,0.229-0.054,0.265-0.157C6.893,24.277,6.804,24.366,6.721,24.419z M7.112,24.319
					c0.032,0.004,0.044-0.016,0.041-0.048c-0.009-0.007-0.023-0.012-0.041-0.009C7.099,24.273,7.099,24.309,7.112,24.319z
					 M3.401,24.313c-0.038,0.027-0.038,0.094,0,0.123c0.157,0.001,0.153,0.165,0.241,0.232C3.676,24.52,3.499,24.358,3.401,24.313z
					 M6.763,24.52c0.079,0.002,0.244-0.02,0.233-0.109C6.902,24.432,6.831,24.473,6.763,24.52z M3.418,24.76
					c0.009-0.065-0.018-0.164-0.117-0.15C3.284,24.688,3.362,24.733,3.418,24.76z M3.237,24.785
					c0.058,0.038,0.072,0.121,0.133,0.157c0.046-0.071-0.035-0.207-0.126-0.224C3.231,24.73,3.237,24.76,3.237,24.785z
					 M0.473,24.868c-0.05-0.029-0.082-0.078-0.141-0.1C0.304,24.834,0.43,24.926,0.473,24.868z M3.169,24.819
					c-0.089,0.025,0.054,0.232,0.108,0.24C3.317,25,3.231,24.799,3.169,24.819z M5.459,24.975c0-0.049-0.023-0.076-0.066-0.082
					C5.37,24.934,5.408,24.983,5.459,24.975z M3.028,24.95c0.012,0.074,0.073,0.1,0.083,0.175c0.02,0.007,0.058,0.017,0.075,0
					C3.187,25.051,3.127,24.899,3.028,24.95z M0.34,24.95c-0.003,0.012-0.009,0.016,0,0.025C0.375,24.989,0.448,25.078,0.473,25
					C0.427,24.989,0.397,24.924,0.34,24.95z M5.602,25.083c0.018-0.003,0.002-0.041,0.006-0.057c-0.01-0.008-0.029-0.008-0.04-0.018
					C5.544,25.037,5.573,25.106,5.602,25.083z M5.783,25.242c0.024-0.054-0.019-0.108-0.075-0.108
					C5.688,25.183,5.729,25.239,5.783,25.242z M3.161,25.299c0.011,0.012,0.041,0.012,0.05,0c-0.001-0.023-0.014-0.035-0.042-0.033
					C3.167,25.278,3.159,25.282,3.161,25.299z M5.975,25.399c0.006-0.039-0.026-0.106-0.083-0.107
					C5.874,25.344,5.914,25.397,5.975,25.399z M0.688,25.424c0.042,0.006,0.054-0.019,0.05-0.059c-0.011,0-0.018-0.004-0.026-0.008
					C0.696,25.371,0.683,25.388,0.688,25.424z M0.763,25.491c0.053-0.012,0.095-0.032,0.109-0.084
					c-0.011-0.003-0.015-0.008-0.017-0.016C0.793,25.393,0.781,25.446,0.763,25.491z M6.131,25.457
					c-0.005,0.002-0.009,0.008-0.007,0.017c-0.02,0.039,0.016,0.096,0.075,0.082C6.194,25.508,6.167,25.448,6.131,25.457z
					 M3.427,25.523c-0.016,0.029-0.01,0.062,0.008,0.092c0.012-0.001,0.018,0.005,0.026,0.008
					C3.602,25.592,3.491,25.413,3.427,25.523z M6.382,25.697c0.021-0.046-0.017-0.097-0.067-0.099
					C6.29,25.647,6.33,25.697,6.382,25.697z M1.352,25.754c0.053-0.005,0.078-0.043,0.083-0.098
					C1.381,25.571,1.312,25.678,1.352,25.754z M3.627,25.772c0.02,0.008,0.044,0.011,0.075,0.008c0.016-0.02,0.019-0.053,0.016-0.09
					C3.661,25.661,3.617,25.708,3.627,25.772z M6.572,25.871c0.042-0.051-0.004-0.132-0.058-0.14
					C6.482,25.778,6.529,25.849,6.572,25.871z M1.394,25.946c0.047-0.014,0.082-0.039,0.076-0.106
					C1.398,25.797,1.392,25.917,1.394,25.946z M1.833,26.004c0.038-0.027,0.085-0.076,0.059-0.141
					C1.802,25.829,1.78,25.977,1.833,26.004z M6.729,25.979c0.013-0.037,0.001-0.102-0.041-0.108c-0.006,0-0.012,0-0.017,0
					C6.654,25.914,6.67,25.987,6.729,25.979z M3.942,25.921c-0.015-0.087-0.151-0.013-0.084,0.074
					C3.915,25.996,3.948,25.959,3.942,25.921z M6.896,26.128c0.019-0.042-0.012-0.087-0.058-0.091
					C6.813,26.082,6.852,26.125,6.896,26.128z M4.041,26.087c-0.026,0.026-0.017,0.079,0.009,0.099
					c0.044-0.005,0.075-0.023,0.075-0.073C4.106,26.091,4.075,26.07,4.041,26.087z M2.714,26.552
					c0.013,0.015,0.033,0.021,0.065,0.017c0.017-0.022,0.013-0.079-0.007-0.092C2.728,26.478,2.71,26.505,2.714,26.552z
					 M2.498,26.661c0.023,0.021,0.078,0.021,0.1,0c0-0.015,0-0.028,0-0.041C2.57,26.575,2.475,26.573,2.498,26.661z M2.331,26.719
					c0.037,0.002,0.057-0.012,0.058-0.043c-0.013-0.014-0.035-0.021-0.065-0.016C2.312,26.686,2.319,26.698,2.331,26.719z
					 M2.116,26.776c0.019,0.018,0.064,0.011,0.058-0.023C2.165,26.711,2.102,26.725,2.116,26.776z M2.796,27
					c0.087-0.012,0.094-0.184,0.067-0.258C2.761,26.747,2.788,26.915,2.796,27z M1.9,26.834c0.025,0.021,0.043,0.01,0.065-0.008
					c0.002-0.021-0.013-0.025-0.016-0.041C1.913,26.78,1.896,26.796,1.9,26.834z M3.553,26.884c0.031,0.006,0.042,0.01,0.064-0.009
					C3.641,26.774,3.504,26.809,3.553,26.884z M1.726,26.868c0.016,0.017,0.034,0.02,0.059,0.008
					c0.002-0.028-0.013-0.043-0.042-0.041C1.742,26.85,1.719,26.845,1.726,26.868z M2.48,27.034c0.069-0.01,0.087-0.111,0.066-0.184
					C2.458,26.805,2.463,26.999,2.48,27.034z M2.307,26.909c0.04,0.067-0.015,0.167,0.017,0.217
					C2.466,27.133,2.42,26.787,2.307,26.909z M3.875,26.976c0.023-0.013,0.037-0.036,0.033-0.075
					C3.858,26.833,3.802,26.97,3.875,26.976z M4.065,26.983c0.036-0.004,0.032-0.076,0.008-0.091
					C4.018,26.877,4.017,26.989,4.065,26.983z M3.702,26.942c0-0.011,0-0.022,0-0.033c-0.01,0-0.017,0-0.026,0
					C3.673,26.931,3.679,26.944,3.702,26.942z M1.883,27.075c0.08,0.033,0.147-0.082,0.1-0.149
					C1.892,26.918,1.908,27.018,1.883,27.075z M2.132,26.942c-0.012,0.07,0.041,0.074,0.042,0.133
					c-0.003,0.045-0.062,0.059-0.034,0.107C2.271,27.179,2.268,26.879,2.132,26.942z M4.19,27.026
					c0.033-0.002,0.048-0.019,0.05-0.05C4.215,26.907,4.142,26.979,4.19,27.026z M3.485,26.976c0.019,0.001,0.032-0.002,0.033-0.017
					c-0.011-0.004-0.017-0.012-0.033-0.01C3.485,26.959,3.485,26.967,3.485,26.976z M4.323,27.016c0.015,0.023,0.068,0.023,0.083,0
					C4.425,26.932,4.31,26.952,4.323,27.016z M3.602,27.084c0.012-0.002,0.014-0.014,0.025-0.017
					C3.634,26.959,3.511,27.067,3.602,27.084z M3.783,27.091c0.012-0.001,0.015-0.013,0.025-0.017
					C3.817,26.968,3.693,27.075,3.783,27.091z M3.975,27.091C3.987,27.09,3.989,27.079,4,27.075
					C4.008,26.968,3.882,27.073,3.975,27.091z M4.273,27.125c0.034,0.002,0.057-0.004,0.058-0.034
					c-0.004-0.011-0.012-0.021-0.017-0.033C4.263,27.042,4.254,27.098,4.273,27.125z M4.465,27.108c0.013,0.012,0.061,0.012,0.074,0
					C4.553,27.039,4.457,27.053,4.465,27.108z M4.098,27.141c0.035,0.004,0.059-0.003,0.059-0.033c0-0.011-0.011-0.011-0.007-0.023
					C4.101,27.053,4.062,27.108,4.098,27.141z M6.837,27.159c-0.037-0.012-0.045-0.049-0.1-0.043
					c-0.009,0.011-0.009,0.03-0.009,0.051c0.048,0.049,0.261,0.077,0.299,0.008c0.02,0.007,0.058,0.018,0.075,0
					c0.006-0.039-0.018-0.048-0.05-0.049c-0.031-0.002-0.02,0.04-0.05,0.041C6.922,27.163,6.887,27.062,6.837,27.159z M5.825,27.947
					c0.021,0.02,0.073,0.024,0.075-0.017C5.905,27.881,5.799,27.881,5.825,27.947z M5.452,28.004
					c0.021-0.007,0.072,0.017,0.066-0.018C5.544,27.902,5.361,27.913,5.452,28.004z M5.618,27.997c0.013,0,0.028,0,0.042,0
					c0.02-0.028,0.005-0.079-0.034-0.074C5.611,27.942,5.604,27.968,5.618,27.997z M5.276,28.021
					c0.006-0.017,0.023-0.024,0.017-0.05C5.237,27.908,5.176,28.034,5.276,28.021z M5.021,28.014c0.025,0.012,0.043,0.016,0.065,0
					c0.005-0.043-0.018-0.057-0.058-0.051C5.019,27.973,5.019,27.991,5.021,28.014z M4.92,28.054c0.011,0,0.022,0,0.034,0
					c0.012-0.013,0.012-0.054,0-0.067C4.909,27.975,4.902,28.03,4.92,28.054z M6.298,28.021c-0.064,0-0.128-0.044-0.183-0.024
					c-0.007,0.001-0.01,0.006-0.008,0.018c0.006,0.059,0.121,0.01,0.142,0.057c-0.127,0.105-0.292-0.047-0.392-0.05
					c0.006,0.101,0.212,0.163,0.333,0.149c0.098-0.012,0.142-0.074,0.191-0.116c0.036,0.003,0.066,0,0.065-0.033
					C6.418,27.971,6.354,28.021,6.298,28.021z M4.763,28.014c-0.004,0.029,0.006,0.048,0.033,0.048
					c0.019-0.008,0.029-0.021,0.025-0.048C4.81,28,4.775,28,4.763,28.014z M5.625,28.129c0.034,0.019,0.076,0.029,0.1,0.059
					c0.097-0.014,0.211,0.143,0.266,0.016c-0.084-0.023-0.172-0.045-0.258-0.066c-0.029-0.034-0.06-0.067-0.116-0.075
					C5.614,28.09,5.622,28.109,5.625,28.129z M5.211,28.229c-0.029-0.038-0.081-0.094-0.142-0.075
					c0.013,0.106,0.193,0.154,0.299,0.167C5.372,28.233,5.26,28.262,5.211,28.229z M7.037,28.237
					c0.036,0.004,0.058-0.004,0.049-0.042C7.045,28.19,7.02,28.206,7.037,28.237z M4.821,28.262
					c0.058,0.045,0.077,0.134,0.166,0.149c0.028-0.048-0.018-0.084-0.059-0.091c-0.028-0.045-0.039-0.106-0.1-0.117
					C4.827,28.223,4.815,28.235,4.821,28.262z M7.044,28.51c0-0.011,0-0.022,0-0.031c-0.011,0-0.021,0-0.033,0
					C7.005,28.506,7.016,28.516,7.044,28.51z"/>
				<path fill-rule="evenodd" clip-rule="evenodd" fill="#D2D2D2" d="M2.373,29.491c-0.075,0-0.148,0-0.225,0
					c-0.007-0.052-0.052-0.043-0.057-0.092c-0.006-0.059,0.07-0.186,0.133-0.232c0.034-0.025,0.088-0.027,0.082-0.074
					c-0.22-0.099-0.26,0.182-0.308,0.34c-0.014,0.024-0.058,0.018-0.058,0.059c-0.041,0-0.083,0-0.124,0c0-0.006,0-0.012,0-0.018
					c-0.268-0.002-0.097-0.313,0.024-0.356c0.067-0.024,0.148-0.009,0.141-0.075c-0.011-0.113-0.193,0.004-0.241,0.051
					c-0.076,0.07-0.13,0.182-0.166,0.289c-0.048,0.07-0.227,0.06-0.281,0c-0.013-0.252,0.252-0.414,0.464-0.497
					c0.041-0.016,0.135-0.005,0.207-0.009c0.148-0.007,0.315-0.016,0.49-0.023c0.265-0.014,0.552,0.008,0.771-0.018
					c0.209-0.024,0.247-0.266,0.407-0.366c0.128-0.077,0.311-0.104,0.448-0.19c0.051-0.031,0.094-0.105,0.133-0.107
					c0.094-0.007,0.163,0.147,0.133,0.265c0.028,0.025,0.05,0.01,0.091,0.01c0.105,0.087,0.54,0.205,0.267,0.373
					C4.66,28.782,4.663,28.7,4.614,28.668C4.455,28.686,4.507,28.911,4.423,29c-0.101-0.013-0.024-0.203-0.117-0.225
					C4.25,28.792,4.175,28.913,4.15,29c-0.017,0.058,0.001,0.162-0.052,0.174c-0.094,0.021-0.026-0.154-0.14-0.133
					c-0.018,0.056,0.08,0.229-0.042,0.232c-0.026,0.002-0.043-0.035-0.081-0.059c-0.116-0.061-0.342-0.035-0.507-0.049
					c-0.043-0.004-0.083-0.021-0.125-0.017c-0.169,0.021-0.254,0.318-0.406,0.307c-0.074-0.006-0.12-0.137-0.199-0.14
					c-0.046-0.003-0.092,0.047-0.125,0.073C2.43,29.424,2.389,29.446,2.373,29.491z M4.224,28.487
					c-0.005,0.027,0.028,0.029,0.041,0.016C4.271,28.475,4.235,28.473,4.224,28.487z M4.248,28.643
					c-0.107,0.003-0.188,0.076-0.166,0.183c0.027,0.002,0.037,0.019,0.068,0.017c0.031-0.135,0.189-0.184,0.198-0.315
					C4.292,28.542,4.284,28.607,4.248,28.643z M4.423,28.676c0.024-0.041,0.061-0.07,0.065-0.133c-0.01,0-0.01-0.012-0.023-0.008
					C4.444,28.571,4.376,28.631,4.423,28.676z M4.38,28.727c0.022,0.002,0.022-0.02,0.026-0.034c-0.009,0-0.018,0-0.026,0
					C4.38,28.704,4.38,28.715,4.38,28.727z M3.958,28.9c0.065-0.007,0.053-0.095,0.065-0.157c-0.009,0-0.01-0.01-0.023-0.008
					C3.981,28.786,3.927,28.826,3.958,28.9z M3.875,28.992c0.011-0.065,0.046-0.203-0.009-0.239
					C3.837,28.81,3.79,28.961,3.875,28.992z M3.742,29.042c0.027-0.027,0.022-0.136-0.017-0.148
					C3.695,28.918,3.679,29.039,3.742,29.042z M3.536,28.959c0,0.048,0.021,0.076,0.066,0.082c0-0.037,0.017-0.068,0-0.099
					C3.573,28.928,3.548,28.938,3.536,28.959z"/>
			</g>
		</g>
	</g>
</g>
</svg>
