<?xml version="1.0" encoding="utf-8"?>
<!-- Generator: Adobe Illustrator 15.0.2, SVG Export Plug-In . SVG Version: 6.00 Build 0)  -->
<!DOCTYPE svg PUBLIC "-//W3C//DTD SVG 1.1//EN" "http://www.w3.org/Graphics/SVG/1.1/DTD/svg11.dtd">
<svg version="1.1" id="Layer_1" xmlns="http://www.w3.org/2000/svg" xmlns:xlink="http://www.w3.org/1999/xlink" x="0px" y="0px"
	 width="29.063px" height="29.959px" viewBox="0 0 29.063 29.959" enable-background="new 0 0 29.063 29.959" xml:space="preserve">
<g>
	<path fill="#D2D2D2" d="M21.129,14.698c0.734-0.211,1.248-0.893,1.248-1.658c0-0.764-0.513-1.445-1.248-1.656l-0.078-0.022V8.399
		l0.078-0.022c0.734-0.211,1.248-0.893,1.248-1.657c0-0.951-0.774-1.725-1.725-1.725c-0.373,0-0.729,0.118-1.03,0.341l-0.069,0.051
		l-3.229-2.744l0.043-0.078c0.144-0.258,0.219-0.549,0.219-0.841C16.585,0.774,15.812,0,14.861,0c-0.952,0-1.725,0.774-1.725,1.725
		c0,0.292,0.076,0.583,0.219,0.841l0.043,0.078l-3.282,2.789l-0.025,0.021l-0.07-0.058C9.713,5.138,9.32,4.995,8.917,4.995
		c-0.951,0-1.725,0.773-1.725,1.725c0,0.822,0.585,1.534,1.392,1.692L8.67,8.428v2.904l-0.087,0.017
		c-0.806,0.158-1.392,0.87-1.392,1.691c0,0.823,0.585,1.535,1.392,1.693L8.67,14.75v2.903L8.583,17.67
		c-0.806,0.157-1.392,0.869-1.392,1.69c0,0.951,0.774,1.726,1.725,1.726c0.481,0,0.929-0.192,1.258-0.545l0.062-0.063l3.051,1.943
		l-0.032,0.083c-0.078,0.201-0.118,0.412-0.118,0.627c0,0.822,0.585,1.535,1.39,1.692l0.088,0.017v1.687l-0.088,0.017
		c-0.805,0.159-1.39,0.87-1.39,1.692c0,0.951,0.773,1.725,1.725,1.725c0.95,0,1.724-0.773,1.724-1.725
		c0-0.822-0.585-1.533-1.391-1.692l-0.087-0.017V24.84l0.087-0.017c0.806-0.157,1.391-0.87,1.391-1.692
		c0-0.215-0.04-0.426-0.119-0.627l-0.033-0.082l2.956-1.885l0.061,0.062c0.323,0.313,0.75,0.487,1.202,0.487
		c0.951,0,1.725-0.772,1.725-1.726c0-0.764-0.513-1.444-1.248-1.655l-0.078-0.022v-2.961L21.129,14.698z M9.163,8.428L9.25,8.412
		C9.362,8.389,9.474,8.355,9.583,8.31l0.052-0.022l0.032-0.013l2.848,4.54h-1.887l-0.016-0.088
		c-0.127-0.689-0.674-1.243-1.362-1.378l-0.087-0.017V8.428z M12.765,13.307h0.06l0.012,0.019c0,0,0.876,1.397,0.878,1.401
		l0.037,0.073l-0.296,0.317c0,0-2.845-1.413-2.847-1.415l-0.075-0.044l0.093-0.352L12.765,13.307L12.765,13.307z M10.235,18.252
		c-0.252-0.301-0.603-0.508-0.985-0.582l-0.087-0.017V14.75l0.087-0.017c0.379-0.074,0.727-0.279,0.981-0.577l0.035-0.041
		l0.02-0.024l2.948,1.465l-0.026,0.086c-0.046,0.157-0.07,0.321-0.07,0.488c0,0.166,0.024,0.33,0.071,0.489l0.025,0.084l-2.94,1.614
		L10.235,18.252z M14.614,21.422l-0.088,0.019c-0.349,0.067-0.665,0.242-0.913,0.502l-0.061,0.063c0,0-2.982-1.899-2.985-1.901
		l-0.063-0.049l0.098-0.33l0.024-0.084h3.949h0.039V21.422z M14.614,19.149h-3.898l-0.083-0.008l-0.097-0.396l2.896-1.59
		l0.029-0.017l0.056,0.07c0.255,0.316,0.613,0.533,1.009,0.611l0.088,0.016V19.149z M14.614,14.332l-0.008,0.084l-0.348,0.098
		l-0.083,0.023l-0.771-1.23h1.169h0.039v1.025H14.614z M14.614,12.815h-1.518L10.076,8l0.06-0.061
		c0.243-0.244,0.406-0.55,0.473-0.886l0.018-0.086h3.949h0.039v5.848H14.614z M14.614,6.474h-3.989l-0.017-0.087
		c-0.032-0.163-0.088-0.322-0.168-0.473L10.4,5.837l3.293-2.798l0.025-0.021l0.07,0.055c0.216,0.172,0.471,0.291,0.738,0.343
		l0.088,0.017V6.474z M15.106,3.434l0.087-0.017c0.269-0.052,0.525-0.171,0.741-0.343l0.043-0.035l0.026-0.021l3.217,2.734
		L19.174,5.83c-0.104,0.173-0.176,0.36-0.214,0.557l-0.018,0.087h-3.836V3.434z M15.106,6.967h3.804h0.032l0.018,0.087
		c0.072,0.373,0.272,0.717,0.562,0.969l0.07,0.061l-2.969,4.731h-1.518L15.106,6.967L15.106,6.967z M16.957,13.307h1.904l0.08,0.007
		l0.118,0.416c0,0-2.722,1.352-2.724,1.353l-0.073,0.029l-0.297-0.318l0.311-0.494l0.621-0.993h0.022H16.957z M15.106,13.307h1.137
		h0.071l-0.038,0.061c0,0-0.689,1.101-0.691,1.104l-0.048,0.062l-0.432-0.121L15.106,13.307L15.106,13.307z M15.106,17.838
		l0.087-0.016c0.397-0.078,0.755-0.296,1.009-0.611l0.037-0.045l0.021-0.024l2.804,1.539l-0.032,0.088
		c-0.034,0.094-0.06,0.191-0.078,0.291l-0.016,0.09h-3.833L15.106,17.838L15.106,17.838z M16.169,22.006l-0.061-0.063
		c-0.248-0.26-0.564-0.435-0.915-0.502l-0.087-0.019v-1.78h3.81h0.032l0.019,0.084c0.023,0.112,0.059,0.222,0.104,0.323l0.038,0.084
		L16.169,22.006z M20.557,17.638l-0.095,0.012c-0.417,0.045-0.8,0.24-1.083,0.55l-0.057,0.062l-1.645-0.902l-1.191-0.652
		l0.026-0.085c0.048-0.157,0.072-0.323,0.072-0.489c0-0.164-0.023-0.326-0.071-0.488l-0.024-0.086l2.81-1.396l0.026-0.013
		l0.055,0.06c0.282,0.308,0.666,0.502,1.081,0.548l0.095,0.011L20.557,17.638L20.557,17.638z M20.557,11.316l-0.095,0.01
		c-0.75,0.083-1.369,0.658-1.506,1.4l-0.017,0.088h-1.733l2.799-4.462l0.017-0.026l0.08,0.027c0.116,0.039,0.236,0.065,0.36,0.079
		l0.095,0.011V11.316z"/>
	<g enable-background="new    ">
		<g enable-background="new    ">
			<path fill="#D2D2D2" d="M8.506,22.303c0.465,0,0.846,0.38,0.846,0.845c0,0.467-0.38,0.846-0.846,0.846
				c-0.466,0-0.845-0.379-0.845-0.846C7.661,22.683,8.041,22.303,8.506,22.303z M8.506,23.871c0.399,0,0.722-0.323,0.722-0.724
				c0-0.399-0.323-0.722-0.722-0.722s-0.721,0.322-0.721,0.722C7.785,23.548,8.107,23.871,8.506,23.871z M8.323,23.631H8.2v-0.975
				h0.375c0.22,0,0.306,0.096,0.306,0.271c0,0.18-0.113,0.254-0.245,0.277l0.291,0.426H8.788l-0.291-0.426H8.323V23.631z
				 M8.323,23.097H8.48c0.134,0,0.279-0.009,0.279-0.169c0-0.125-0.114-0.161-0.218-0.161H8.323V23.097z"/>
		</g>
		<g id="lionbig_12_" enable-background="new    ">
			<g>
				<path fill="#D2D2D2" d="M5.659,28.254c-0.03,0.08-0.078-0.03-0.125-0.036C5.572,28.176,5.615,28.25,5.659,28.254z"/>
				<path fill="#D2D2D2" d="M5.244,28.428c0,0.007,0,0.017,0,0.023c-0.02,0.004-0.032,0-0.042-0.007
					C5.209,28.431,5.224,28.426,5.244,28.428z"/>
				<path fill="#D2D2D2" d="M1.693,22.437c0.022,0,0.044,0,0.066,0c0.03,0.049-0.009,0.113,0.025,0.157
					c0.061,0.021,0.111-0.02,0.15-0.05c0.039-0.029,0.086-0.064,0.107-0.107c0.038,0,0.078,0,0.116,0
					c0.003,0.049,0.035,0.137,0.058,0.189c-0.021,0.092-0.104,0.161-0.075,0.273c0.151,0.035,0.091-0.17,0.157-0.256
					c0.037-0.045,0.068-0.045,0.109-0.084c0.015-0.05,0.055-0.072,0.066-0.125c0.039,0,0.077,0,0.116,0
					c0.045,0.219,0.492,0.035,0.598,0.19c0.003,0.04-0.034,0.038-0.026,0.085c0.112,0.084,0.289,0.089,0.433,0.141
					c0.085,0.03,0.192,0.082,0.215,0.174c-0.057,0.035-0.139-0.004-0.141,0.066c-0.001,0.051,0.136,0.096,0.184,0.133
					c0.088,0.07,0.158,0.172,0.189,0.232c-0.01,0.045-0.108,0.002-0.125,0.041c-0.074,0.258,0.166,0.387,0.157,0.607
					c-0.08-0.01-0.12-0.105-0.198-0.043c-0.057,0.129,0.09,0.25,0.108,0.381c0.009,0.082,0.003,0.199-0.058,0.242
					c-0.06-0.015-0.035-0.109-0.108-0.109C3.72,24.624,3.8,24.722,3.798,24.824c0,0.052-0.035,0.213-0.091,0.208
					c-0.056-0.006-0.032-0.139-0.107-0.133c-0.083,0.008-0.049,0.168-0.124,0.182c-0.033,0.027-0.041-0.025-0.084-0.016
					c-0.028,0.028,0.013,0.078,0,0.092c-0.041-0.006-0.068-0.068-0.108-0.025c0.033,0.065,0.027,0.114,0.016,0.174
					c0.036,0.092,0.138,0.114,0.209,0.143c0.413,0.158,0.646,0.486,0.888,0.854c0.097,0.146,0.168,0.33,0.29,0.398
					c0.095,0.052,0.294,0.074,0.482,0.091c0.25,0.022,0.48,0.04,0.73,0.051c0.208,0.009,0.435-0.009,0.63,0
					c0.165,0.007,0.293,0.013,0.332-0.132c0.04-0.15,0.014-0.404-0.049-0.491c-0.085-0.114-0.269-0.249-0.39-0.35
					c-0.334-0.274-0.669-0.509-1.037-0.788c-0.062-0.046-0.176-0.124-0.191-0.174c-0.024-0.078,0.007-0.223,0.007-0.324
					c0-0.486-0.029-1.1-0.007-1.575c0.007-0.169-0.024-0.294,0.066-0.39c0.628-0.059,1.291-0.012,1.909,0
					c0.03,0.029,0.09,0.031,0.108,0.074c0.012,0.336-0.024,0.717,0,1.062c0.039,0.05,0.095,0.031,0.132,0.074
					c0.024,0.026,0.005,0.08,0.058,0.092c0,0.067,0,0.138,0,0.207c-0.006,0-0.012,0-0.018,0c-0.009,0.22-0.222,0.299-0.298,0.447
					c-0.02,0.036-0.033,0.09-0.033,0.133c0.002,0.212,0.195,0.276,0.256,0.458c-0.21,0.029-0.449-0.163-0.514-0.357
					c-0.021-0.065-0.009-0.134-0.067-0.142c-0.088-0.011-0.11,0.13-0.141,0.207c-0.104-0.035-0.141-0.229-0.108-0.363
					c0.013-0.051,0.062-0.083,0.033-0.125c-0.124-0.044-0.164,0.11-0.257,0.099c-0.054-0.282,0.157-0.43,0.349-0.539
					c0.081-0.047,0.263-0.109,0.291-0.174c0.02-0.047,0.018-0.17,0.016-0.217c0-0.216-0.031-0.488-0.034-0.712
					c-0.06-0.008-0.088,0.039-0.149,0.05c-0.368,0.059-0.816-0.068-1.178-0.017c-0.037,0.054-0.022,0.131-0.024,0.198
					c-0.02,0.451-0.064,0.933-0.06,1.419c0.145,0.131,0.309,0.241,0.465,0.373c0.371,0.312,0.748,0.624,1.137,0.954
					c0.091,0.078,0.196,0.146,0.208,0.266c0.02,0.203-0.016,0.464-0.008,0.688c0.006,0.168,0.048,0.341-0.017,0.481
					c-0.194,0.009-0.413,0.058-0.605,0.019c-0.024-0.061-0.043-0.159-0.134-0.143c-0.027,0.066,0.073,0.078,0.092,0.124
					c-0.129,0.03-0.141-0.088-0.232-0.075c-0.08,0.012-0.06,0.094-0.092,0.176c-0.025,0.065-0.069,0.11-0.067,0.158
					c0.008,0.09,0.122,0.182,0.2,0.189c0.047,0.005,0.141-0.016,0.233-0.023c0.091-0.01,0.187,0,0.249-0.01
					c0.143-0.02,0.353-0.113,0.423,0c0.062,0.102-0.016,0.312,0,0.439c0.006,0.057,0.051,0.074,0.008,0.133
					c-0.104,0.008-0.07-0.123-0.174-0.115c-0.005,0.094,0.049,0.182,0.091,0.258c0.044,0.074,0.092,0.158,0.158,0.207
					c0,0.021,0,0.043,0,0.066c-0.137,0.049-0.174-0.167-0.298-0.076c-0.002,0.068,0.054,0.105,0.083,0.158
					c0.034,0.061,0.104,0.172,0.09,0.249c-0.007,0.046-0.045,0.044-0.049,0.091c-0.006,0.057,0.086,0.154,0.082,0.234
					c-0.001,0.045-0.038,0.092-0.082,0.088c-0.065-0.002-0.068-0.144-0.133-0.156c-0.044-0.01-0.153,0.039-0.233,0.068
					c-0.148,0.053-0.475,0.188-0.672,0.082c-0.07-0.039-0.089-0.142-0.149-0.144c-0.086,0-0.102,0.146-0.132,0.183
					c-0.027,0.028-0.115-0.002-0.117,0.053c-0.065,0-0.132,0-0.198,0c-0.125-0.184,0.133-0.254,0.174-0.398
					c-0.215-0.068-0.231,0.229-0.349,0.331c-0.03,0.027-0.08,0.019-0.082,0.067c-0.042,0-0.084,0-0.126,0c0-0.006,0-0.012,0-0.019
					c-0.126-0.012-0.139-0.145-0.065-0.239c0.055-0.073,0.192-0.052,0.208-0.142c-0.17-0.211-0.261,0.149-0.365,0.298
					c-0.031,0.045-0.081,0.057-0.091,0.102c-0.042,0-0.083,0-0.125,0c-0.058-0.062-0.066-0.174-0.017-0.275
					c0.11-0.23,0.474-0.39,0.838-0.39c0.333,0.002,0.628,0.105,0.863,0.166c0.032,0.038,0.074,0.058,0.099,0.108
					c0.016,0.03,0.002,0.1,0.06,0.1c0.069-0.088-0.06-0.174-0.067-0.266c0.111-0.068,0.133,0.12,0.24,0.082
					c0.006-0.078-0.107-0.078-0.075-0.156c0.083,0.006,0.096,0.115,0.174,0.1c0.04-0.07-0.049-0.068-0.042-0.134
					c0.005-0.042,0.089-0.007,0.084-0.058c-0.032-0.062-0.21-0.017-0.191-0.101c0.024-0.031,0.107-0.004,0.132-0.033
					c-0.009-0.104-0.21-0.012-0.208-0.125c0.06-0.026,0.146,0.029,0.191-0.008c0.021-0.126-0.179-0.032-0.191-0.125
					c0.041-0.062,0.158,0.049,0.224-0.017c-0.031-0.074-0.177-0.032-0.199-0.116c0.057-0.062,0.161,0.065,0.208-0.009
					c-0.004-0.073-0.088-0.065-0.142-0.09c-0.034-0.021-0.038-0.096-0.099-0.102c-0.071-0.004-0.171,0.119-0.265,0.143
					c-0.176,0.039-0.383,0.035-0.465,0.133c-0.001,0.072,0.123,0.021,0.132,0.082c-0.069,0.062-0.293,0.047-0.315-0.041
					c-0.007-0.032,0.031-0.043,0.007-0.065c-0.063-0.041-0.129-0.082-0.198-0.117c-0.031-0.047-0.056-0.1-0.116-0.116
					c-0.029,0.006-0.018,0.051-0.042,0.061c-0.037-0.004-0.025-0.057-0.082-0.043c-0.03,0.135,0.144,0.136,0.183,0.232
					c-0.01,0.035-0.042,0.047-0.042,0.092c0.015,0.057,0.112,0.053,0.1,0.115c-0.02,0.102-0.315,0.016-0.348-0.039
					c0.036-0.007,0.087,0.004,0.083-0.045c-0.016-0.017-0.05-0.017-0.083-0.015c-0.057-0.062-0.146-0.088-0.208-0.144
					c-0.037-0.03-0.056-0.102-0.116-0.082c0.017,0.115,0.149,0.115,0.191,0.207c-0.119,0.011-0.071,0.102-0.05,0.158
					c-0.187-0.029-0.346-0.156-0.506-0.24c-0.185-0.123-0.278-0.424-0.166-0.696c0.063-0.152,0.224-0.317,0.356-0.392
					c0.048-0.026,0.118-0.026,0.117-0.1c-0.159-0.1-0.287,0.148-0.432,0.041c-0.083,0.161-0.181,0.352-0.357,0.393
					c0.047-0.125,0.21-0.218,0.175-0.367c-0.114,0.037-0.14,0.164-0.2,0.259c-0.076,0.046-0.125,0.203-0.232,0.166
					c0.05-0.14,0.276-0.218,0.266-0.416c-0.072-0.013-0.094,0.071-0.124,0.116c-0.064,0.092-0.128,0.177-0.217,0.248
					c-0.032,0.029-0.084,0.097-0.14,0.06c0.029-0.078,0.117-0.135,0.182-0.208c0.06-0.066,0.145-0.145,0.133-0.249
					c-0.097,0.007-0.136,0.121-0.191,0.199c-0.053,0.073-0.132,0.166-0.191,0.217c-0.023,0.021-0.087,0.073-0.132,0.033
					c0.088-0.17,0.317-0.243,0.324-0.466c-0.088-0.004-0.13,0.111-0.184,0.183c-0.052,0.072-0.109,0.151-0.173,0.199
					C3.36,27.56,3.247,27.64,3.195,27.567c0.06-0.062,0.148-0.129,0.223-0.198c0.065-0.06,0.179-0.138,0.135-0.231
					c-0.084-0.009-0.089,0.09-0.126,0.141c-0.049,0.066-0.145,0.146-0.216,0.199c-0.066,0.051-0.172,0.162-0.257,0.084
					c0.13-0.113,0.286-0.248,0.416-0.384c0.032-0.032,0.123-0.09,0.057-0.147c-0.071,0.019-0.052,0.074-0.091,0.125
					c-0.068,0.084-0.26,0.234-0.382,0.289c-0.118,0.056-0.346,0.09-0.341-0.074c0.004-0.074,0.146-0.184,0.208-0.107
					c0.019,0.055-0.074,0.062-0.076,0.125C2.983,27.36,3.16,27.202,3.253,27c-0.089-0.037-0.12-0.178-0.084-0.315
					c0.043-0.166,0.194-0.308,0.24-0.432c-0.14-0.068-0.193,0.145-0.265,0.225c-0.013,0.09-0.058,0.152-0.083,0.266
					c-0.024,0.107,0.019,0.222,0,0.314c-0.017,0.096-0.102,0.182-0.182,0.19c-0.006-0.063,0.054-0.062,0.049-0.123
					c-0.12-0.045-0.205,0.079-0.282,0.132c-0.042,0.008-0.113,0.065-0.142,0.01c-0.002-0.08,0.067-0.091,0.125-0.066
					c0.011-0.043,0.088-0.059,0.108-0.158c0.028-0.143-0.036-0.365-0.125-0.232c0.077,0.094,0.095,0.287-0.032,0.34
					c-0.089-0.143-0.148,0.002-0.274,0.06c-0.098,0.045-0.182,0.076-0.299,0.041c0.004-0.053,0.058-0.058,0.058-0.115
					c-0.094-0.057-0.188,0.084-0.266,0.017c-0.026-0.078,0.076-0.143,0.008-0.183c-0.086-0.013-0.033,0.134-0.115,0.148
					c-0.028,0.006-0.055-0.028-0.1-0.041c-0.055-0.017-0.13,0-0.174-0.007c-0.065-0.014-0.122-0.075-0.174-0.075
					c-0.126,0-0.217,0.176-0.166,0.34c-0.046,0.121-0.458,0.083-0.474-0.05c-0.02-0.159,0.173-0.225,0.267-0.301
					c0.054,0,0.089-0.02,0.098-0.063c-0.211-0.127-0.358,0.353-0.546,0.373c-0.059,0.005-0.107-0.019-0.118-0.06
					c-0.034-0.135,0.151-0.323,0.292-0.313c-0.034-0.157-0.176,0.007-0.215,0.049C0.298,27.094,0.209,27.337,0,27.233
					c0-0.068,0-0.137,0-0.207c0.005,0,0.011,0,0.017,0c0.09-0.162,0.194-0.301,0.407-0.324c0.109-0.014,0.227,0.031,0.339,0
					c0.03-0.01,0.062-0.043,0.099-0.051c0.134-0.024,0.276,0.021,0.39,0c0.224-0.041,0.372-0.238,0.589-0.267
					c0.083-0.008,0.21,0.021,0.291-0.016c0.009-0.082-0.053-0.144-0.066-0.241c-0.014-0.104,0.055-0.303-0.042-0.314
					c-0.116-0.015-0.104,0.256-0.083,0.364c-0.042,0.062-0.232,0.103-0.298,0.034c0.05-0.052,0.169-0.023,0.157-0.107
					c-0.011-0.086-0.119-0.021-0.165-0.043c-0.007-0.093,0.118-0.054,0.133-0.123c-0.004-0.043,0.015-0.109-0.034-0.107
					c-0.072,0.021-0.025,0.162-0.132,0.148c-0.03-0.047,0.053-0.104,0-0.148c-0.017,0-0.033,0-0.05,0
					c-0.002,0.138-0.15,0.253-0.316,0.23c-0.053-0.006-0.126-0.041-0.124-0.082c0.004-0.084,0.223-0.052,0.175-0.183
					c-0.013-0.047-0.115-0.002-0.125-0.051c0.017-0.062,0.208-0.134,0.074-0.19c-0.071,0.082-0.104,0.2-0.247,0.209
					c-0.08-0.134,0.242-0.138,0.115-0.267c-0.057,0.008-0.043,0.09-0.092,0.142c-0.068,0.071-0.304,0.158-0.305,0.008
					c0.035-0.027,0.142,0.024,0.149-0.049c0.009-0.097-0.182-0.047-0.275-0.06c-0.124-0.017-0.39-0.084-0.364-0.183
					c0.029-0.109,0.195,0.017,0.265-0.059c-0.007-0.203-0.33-0.091-0.382-0.25c0.009-0.059,0.11-0.074,0.126-0.141
					c0.011-0.055-0.042-0.133-0.051-0.207c-0.028-0.225,0.087-0.512,0-0.697C0.149,23.952,0.03,23.885,0,23.854
					c0-0.052,0-0.104,0-0.155c0.041-0.011,0.057-0.044,0.083-0.067C0.061,23.608,0.039,23.586,0,23.581c0-0.055,0-0.109,0-0.164
					c0.061-0.031,0.125-0.023,0.199-0.01c-0.021-0.078-0.208-0.104-0.167-0.207c0.026-0.061,0.121-0.023,0.199-0.023
					c0.239,0.111,0.478,0.357,0.374,0.695c-0.019,0.061-0.107,0.119-0.117,0.191c-0.028,0.231,0.185,0.362,0.133,0.613
					c0.208,0.211,0.607,0.311,0.896,0.475c0.11,0.061,0.25,0.217,0.407,0.166c0.123-0.041,0.266-0.383,0.291-0.615
					c0.021-0.194-0.104-0.4-0.25-0.414c-0.126-0.014-0.175,0.074-0.307,0.09c-0.047-0.027-0.106-0.043-0.099-0.105
					c0.009-0.096,0.289-0.17,0.356-0.217c0.049-0.033,0.133-0.115,0.125-0.199c-0.011-0.104-0.17-0.153-0.266-0.125
					c-0.06,0.021-0.135,0.099-0.207,0.158c-0.056,0.047-0.154,0.137-0.232,0.123c-0.045-0.006-0.102-0.086-0.101-0.141
					c0.002-0.062,0.08-0.086,0.06-0.141c-0.067-0.004-0.074,0.088-0.142,0.059c-0.023-0.1,0.06-0.174,0.125-0.232
					c0.065-0.061,0.155-0.106,0.208-0.174c0.088-0.115,0.095-0.262,0.215-0.35c0.127,0.094,0.262,0,0.399,0.023
					c0.03,0.008,0.075,0.063,0.125,0.061c0.055-0.006,0.192-0.162,0.231-0.24c0.034-0.068,0.039-0.209,0.157-0.166
					c0.024,0.007,0.046,0.053,0.05,0.082c0.025,0.166-0.122,0.279-0.174,0.373c0.256,0.252,0.654,0.584,0.648,1.078
					c-0.003,0.236-0.112,0.463-0.232,0.59c-0.032,0.033-0.114,0.057-0.092,0.125c0.115,0.029,0.227-0.082,0.298-0.166
					c0.13-0.15,0.208-0.343,0.217-0.613c0.067,0.047,0.142,0.004,0.208,0.024c0.109,0.032,0.133,0.19,0.248,0.19
					c-0.046-0.108-0.343-0.455-0.471-0.25c-0.017-0.16-0.061-0.252-0.125-0.397c-0.03-0.063-0.125-0.187-0.116-0.241
					c0.007-0.045,0.122-0.121,0.183-0.132c0.13-0.026,0.21,0.077,0.306,0.075c-0.047-0.137-0.347-0.207-0.489-0.135
					c-0.039,0.021-0.065,0.082-0.108,0.084c-0.059,0.002-0.136-0.101-0.166-0.125c-0.056-0.045-0.123-0.07-0.158-0.133
					c0.044-0.104,0.128-0.181,0.134-0.308c0.007-0.2-0.247-0.317-0.349-0.149c-0.052,0.088-0.045,0.192-0.125,0.258
					c-0.095,0.08-0.342,0.049-0.498,0.092c-0.058-0.039-0.13-0.105-0.182-0.174c-0.044-0.06-0.13-0.157-0.074-0.233
					c0.148,0.034,0.134,0.269,0.273,0.282c0.028-0.053-0.063-0.104-0.092-0.174c-0.014-0.032-0.01-0.072-0.025-0.1
					c-0.017-0.031-0.081-0.056-0.083-0.092C1.615,22.489,1.686,22.495,1.693,22.437z M1.983,22.918
					c0.046-0.062-0.021-0.209,0.041-0.282C1.915,22.62,1.874,22.875,1.983,22.918z M2.887,22.776
					c0.046-0.002,0.088-0.012,0.141-0.008C3.044,22.698,2.858,22.692,2.887,22.776z M3.07,22.869
					c-0.091-0.003-0.231,0.019-0.224,0.116c0.055,0.035,0.099-0.023,0.149-0.033c0.144-0.028,0.268,0.053,0.38,0.074
					C3.376,22.917,3.194,22.872,3.07,22.869z M3.461,23.067c0.011,0.014,0.046,0.026,0.065,0.009
					C3.539,23.009,3.46,23.019,3.461,23.067z M2.805,23.19c0.004,0.029,0.021,0.047,0.025,0.076
					c0.026,0.004,0.045,0.016,0.075,0.018c0.052-0.033,0.032-0.076,0.082-0.107c0.085-0.056,0.237,0.018,0.299-0.068
					C3.137,23.047,2.857,23.043,2.805,23.19z M3.435,23.159c-0.008,0.07,0.056,0.066,0.107,0.074
					c0.033,0.035,0.046,0.093,0.116,0.092C3.673,23.216,3.522,23.163,3.435,23.159z M1.65,23.383
					c-0.003,0.06,0.003,0.104,0.034,0.134c0.122,0.006,0.135-0.099,0.157-0.191C1.764,23.297,1.692,23.347,1.65,23.383z
					 M3.734,23.392c0.024,0.006,0.025,0.006,0.049,0C3.794,23.342,3.728,23.354,3.734,23.392z M0.456,23.647
					c-0.052-0.084-0.167-0.236-0.24-0.215c0.066,0.062,0.165,0.133,0.182,0.24c0.006,0.034-0.029,0.076,0.009,0.105
					c0.014,0,0.027,0,0.042,0C0.482,23.752,0.453,23.696,0.456,23.647z M3.161,23.54c-0.042,0.166,0.15,0.043,0.283,0.066
					c0.066,0.012,0.083,0.057,0.132,0.041c0.051,0.02,0.124,0.104,0.167,0.074C3.651,23.586,3.412,23.524,3.161,23.54z
					 M0.282,23.838c-0.048-0.101-0.081-0.228-0.19-0.185c0.055,0.043,0.116,0.078,0.14,0.16c0.021,0.062-0.009,0.154,0.05,0.197
					C0.379,23.976,0.321,23.92,0.282,23.838z M3.536,23.739c-0.111-0.018-0.292,0.031-0.241,0.133
					c0.076,0.066,0.146-0.041,0.248-0.041c0.12,0.001,0.166,0.111,0.275,0.083C3.802,23.849,3.655,23.756,3.536,23.739z
					 M6.979,24.013c0.026,0,0.064,0.008,0.058-0.023C7.02,23.956,6.951,23.976,6.979,24.013z M6.879,24.063
					c-0.001,0.014-0.022,0.006-0.017,0.024c-0.012,0.131-0.145,0.144-0.191,0.24C6.773,24.323,7.011,24.17,6.879,24.063z
					 M6.555,24.278c0.066-0.021,0.129-0.086,0.108-0.166C6.583,24.124,6.582,24.214,6.555,24.278z M6.721,24.419
					c0.126-0.016,0.229-0.054,0.265-0.156C6.893,24.276,6.804,24.366,6.721,24.419z M7.112,24.319
					c0.032,0.004,0.044-0.017,0.041-0.049c-0.009-0.006-0.023-0.012-0.041-0.008C7.099,24.272,7.099,24.31,7.112,24.319z
					 M3.401,24.313c-0.038,0.026-0.038,0.094,0,0.123c0.157,0,0.153,0.164,0.241,0.231C3.676,24.521,3.499,24.358,3.401,24.313z
					 M6.763,24.521c0.079,0.002,0.244-0.021,0.233-0.109C6.902,24.433,6.831,24.474,6.763,24.521z M3.418,24.76
					c0.009-0.065-0.018-0.163-0.117-0.149C3.284,24.688,3.362,24.733,3.418,24.76z M3.237,24.785
					c0.058,0.038,0.072,0.121,0.133,0.157c0.046-0.071-0.035-0.207-0.126-0.225C3.231,24.729,3.237,24.76,3.237,24.785z
					 M0.473,24.868c-0.05-0.029-0.082-0.078-0.141-0.1C0.304,24.834,0.43,24.926,0.473,24.868z M3.169,24.819
					c-0.089,0.024,0.054,0.231,0.108,0.24C3.317,25,3.231,24.799,3.169,24.819z M5.459,24.976c0-0.05-0.023-0.076-0.066-0.082
					C5.37,24.935,5.408,24.983,5.459,24.976z M3.028,24.95c0.012,0.074,0.073,0.1,0.083,0.175c0.02,0.007,0.058,0.017,0.075,0
					C3.187,25.051,3.127,24.899,3.028,24.95z M0.34,24.95c-0.003,0.012-0.009,0.016,0,0.025C0.375,24.989,0.448,25.078,0.473,25
					C0.427,24.989,0.397,24.924,0.34,24.95z M5.602,25.083c0.018-0.003,0.002-0.041,0.006-0.057c-0.01-0.008-0.029-0.008-0.04-0.019
					C5.544,25.037,5.573,25.106,5.602,25.083z M5.783,25.242c0.024-0.054-0.019-0.108-0.075-0.108
					C5.688,25.183,5.729,25.239,5.783,25.242z M3.161,25.299c0.011,0.013,0.041,0.013,0.05,0c-0.001-0.022-0.014-0.034-0.042-0.032
					C3.167,25.278,3.159,25.282,3.161,25.299z M5.975,25.399c0.006-0.039-0.026-0.106-0.083-0.107
					C5.874,25.344,5.914,25.397,5.975,25.399z M0.688,25.424c0.042,0.007,0.054-0.019,0.05-0.059c-0.011,0-0.018-0.005-0.026-0.009
					C0.696,25.371,0.683,25.388,0.688,25.424z M0.763,25.491c0.053-0.012,0.095-0.032,0.109-0.084
					c-0.011-0.004-0.015-0.008-0.017-0.016C0.793,25.394,0.781,25.446,0.763,25.491z M6.131,25.457
					c-0.005,0.002-0.009,0.008-0.007,0.017c-0.02,0.039,0.016,0.096,0.075,0.082C6.194,25.508,6.167,25.448,6.131,25.457z
					 M3.427,25.522c-0.016,0.029-0.01,0.062,0.008,0.093c0.012-0.001,0.018,0.005,0.026,0.008
					C3.602,25.592,3.491,25.413,3.427,25.522z M6.382,25.697c0.021-0.046-0.017-0.097-0.067-0.099
					C6.29,25.647,6.33,25.697,6.382,25.697z M1.352,25.754c0.053-0.005,0.078-0.043,0.083-0.098
					C1.381,25.571,1.312,25.678,1.352,25.754z M3.627,25.772c0.02,0.008,0.044,0.011,0.075,0.008
					c0.016-0.021,0.019-0.053,0.016-0.09C3.661,25.661,3.617,25.708,3.627,25.772z M6.572,25.871
					c0.042-0.052-0.004-0.132-0.058-0.14C6.482,25.778,6.529,25.849,6.572,25.871z M1.394,25.946
					c0.047-0.014,0.082-0.039,0.076-0.106C1.398,25.797,1.392,25.917,1.394,25.946z M1.833,26.004
					c0.038-0.026,0.085-0.076,0.059-0.142C1.802,25.829,1.78,25.978,1.833,26.004z M6.729,25.979
					c0.013-0.037,0.001-0.103-0.041-0.108c-0.006,0-0.012,0-0.017,0C6.654,25.914,6.67,25.987,6.729,25.979z M3.942,25.921
					c-0.015-0.087-0.151-0.013-0.084,0.074C3.915,25.996,3.948,25.959,3.942,25.921z M6.896,26.128
					c0.019-0.042-0.012-0.087-0.058-0.091C6.813,26.082,6.852,26.125,6.896,26.128z M4.041,26.087
					c-0.026,0.025-0.017,0.079,0.009,0.1c0.044-0.006,0.075-0.023,0.075-0.074C4.106,26.091,4.075,26.069,4.041,26.087z
					 M2.714,26.552c0.013,0.016,0.033,0.021,0.065,0.018c0.017-0.022,0.013-0.079-0.007-0.092
					C2.728,26.478,2.71,26.505,2.714,26.552z M2.498,26.661c0.023,0.021,0.078,0.021,0.1,0c0-0.016,0-0.028,0-0.041
					C2.57,26.575,2.475,26.573,2.498,26.661z M2.331,26.719c0.037,0.003,0.057-0.012,0.058-0.043
					c-0.013-0.014-0.035-0.021-0.065-0.016C2.312,26.687,2.319,26.698,2.331,26.719z M2.116,26.776
					c0.019,0.018,0.064,0.011,0.058-0.023C2.165,26.711,2.102,26.726,2.116,26.776z M2.796,27c0.087-0.013,0.094-0.185,0.067-0.258
					C2.761,26.747,2.788,26.915,2.796,27z M1.9,26.834c0.025,0.021,0.043,0.01,0.065-0.008c0.002-0.021-0.013-0.025-0.016-0.041
					C1.913,26.78,1.896,26.796,1.9,26.834z M3.553,26.884c0.031,0.006,0.042,0.01,0.064-0.009
					C3.641,26.774,3.504,26.81,3.553,26.884z M1.726,26.868c0.016,0.017,0.034,0.02,0.059,0.008
					c0.002-0.027-0.013-0.043-0.042-0.041C1.742,26.851,1.719,26.845,1.726,26.868z M2.48,27.034
					c0.069-0.01,0.087-0.111,0.066-0.184C2.458,26.806,2.463,26.999,2.48,27.034z M2.307,26.909c0.04,0.066-0.015,0.167,0.017,0.217
					C2.466,27.133,2.42,26.787,2.307,26.909z M3.875,26.976c0.023-0.013,0.037-0.035,0.033-0.074
					C3.858,26.833,3.802,26.97,3.875,26.976z M4.065,26.983c0.036-0.004,0.032-0.076,0.008-0.092
					C4.018,26.877,4.017,26.989,4.065,26.983z M3.702,26.942c0-0.012,0-0.022,0-0.033c-0.01,0-0.017,0-0.026,0
					C3.673,26.931,3.679,26.944,3.702,26.942z M1.883,27.075c0.08,0.033,0.147-0.082,0.1-0.149
					C1.892,26.918,1.908,27.019,1.883,27.075z M2.132,26.942c-0.012,0.07,0.041,0.074,0.042,0.133
					c-0.003,0.045-0.062,0.059-0.034,0.107C2.271,27.179,2.268,26.879,2.132,26.942z M4.19,27.026
					c0.033-0.002,0.048-0.02,0.05-0.051C4.215,26.907,4.142,26.979,4.19,27.026z M3.485,26.976c0.019,0.002,0.032-0.002,0.033-0.017
					c-0.011-0.004-0.017-0.012-0.033-0.01C3.485,26.959,3.485,26.967,3.485,26.976z M4.323,27.017c0.015,0.022,0.068,0.022,0.083,0
					C4.425,26.933,4.31,26.952,4.323,27.017z M3.602,27.084c0.012-0.002,0.014-0.015,0.025-0.017
					C3.634,26.959,3.511,27.067,3.602,27.084z M3.783,27.091c0.012-0.001,0.015-0.013,0.025-0.017
					C3.817,26.968,3.693,27.075,3.783,27.091z M3.975,27.091C3.987,27.09,3.989,27.079,4,27.075
					C4.008,26.968,3.882,27.073,3.975,27.091z M4.273,27.125c0.034,0.002,0.057-0.004,0.058-0.034
					c-0.004-0.011-0.012-0.021-0.017-0.033C4.263,27.042,4.254,27.099,4.273,27.125z M4.465,27.108c0.013,0.012,0.061,0.012,0.074,0
					C4.553,27.039,4.457,27.053,4.465,27.108z M4.098,27.142c0.035,0.004,0.059-0.004,0.059-0.033c0-0.012-0.011-0.012-0.007-0.023
					C4.101,27.053,4.062,27.108,4.098,27.142z M6.837,27.159c-0.037-0.012-0.045-0.049-0.1-0.043
					c-0.009,0.011-0.009,0.029-0.009,0.051c0.048,0.049,0.261,0.077,0.299,0.008c0.02,0.008,0.058,0.018,0.075,0
					c0.006-0.039-0.018-0.048-0.05-0.049c-0.031-0.002-0.02,0.04-0.05,0.041C6.922,27.163,6.887,27.062,6.837,27.159z M5.825,27.947
					c0.021,0.02,0.073,0.024,0.075-0.017C5.905,27.881,5.799,27.881,5.825,27.947z M5.452,28.004
					c0.021-0.007,0.072,0.017,0.066-0.019C5.544,27.901,5.361,27.913,5.452,28.004z M5.618,27.997c0.013,0,0.028,0,0.042,0
					c0.02-0.028,0.005-0.079-0.034-0.074C5.611,27.942,5.604,27.968,5.618,27.997z M5.276,28.021
					c0.006-0.017,0.023-0.023,0.017-0.049C5.237,27.908,5.176,28.034,5.276,28.021z M5.021,28.015c0.025,0.012,0.043,0.016,0.065,0
					c0.005-0.043-0.018-0.058-0.058-0.052C5.019,27.974,5.019,27.991,5.021,28.015z M4.92,28.054c0.011,0,0.022,0,0.034,0
					c0.012-0.013,0.012-0.054,0-0.066C4.909,27.976,4.902,28.03,4.92,28.054z M6.298,28.021c-0.064,0-0.128-0.043-0.183-0.023
					c-0.007,0.001-0.01,0.006-0.008,0.018c0.006,0.06,0.121,0.01,0.142,0.058c-0.127,0.104-0.292-0.048-0.392-0.05
					c0.006,0.101,0.212,0.162,0.333,0.148c0.098-0.012,0.142-0.074,0.191-0.115c0.036,0.002,0.066,0,0.065-0.033
					C6.418,27.972,6.354,28.021,6.298,28.021z M4.763,28.015c-0.004,0.028,0.006,0.047,0.033,0.047
					c0.019-0.008,0.029-0.021,0.025-0.047C4.81,28,4.775,28,4.763,28.015z M5.625,28.129c0.034,0.019,0.076,0.029,0.1,0.06
					c0.097-0.015,0.211,0.143,0.266,0.016c-0.084-0.023-0.172-0.045-0.258-0.066c-0.029-0.033-0.06-0.066-0.116-0.074
					C5.614,28.09,5.622,28.108,5.625,28.129z M5.211,28.229c-0.029-0.039-0.081-0.095-0.142-0.076
					c0.013,0.106,0.193,0.154,0.299,0.168C5.372,28.233,5.26,28.263,5.211,28.229z M7.037,28.237
					c0.036,0.004,0.058-0.004,0.049-0.043C7.045,28.19,7.02,28.206,7.037,28.237z M4.821,28.263
					c0.058,0.045,0.077,0.133,0.166,0.148c0.028-0.049-0.018-0.084-0.059-0.092c-0.028-0.045-0.039-0.105-0.1-0.116
					C4.827,28.224,4.815,28.235,4.821,28.263z M7.044,28.51c0-0.011,0-0.022,0-0.03c-0.011,0-0.021,0-0.033,0
					C7.005,28.506,7.016,28.517,7.044,28.51z"/>
				<path fill="#D2D2D2" d="M2.373,29.491c-0.075,0-0.148,0-0.225,0c-0.007-0.053-0.052-0.043-0.057-0.092
					c-0.006-0.06,0.07-0.187,0.133-0.232c0.034-0.025,0.088-0.027,0.082-0.074c-0.22-0.099-0.26,0.182-0.308,0.34
					c-0.014,0.024-0.058,0.019-0.058,0.06c-0.041,0-0.083,0-0.124,0c0-0.007,0-0.013,0-0.019c-0.268-0.002-0.097-0.312,0.024-0.355
					c0.067-0.024,0.148-0.01,0.141-0.075c-0.011-0.112-0.193,0.004-0.241,0.051c-0.076,0.07-0.13,0.183-0.166,0.289
					c-0.048,0.07-0.227,0.06-0.281,0c-0.013-0.252,0.252-0.414,0.464-0.497c0.041-0.016,0.135-0.005,0.207-0.009
					c0.148-0.007,0.315-0.017,0.49-0.022c0.265-0.015,0.552,0.008,0.771-0.019c0.209-0.024,0.247-0.267,0.407-0.366
					c0.128-0.076,0.311-0.104,0.448-0.189c0.051-0.031,0.094-0.105,0.133-0.107c0.094-0.007,0.163,0.146,0.133,0.266
					c0.028,0.024,0.05,0.01,0.091,0.01c0.105,0.087,0.54,0.205,0.267,0.373c-0.044-0.039-0.041-0.121-0.09-0.153
					C4.455,28.687,4.507,28.911,4.423,29c-0.101-0.013-0.024-0.203-0.117-0.226C4.25,28.792,4.175,28.913,4.15,29
					c-0.017,0.058,0.001,0.162-0.052,0.174c-0.094,0.021-0.026-0.153-0.14-0.133c-0.018,0.056,0.08,0.229-0.042,0.231
					c-0.026,0.002-0.043-0.035-0.081-0.059c-0.116-0.061-0.342-0.035-0.507-0.049c-0.043-0.004-0.083-0.021-0.125-0.018
					c-0.169,0.021-0.254,0.318-0.406,0.308c-0.074-0.006-0.12-0.138-0.199-0.14c-0.046-0.004-0.092,0.047-0.125,0.072
					C2.43,29.424,2.389,29.446,2.373,29.491z M4.224,28.487c-0.005,0.027,0.028,0.029,0.041,0.016
					C4.271,28.476,4.235,28.474,4.224,28.487z M4.248,28.644c-0.107,0.002-0.188,0.075-0.166,0.183
					c0.027,0.002,0.037,0.019,0.068,0.017c0.031-0.135,0.189-0.184,0.198-0.314C4.292,28.542,4.284,28.606,4.248,28.644z
					 M4.423,28.676c0.024-0.041,0.061-0.069,0.065-0.133c-0.01,0-0.01-0.012-0.023-0.008C4.444,28.571,4.376,28.631,4.423,28.676z
					 M4.38,28.728c0.022,0.002,0.022-0.021,0.026-0.035c-0.009,0-0.018,0-0.026,0C4.38,28.704,4.38,28.715,4.38,28.728z
					 M3.958,28.899c0.065-0.006,0.053-0.094,0.065-0.156c-0.009,0-0.01-0.01-0.023-0.008C3.981,28.786,3.927,28.826,3.958,28.899z
					 M3.875,28.992c0.011-0.065,0.046-0.203-0.009-0.239C3.837,28.81,3.79,28.961,3.875,28.992z M3.742,29.042
					c0.027-0.027,0.022-0.136-0.017-0.148C3.695,28.918,3.679,29.039,3.742,29.042z M3.536,28.959c0,0.048,0.021,0.076,0.066,0.082
					c0-0.037,0.017-0.067,0-0.099C3.573,28.928,3.548,28.938,3.536,28.959z"/>
			</g>
		</g>
	</g>
</g>
</svg>
