<?xml version="1.0" encoding="utf-8"?>
<!-- Generator: Adobe Illustrator 15.0.2, SVG Export Plug-In . SVG Version: 6.00 Build 0)  -->
<!DOCTYPE svg PUBLIC "-//W3C//DTD SVG 1.1//EN" "http://www.w3.org/Graphics/SVG/1.1/DTD/svg11.dtd">
<svg version="1.1" id="Layer_1" xmlns="http://www.w3.org/2000/svg" xmlns:xlink="http://www.w3.org/1999/xlink" x="0px" y="0px"
	 width="36.215px" height="35.789px" viewBox="0 0 36.215 35.789" enable-background="new 0 0 36.215 35.789" xml:space="preserve">
<g opacity="0.54">
	<path fill-rule="evenodd" clip-rule="evenodd" fill="#FFFFFF" d="M36.215,1.51c-0.048,0.55-0.248,1.128-0.397,1.716
		c-0.677,2.661-1.277,5.345-2.317,7.898c-0.863,2.111-1.702,4.236-3.047,6.105c-1.02,1.412-2.26,2.626-3.478,3.857
		c-0.112,0.114-0.189,0.129-0.319,0.023c-1.475-1.174-3.094-2.102-4.835-2.815c-0.113-0.046-0.205-0.075-0.154-0.247
		c0.695-2.377,1.307-4.79,2.664-6.91c1.568-2.452,3.338-4.751,5.39-6.821c1.278-1.288,2.604-2.529,3.909-3.791
		c0.144-0.14,0.306-0.255,0.484-0.345C35.134-0.338,36.196,0.304,36.215,1.51z"/>
	<g>
		<path fill="none" d="M19.893,29.102c0.894,0.063,1.656-0.518,1.906-1.382c0.239-0.828-0.115-1.722-0.855-2.161
			c-0.735-0.439-1.708-0.324-2.315,0.27c-0.641,0.627-0.794,1.578-0.303,2.336c0.196,0.302,0.157,0.492,0,0.762
			c-0.973,1.664-2.41,4.158-3.435,5.929c0.113,0.035,0.231,0.061,0.358,0.062c0.213,0.003,0.317,0.058,0.425,0.247
			c0.054,0.094,0.125,0.17,0.2,0.244c1.034-1.798,2.487-4.305,3.461-5.998C19.467,29.18,19.589,29.082,19.893,29.102z"/>
		<path fill="#FFFFFF" d="M24.969,24.452c-1.546-1.253-3.245-2.247-5.112-2.943c-0.346-0.131-0.648-0.034-0.892,0.227
			c-1.089,1.16-2.306,2.155-3.713,2.911c-0.357,0.191-0.501,0.524-0.418,0.923c0.471,2.236,0.304,4.47-0.046,6.701
			c-0.027,0.168-0.093,0.283-0.245,0.389c-0.348,0.24-0.522,0.589-0.512,1.021c0.002,0.556,0.354,1.018,0.859,1.176
			c1.024-1.771,2.462-4.265,3.435-5.929c0.157-0.27,0.196-0.46,0-0.762c-0.491-0.758-0.338-1.709,0.303-2.336
			c0.607-0.594,1.58-0.709,2.315-0.27c0.74,0.439,1.095,1.333,0.855,2.161c-0.25,0.864-1.013,1.445-1.906,1.382
			c-0.304-0.021-0.426,0.078-0.558,0.309c-0.974,1.693-2.427,4.2-3.461,5.998c0.29,0.29,0.712,0.415,1.124,0.321
			c0.555-0.127,0.938-0.536,0.971-1.097c0.013-0.219,0.115-0.333,0.265-0.457c1.729-1.438,3.601-2.633,5.755-3.344
			c0.389-0.127,0.59-0.422,0.576-0.831c-0.056-1.585,0.2-3.122,0.659-4.632C25.336,25.001,25.256,24.684,24.969,24.452z"/>
	</g>
	<path fill-rule="evenodd" clip-rule="evenodd" fill="#FFFFFF" d="M6.285,33.506c0.665-0.678,1.376-1.113,2.22-1.299
		c1-0.219,1.978-0.092,2.936,0.229c0.465,0.156,0.916,0.352,1.349,0.586c0.427,0.234,0.572,0.615,0.378,0.988
		c-0.192,0.371-0.601,0.475-1.026,0.258c-0.745-0.379-1.511-0.684-2.355-0.748c-0.778-0.06-1.479,0.128-2.104,0.605
		c-0.335,0.256-0.68,0.498-1.086,0.633c-0.625,0.209-1.17-0.006-1.477-0.588c-0.233-0.441-0.324-0.926-0.402-1.41
		c-0.047-0.294-0.188-0.363-0.462-0.301c-0.619,0.143-1.097,0.513-1.538,0.936c-0.578,0.559-1.017,1.217-1.351,1.949
		c-0.148,0.322-0.407,0.488-0.763,0.434c-0.318-0.049-0.515-0.254-0.589-0.572c-0.033-0.148-0.003-0.285,0.056-0.41
		c0.655-1.396,1.565-2.576,2.931-3.35c0.348-0.196,0.722-0.324,1.118-0.391c0.988-0.163,1.797,0.401,1.971,1.387
		C6.147,32.772,6.211,33.101,6.285,33.506z"/>
	<path fill-rule="evenodd" clip-rule="evenodd" fill="#FFFFFF" d="M21.066,19.43c0.087,0.029,0.199,0.062,0.307,0.107
		c1.548,0.654,2.992,1.49,4.35,2.48c0.084,0.062,0.169,0.127,0.248,0.196c0.265,0.229,0.312,0.566,0.12,0.81
		c-0.191,0.24-0.534,0.277-0.817,0.066c-0.63-0.467-1.276-0.908-1.952-1.309c-0.798-0.471-1.622-0.885-2.474-1.244
		c-0.295-0.125-0.449-0.338-0.371-0.664C20.545,19.583,20.754,19.456,21.066,19.43z"/>
</g>
</svg>
