<?xml version="1.0" encoding="utf-8"?>
<!-- Generator: Adobe Illustrator 15.0.2, SVG Export Plug-In . SVG Version: 6.00 Build 0)  -->
<!DOCTYPE svg PUBLIC "-//W3C//DTD SVG 1.1//EN" "http://www.w3.org/Graphics/SVG/1.1/DTD/svg11.dtd">
<svg version="1.1" id="Layer_1" xmlns="http://www.w3.org/2000/svg" xmlns:xlink="http://www.w3.org/1999/xlink" x="0px" y="0px"
	 width="33px" height="23px" viewBox="0 0 33 23" enable-background="new 0 0 33 23" xml:space="preserve">
<g>
	<rect fill="#FFFFFF" width="33" height="2"/>
	<rect y="21" fill="#FFFFFF" width="33" height="2"/>
	<g>
		<path fill="#FFFFFF" d="M6.535,15.029v-4.807l-1.879,4.807h-0.62l-1.879-4.807v4.807H0.738V8.363h1.989l1.619,4.168l1.619-4.168
			h1.999v6.667H6.535z"/>
		<path fill="#FFFFFF" d="M10.587,15.029V8.363h4.717v1.25h-3.298v1.399h3.228v1.249h-3.228v1.519h3.298v1.25H10.587z"/>
		<path fill="#FFFFFF" d="M22.315,15.029l-3.179-4.348v4.348h-1.419V8.363h1.459l3.089,4.188V8.363h1.419v6.667H22.315z"/>
		<path fill="#FFFFFF" d="M26.308,12.361V8.363h1.438v3.958c0,0.93,0.541,1.57,1.57,1.57s1.559-0.641,1.559-1.57V8.363h1.449v3.999
			c0,1.648-0.979,2.788-3.008,2.788C27.287,15.149,26.308,14.01,26.308,12.361z"/>
	</g>
</g>
</svg>
