<?xml version="1.0" encoding="utf-8"?>
<!-- Generator: Adobe Illustrator 15.0.2, SVG Export Plug-In . SVG Version: 6.00 Build 0)  -->
<!DOCTYPE svg PUBLIC "-//W3C//DTD SVG 1.1//EN" "http://www.w3.org/Graphics/SVG/1.1/DTD/svg11.dtd">
<svg version="1.1" id="Layer_1" xmlns="http://www.w3.org/2000/svg" xmlns:xlink="http://www.w3.org/1999/xlink" x="0px" y="0px"
	 width="38.377px" height="32.324px" viewBox="0 0 38.377 32.324" enable-background="new 0 0 38.377 32.324" xml:space="preserve">
<path opacity="0.54" fill="#FFFFFF" d="M2.209,16.719l16.807,2.901l0.108,0.017l19.253-10.11V8.394L19.013,18.559l-16.76-2.894
	l0.003-0.011l0.008,0.001c-0.04-0.009-1.333-0.874-1.333-2.925c0-1.745,0.872-2.645,1.26-2.79l15.37,2.37c0,0,1.078,0.19,1.343,0.16
	c0.264-0.03,1.102-0.483,1.102-0.483l18.104-9.004c0.284-0.142,0.26-0.517-0.054-0.566L22.363,0L1.979,9.062
	C1.907,9.09,1.28,9.387,1.108,9.542C0.594,10.005,0,11.08,0,12.479c0,1.524,0.619,3.125,1.047,3.489C0.619,16.332,0,17.154,0,18.678
	c0,1.943,0.619,2.989,1.047,3.354C0.619,22.396,0,23.273,0,24.797c0,2.668,1.047,3.703,2.136,4.027l0.073-0.772l-0.064,0.786
	l16.871,3.47l0.108,0.017l19.253-11.112v-1.133L19.013,31.246l-16.76-3.451l0.003-0.012l0.008,0.002
	c-0.04-0.01-1.333-0.686-1.333-2.736c0-1.797,1.072-2.186,1.278-2.266l16.807,3.103l0.108,0.017l19.253-10.513v-1.133L19.013,24.824
	l-16.76-3.095l0.003-0.011l0.008,0.002c-0.04-0.01-1.333-0.74-1.333-2.791C0.931,17.132,2.003,16.798,2.209,16.719z"/>
</svg>
