<?xml version="1.0" encoding="utf-8"?>
<!-- Generator: Adobe Illustrator 15.0.2, SVG Export Plug-In . SVG Version: 6.00 Build 0)  -->
<!DOCTYPE svg PUBLIC "-//W3C//DTD SVG 1.1//EN" "http://www.w3.org/Graphics/SVG/1.1/DTD/svg11.dtd">
<svg version="1.1" id="Layer_1" xmlns="http://www.w3.org/2000/svg" xmlns:xlink="http://www.w3.org/1999/xlink" x="0px" y="0px"
	 width="17.55px" height="30px" viewBox="0 0 17.55 30" enable-background="new 0 0 17.55 30" xml:space="preserve">
<g>
	<g>
		<path fill="#A9A8A8" d="M7.38,1.44c-0.99,0.6-1.755,1.133-2.295,1.597C4.545,3.503,4.154,3.93,3.915,4.32
			c-0.24,0.39-0.383,0.735-0.428,1.035c-0.045,0.3-0.067,0.569-0.067,0.81c0,0.45,0.21,0.675,0.63,0.675
			c1.92,0,2.88,0.78,2.88,2.341c0,1.979-1.02,2.97-3.06,2.97C1.289,12.15,0,10.71,0,7.83c0-1.71,0.555-3.187,1.665-4.432
			C2.774,2.153,4.365,1.02,6.435,0L7.38,1.44z M17.1,1.44c-0.989,0.6-1.755,1.133-2.295,1.597c-0.54,0.466-0.93,0.894-1.17,1.283
			c-0.24,0.39-0.382,0.735-0.428,1.035c-0.045,0.3-0.067,0.569-0.067,0.81c0,0.45,0.21,0.675,0.63,0.675
			c1.92,0,2.881,0.78,2.881,2.341c0,1.979-1.021,2.97-3.061,2.97c-2.58,0-3.87-1.44-3.87-4.32c0-1.71,0.555-3.187,1.665-4.432
			c1.109-1.245,2.7-2.377,4.771-3.397L17.1,1.44z"/>
	</g>
	<g>
		<path fill="#A9A8A8" d="M0.452,28.56c0.988-0.6,1.754-1.133,2.295-1.597c0.539-0.466,0.93-0.893,1.17-1.283
			c0.24-0.39,0.381-0.734,0.428-1.035c0.045-0.3,0.066-0.569,0.066-0.81c0-0.45-0.209-0.675-0.629-0.675
			c-1.92,0-2.882-0.78-2.882-2.34c0-1.98,1.021-2.971,3.062-2.971c2.58,0,3.869,1.44,3.869,4.32c0,1.71-0.555,3.187-1.664,4.432
			S3.466,28.979,1.395,30L0.452,28.56z M10.17,28.56c0.99-0.6,1.755-1.133,2.295-1.597c0.539-0.466,0.931-0.893,1.17-1.283
			c0.24-0.39,0.383-0.734,0.428-1.035c0.045-0.3,0.066-0.569,0.066-0.81c0-0.45-0.209-0.675-0.629-0.675
			c-1.92,0-2.881-0.78-2.881-2.34c0-1.98,1.021-2.971,3.061-2.971c2.581,0,3.87,1.44,3.87,4.32c0,1.71-0.556,3.187-1.665,4.432
			s-2.7,2.377-4.77,3.397L10.17,28.56z"/>
	</g>
</g>
</svg>
