<?xml version="1.0" encoding="utf-8"?>
<!-- Generator: Adobe Illustrator 15.0.2, SVG Export Plug-In . SVG Version: 6.00 Build 0)  -->
<!DOCTYPE svg PUBLIC "-//W3C//DTD SVG 1.1//EN" "http://www.w3.org/Graphics/SVG/1.1/DTD/svg11.dtd">
<svg version="1.1" id="Layer_1" xmlns="http://www.w3.org/2000/svg" xmlns:xlink="http://www.w3.org/1999/xlink" x="0px" y="0px"
	 width="41.783px" height="12.613px" viewBox="0 0 41.783 12.613" enable-background="new 0 0 41.783 12.613" xml:space="preserve">
<g>
	<g>
		<path fill="#A9A8A8" d="M7.38,1.44c-0.99,0.6-1.755,1.133-2.295,1.597C4.545,3.503,4.154,3.93,3.915,4.32
			c-0.24,0.39-0.383,0.735-0.428,1.035S3.42,5.925,3.42,6.165c0,0.45,0.21,0.675,0.63,0.675c1.92,0,2.88,0.78,2.88,2.34
			c0,1.98-1.02,2.97-3.06,2.97C1.289,12.15,0,10.71,0,7.83c0-1.71,0.555-3.187,1.665-4.432C2.774,2.153,4.365,1.02,6.435,0
			L7.38,1.44z M17.1,1.44c-0.989,0.6-1.755,1.133-2.295,1.597c-0.54,0.466-0.93,0.893-1.17,1.283
			c-0.24,0.39-0.382,0.735-0.428,1.035c-0.045,0.3-0.067,0.57-0.067,0.81c0,0.45,0.21,0.675,0.63,0.675
			c1.92,0,2.881,0.78,2.881,2.34c0,1.98-1.021,2.97-3.061,2.97c-2.58,0-3.87-1.44-3.87-4.32c0-1.71,0.555-3.187,1.665-4.432
			c1.109-1.245,2.7-2.377,4.771-3.397L17.1,1.44z"/>
	</g>
	<g>
		<path fill="#A9A8A8" d="M24.684,11.173c0.989-0.6,1.755-1.133,2.295-1.597c0.54-0.466,0.93-0.893,1.17-1.283
			c0.24-0.39,0.382-0.735,0.428-1.035c0.045-0.3,0.067-0.57,0.067-0.81c0-0.45-0.21-0.675-0.63-0.675c-1.92,0-2.881-0.78-2.881-2.34
			c0-1.98,1.021-2.97,3.061-2.97c2.58,0,3.87,1.44,3.87,4.32c0,1.71-0.555,3.187-1.665,4.432c-1.109,1.245-2.7,2.377-4.771,3.397
			L24.684,11.173z M34.403,11.173c0.99-0.6,1.755-1.133,2.295-1.597c0.54-0.466,0.931-0.893,1.17-1.283
			c0.24-0.39,0.383-0.735,0.428-1.035s0.067-0.57,0.067-0.81c0-0.45-0.21-0.675-0.63-0.675c-1.92,0-2.88-0.78-2.88-2.34
			c0-1.98,1.02-2.97,3.06-2.97c2.581,0,3.87,1.44,3.87,4.32c0,1.71-0.555,3.187-1.665,4.432c-1.109,1.245-2.7,2.377-4.77,3.397
			L34.403,11.173z"/>
	</g>
</g>
</svg>
