<?xml version="1.0" encoding="utf-8"?>
<!-- Generator: Adobe Illustrator 15.0.2, SVG Export Plug-In . SVG Version: 6.00 Build 0)  -->
<!DOCTYPE svg PUBLIC "-//W3C//DTD SVG 1.1//EN" "http://www.w3.org/Graphics/SVG/1.1/DTD/svg11.dtd">
<svg version="1.1" id="Layer_1" xmlns="http://www.w3.org/2000/svg" xmlns:xlink="http://www.w3.org/1999/xlink" x="0px" y="0px"
	 width="25.435px" height="17.538px" viewBox="0 0 25.435 17.538" enable-background="new 0 0 25.435 17.538" xml:space="preserve">
<g>
	<path fill="#328ECD" d="M25.435,8.09c-0.896,0.152-2.193-0.006-2.883-0.293c1.431-0.118,2.396-0.767,2.772-1.649
		c-0.517,0.316-2.116,0.662-2.999,0.333c-0.045-0.208-0.094-0.406-0.14-0.585c-0.673-2.472-2.979-4.466-5.391-4.225
		c0.192-0.079,0.392-0.151,0.589-0.218c0.268-0.095,1.826-0.351,1.58-0.901c-0.209-0.484-2.112,0.366-2.471,0.478
		C16.966,0.851,17.749,0.546,17.834,0c-0.726,0.1-1.438,0.443-1.989,0.942c0.198-0.214,0.35-0.475,0.382-0.755
		c-1.937,1.237-3.065,3.731-3.979,6.152c-0.719-0.697-1.357-1.246-1.927-1.552c-1.604-0.858-3.52-1.755-6.526-2.873
		c-0.093,0.994,0.492,2.321,2.174,3.2C5.604,5.065,4.938,5.175,4.404,5.303c0.218,1.142,0.927,2.082,2.849,2.536
		C6.376,7.895,5.921,8.097,5.511,8.527c0.398,0.793,1.377,1.727,3.129,1.536c-1.951,0.842-0.795,2.401,0.793,2.171
		C6.725,15.034,2.452,14.827,0,12.485c6.405,8.734,20.325,5.164,22.399-3.249C23.954,9.248,24.868,8.698,25.435,8.09z"/>
</g>
</svg>
