<?xml version="1.0" encoding="utf-8"?>
<!-- Generator: Adobe Illustrator 15.0.2, SVG Export Plug-In . SVG Version: 6.00 Build 0)  -->
<!DOCTYPE svg PUBLIC "-//W3C//DTD SVG 1.1//EN" "http://www.w3.org/Graphics/SVG/1.1/DTD/svg11.dtd">
<svg version="1.1" id="Layer_1" xmlns="http://www.w3.org/2000/svg" xmlns:xlink="http://www.w3.org/1999/xlink" x="0px" y="0px"
	 width="30.422px" height="34.896px" viewBox="0 0 30.422 34.896" enable-background="new 0 0 30.422 34.896" xml:space="preserve">
<g opacity="0.54">
	<path fill="#FFFFFF" d="M8.673,7.816C8.527,7.786,8.41,7.821,8.378,7.947c-0.042,0.148,0.113,0.401,0.317,0.35
		C8.969,8.225,8.98,8.03,9.003,7.786C9.004,7.709,8.783,7.837,8.673,7.816z"/>
	<path fill="#FFFFFF" d="M23.377,10.878v-0.019c0,0.002,0,0.003-0.002,0.005C23.373,10.87,23.375,10.874,23.377,10.878z"/>
	<path fill="#FFFFFF" d="M29.032,0H15.214h-0.007H1.39C1.39,5.406,0,9.949,0,14.745c0,4.505,0.651,8.253,4.04,12.533
		c4.036,5.101,11.036,7.569,11.167,7.616v0.002l0.004-0.002l0.003,0.002v-0.002c0.131-0.047,7.13-2.516,11.167-7.616
		c3.388-4.28,4.041-8.028,4.041-12.533C30.422,9.949,29.032,5.406,29.032,0z M3.686,7.868C3.904,7.79,4.187,7.895,4.342,8.071
		c0.15,0.167,0.142,0.548,0.268,0.505c0,0,0.281,0.105-0.073-0.531c-0.361-0.652-0.851-0.178-0.87-0.543
		C3.661,7.411,3.69,7.321,3.771,7.31c0.456-0.056,0.863,0.192,1.16,0.503c0.41,0.423,0.538,1.069,0.356,1.612
		C5.236,9.581,5.3,10.094,5.27,10.282c-0.101,0.628,0.45,1.224,0.373,1.861c-0.021,0.226,0.185,0.48,0.407,0.58
		c0.323,0.146,0.495,0.145,1.091,0.141c0.422-0.002,1.052,0.072,1.438,0.259c0.344,0.165,0,0,0.352,0.086
		c0,0-0.325,1.916-0.099,2.868c-0.473-0.107-1.15-0.542-1.875-0.817c-0.336-0.129-1.324-0.578-1.295-0.583
		c0.1-0.014-0.354-0.329-0.797-0.455c-0.318-0.09-0.67-1.603-0.638-1.739c0.057-0.22-0.118-0.446-0.143-0.685
		c-0.088-0.706,0.263-1.424-0.041-2.096C3.984,9.571,3.771,9.519,3.672,9.39C3.545,9.227,3.604,9.012,3.629,8.823
		c0.01-0.094,0.137-0.1,0.213-0.062C4.037,8.838,4.141,8.96,4.181,9.2c0.016,0.101,0.349-0.068,0.036-0.455
		C4.042,8.527,3.728,8.678,3.613,8.477C3.532,8.333,3.492,7.936,3.686,7.868z M16.521,23.937c-0.318,0.091-0.576,0.197-0.877,0.395
		c-0.258,0.17-0.892,0.922-1.071,0.873c-0.799-0.207-1.538-0.119-1.968,0.047c-0.34,0.132-0.531,0.559-0.881,0.556
		c-0.4-0.004-0.4-0.213-0.842-0.212c-0.543,0.047-0.399,0.247-0.668,0.317c-0.18,0.044-0.407,0.022-0.591-0.056
		c-0.061-0.02-0.144-0.07-0.118-0.17c0.089-0.338,0.197-0.575,0.599-0.686c0.11-0.032,0.021-0.195-0.104-0.215
		c-0.211-0.028-0.394,0.07-0.51,0.225c-0.185,0.24-0.163,0.443-0.273,0.704c-0.128,0.288-0.503,0.133-0.771,0.127
		c-0.109-0.002-0.2-0.16-0.185-0.299c0.017-0.213,0.077-0.317,0.213-0.469c0.084-0.093,0.174-0.154,0.347-0.23
		c0.096-0.043,0.194-0.12,0.154-0.217c-0.04-0.096-0.247-0.104-0.353-0.065c-0.479,0.195-0.535,0.531-0.696,1.012
		c-0.095,0.283-0.515,0.221-0.769,0.113c-0.145-0.784,0.807-1.333,1.364-1.525c0.569-0.142,2.855-0.184,4.32-0.217
		c0.115-0.002,0.473-0.062,0.57-0.136c0.36-0.292,0.771-0.679,1.182-0.892c0.486-0.252,0.455-0.217,1.088-0.607
		c0.087-0.055,0.446-0.276,0.458-0.236c0.157,0.522,0.728,1.104,1.348,1.389C17.625,23.525,16.703,23.885,16.521,23.937z
		 M25.597,10.56c-0.152,0.397-0.593,0.599-0.76,0.962c-0.282,0.614,0.29,1.149,0.689,1.629c0.021,0.027-0.007,0.065-0.033,0.065
		c-0.739-0.019-1.447-0.619-1.528-1.34c-0.019-0.152-0.212-0.211-0.311-0.095c-0.143,0.165-0.279,0.333-0.25,0.57
		c0.005,0.021-0.041,0.052-0.067,0.028c-0.29-0.292-0.317-0.768-0.243-1.158c0.011-0.062,0.074-0.148,0.118-0.224
		c0.027-0.042-0.055-0.085-0.031-0.141c-0.286-0.035-0.506,0.148-0.686,0.356c-0.021,0.021-0.092,0.024-0.102-0.033
		c-0.131-0.825,0.5-1.26,1.16-1.63l0,0l0,0c0.266-0.149,0.599-0.32,0.825-0.47c0.109-0.933,0.023-1.579,0.054-2.517
		c0-0.021-3.084-0.029-4.283-0.029c-0.031,0.007-0.103,0.129-0.103,0.165c-0.037,1.613-0.057,2.977-0.006,4.593
		c0.779,0.543,1.512,1.111,2.221,1.76c0.975,0.888,2,1.6,2.953,2.502c0.245,0.233,0.207,0.555,0.202,0.862
		c-0.01,0.548,0,1.089-0.003,1.638l0.008,0.041c0.031,0.194,0.023,1.135-0.012,1.269c-0.016,0.061-0.1,0.09-0.146,0.094
		c-0.558,0.03-1.093,0.059-1.835,0.052c-0.254-0.001-0.768,0.021-0.906,0.098c-0.848,0.462-0.41,1.213,0.244,1.146
		c0.452-0.047,0.786-0.058,1.236-0.146c0.48-0.094,0.747-0.09,1.069-0.064c0.191,0.014,0.331,3.782,0.352,4.324
		c0,0-0.031,0.846-0.574,0.867c-0.655,0.025-0.358,0.114-1.019,0.156c-0.309,0.019-0.668,0.045-0.883-0.188
		c-0.066-0.064-0.103-0.195-0.188-0.263c-0.138-0.104-0.358,0-0.417,0.206c-0.041,0.146-0.244,0.434-0.396,0.438
		c-0.321,0.013-0.882,0.135-0.741-0.192c0.156-0.367,0.019-0.596-0.418,0.045c-0.149,0.22-0.595,0.235-0.804,0.137
		c-0.194-0.088-0.068-0.476,0.072-0.611c0.354-0.34-0.291-0.59-0.647,0.52c-0.046,0.142-0.633,0.112-0.667-0.084
		c-0.12-0.722,0.602-1.326,1.308-1.551c0.386-0.125,0.792-0.209,1.172-0.215c0.892-0.008,1.375,0.092,2.23,0.377
		c0.133,0.042,0.403,0.033,0.426-0.075c0.023-0.109-0.005-1.764-0.151-1.942c-0.207-0.052-0.524,0.043-0.909,0.165
		c-0.698,0.222-1.372,0.418-2.008,0.545c-1.454,0.291-1.778,0.174-2.275,0.11c-0.499-0.063-0.861-0.25-1.275-0.549
		c-0.306-0.221-0.57-0.646-0.666-1.038c-0.212-0.851,0.275-1.719,0.951-2.219l0.038-0.037c0.163-0.115,0.355-0.178,0.522-0.298
		c0.018-0.015,0.018-0.081,0.001-0.09c-0.898,0.045-1.942,1.227-2.037,1.843c-0.542,0.062-2.611-0.73-3.3-0.856
		c-0.161-0.028-0.9-0.318-0.763-0.479c0.048-0.055,0.698-0.402,0.982-1.159c0.125-0.334,0.117-0.623,0.189-0.994
		c0.07-0.351,0.193-0.578,0.428-0.865c0.02-0.031,0.067-0.106,0.039-0.115c-0.195-0.04-0.419,0.29-0.5,0.422
		c-0.342,0.56-0.223,0.804-0.492,1.396c-0.211,0.468-1.138,1.28-1.579,1.274c-0.132-0.007-1.502-0.201-1.678-0.277
		c-0.185-0.086-0.978-0.353-1.088-0.373c-0.271-0.055-1.354,0.027-1.611,0.426c-0.064,0.099,0.099,0.23,0.046,0.324
		c-0.208,0.358-0.788,0.156-1.155,0.113c-0.231-0.028-0.242-0.359-0.131-0.53c0.192-0.292,0.302-0.376,0.667-0.478
		c0.068-0.017,0.311-0.104,0.28-0.21c-0.077-0.26-0.415-0.101-0.483-0.04c-0.398,0.356-0.552,0.641-0.968,0.972
		c-0.107,0.084-0.437,0.088-0.46-0.081c-0.049-0.357,0.232-0.7,0.539-0.917c0.042-0.03,0.162,0.035,0.251,0.01
		c0.028-0.01,0.067-0.04,0.069-0.073c0.017-0.152-0.158-0.266-0.296-0.177c-0.464,0.298-0.579,0.824-0.974,1.128
		C3.953,19.459,3.6,19.465,3.576,19.25c-0.067-0.585,0.406-1.153,0.962-1.352c0.481-0.175,0.986-0.039,1.537-0.241
		c0.48-0.021,0.987,0.081,1.426-0.081c0.222-0.076,0.442-0.205,0.655-0.36c0.498-0.361,2.047-0.562,2.759,0.175
		c0.361-0.486-0.958-0.648-1.544-0.894c-0.404-0.169-0.252-2.161-0.11-3.038c0.141-0.877,0.939-1.629,0.52-2.759
		c-0.283-0.764-1.009,0.656-1.228,0.393c-0.075-0.09-0.51-0.376-0.385-0.489c0.442-0.416,1.21-0.572,1.371-1.199
		c0.086-0.331-0.364-0.574-0.776-0.372C8.28,9.268,7.983,9.775,7.454,9.844C7.34,9.862,7.225,9.646,7.152,9.506
		C7.067,9.329,7.26,9.234,7.335,9.081C7.355,9.039,7.34,8.985,7.34,8.932C7.151,8.956,7.138,9.106,7.062,9.281
		C7.04,9.403,6.836,9.15,6.836,9.124c-0.005-0.177,0.129-0.312,0.24-0.447c0.139-0.172,0.302-0.309,0.487-0.448
		C8.04,7.884,8.25,7.255,8.559,6.784C8.57,6.769,8.55,6.722,8.673,6.728c0.8,0.033,1.578,0.312,1.698,0.224
		c0.367-0.277,0.549-0.526,0.688-0.989c0.036-0.114,0.218-0.201,0.328-0.171c0.212,0.057,0.312,0.398,0.291,0.596
		c-0.041,0.351-0.284,0.664-0.607,0.844c0.586,0.409,1.417,1.244,1.761,2.351c0.428,1.378,0.102,2.274,0.102,2.274
		c0.198,0.042,0.25-0.329,0.326-0.896c0.275-2.002-1.021-3.597-1.43-3.818c0.272-0.339,0.302-0.767,0.185-1.127
		c-0.119-0.361-0.492-0.679-0.905-0.544c-0.158,0.052-0.308,0.22-0.417,0.527c-0.117,0.329-0.37,0.559-0.491,0.539
		c-0.4-0.07-0.887-0.112-1.513-0.135C8.385,6.077,8.464,5.418,8.509,5.258c0.042-0.162,0.274-0.249,0.659-0.151
		c0.15,0.039,0.604-0.196,0.914,0.01c0.258,0.056,0.289,0.07,0.598-0.021c0.559-0.143,0.777-0.057,0.94-0.027
		c0.352,0.067,0.955,0.255,1.41,0.544c0.229,0.324,0.012,0.219,0.073,0.408c0.053,0.157,0.601,0.147,0.75,0.179
		c0.702,0.149,0.811,0.207,1.004,0.384c0.021,0.021,0.1,0.173-0.041,0.22c-0.179,0.06-0.266,0.042-0.363,0.205
		c-0.052,0.079,0.042,0.136,0.105,0.17c0.351,0.173,0.622,0.411,0.847,0.708c0.067,0.089,0.235,0.293,0.089,0.379
		c-0.083,0.046-0.182-0.177-0.299-0.054c-0.213,0.221,0.299,0.43,0.517,1.777c0.003,0.01-0.029,0.198-0.165,0.094
		c-0.124-0.094-0.157-0.244-0.307-0.226c-0.16,0.013-0.092,0.204-0.049,0.352c0.132,0.426,0.26,1.518,0.094,1.535
		c-0.175,0.009-0.17-0.151-0.323-0.197c-0.122-0.038-0.153,0.097-0.177,0.196c-0.053,0.234,0.177,0.636,0.104,1.36
		c-0.041,0.417-0.255,0.165-0.369,0.176c-0.33,0.032-0.008,0.523-0.008,0.523c1.353,1.122,1.785,1.823,3.582,3.185
		c0.472,0.357,0.972,0.022,2.193,0.322c1.984,0.488,2.083,0.673,3.299,0.757c0.48,0.033,0.482-0.371,0.482-0.371
		c0-0.345,0.039-1.031-0.013-1.211c-0.055-0.185-0.128-0.367-0.269-0.503c-1.461-1.455-3.151-2.517-4.719-3.791
		c0.089-1.854-0.149-3.399-0.022-5.261c0.029-0.424-0.021-0.866,0.165-1.273c1.512-0.077,2.934,0,4.585,0.01
		c0.487,0.003,0.935-0.094,1.392,0.141c0.037,1.066-0.015,2.13,0.016,3.195c0.001,0.145,0.375,0.137,0.464,0.333
		C25.844,9.735,25.754,10.161,25.597,10.56z"/>
</g>
</svg>
