<?xml version="1.0" encoding="utf-8"?>
<!-- Generator: Adobe Illustrator 15.0.2, SVG Export Plug-In . SVG Version: 6.00 Build 0)  -->
<!DOCTYPE svg PUBLIC "-//W3C//DTD SVG 1.1//EN" "http://www.w3.org/Graphics/SVG/1.1/DTD/svg11.dtd">
<svg version="1.1" id="Layer_1" xmlns="http://www.w3.org/2000/svg" xmlns:xlink="http://www.w3.org/1999/xlink" x="0px" y="0px"
	 width="50.003px" height="30.317px" viewBox="0 0 50.003 30.317" enable-background="new 0 0 50.003 30.317" xml:space="preserve">
<g opacity="0.54">
	<g>
		
			<line fill="none" stroke="#FFFFFF" stroke-width="2.0433" stroke-miterlimit="10" x1="33.177" y1="12.059" x2="38.353" y2="5.188"/>
		<line fill="none" stroke="#FFFFFF" stroke-width="2.0433" stroke-miterlimit="10" x1="25.033" y1="10.875" x2="25.034" y2="0"/>
		
			<line fill="none" stroke="#FFFFFF" stroke-width="2.0433" stroke-miterlimit="10" x1="16.827" y1="12.165" x2="11.65" y2="5.292"/>
	</g>
	<path fill="none" stroke="#FFFFFF" stroke-width="2.0433" stroke-linecap="round" stroke-miterlimit="10" d="M25.002,23.934
		c0,0-1.043-5.825-6.767-6.885c-6.077-1.127-13.35,4.586-13.35,4.586"/>
	<path fill="none" stroke="#FFFFFF" stroke-width="2.0433" stroke-linecap="round" stroke-miterlimit="10" d="M25.002,23.934
		c0,0,1.042-5.825,6.765-6.885c6.078-1.127,13.352,4.586,13.352,4.586"/>
	
		<path fill="none" stroke="#FFFFFF" stroke-width="2.0433" stroke-linecap="round" stroke-linejoin="round" stroke-miterlimit="10" d="
		M48.981,26.512H29.152c0,1.537-1.246,2.784-2.785,2.784h-2.519c-1.538,0-2.784-1.247-2.784-2.784H1.021"/>
</g>
</svg>
